<svg width="40" height="40" viewBox="0 0 40 40" fill="none" xmlns="http://www.w3.org/2000/svg">
<circle cx="20" cy="20" r="19" stroke="white" stroke-width="2"/>
<path d="M0.701927 5.54862C0.308562 5.16096 -0.324586 5.16558 -0.712249 5.55894C-1.09991 5.95231 -1.09529 6.58546 -0.701927 6.97312L0.701927 5.54862ZM5.82353 12L5.1216 12.7122L5.82353 13.404L6.52546 12.7122L5.82353 12ZM18.7019 0.712249C19.0953 0.324586 19.0999 -0.308562 18.7122 -0.701927C18.3246 -1.09529 17.6914 -1.09991 17.2981 -0.712249L18.7019 0.712249ZM-0.701927 6.97312L5.1216 12.7122L6.52546 11.2878L0.701927 5.54862L-0.701927 6.97312ZM6.52546 12.7122L18.7019 0.712249L17.2981 -0.712249L5.1216 11.2878L6.52546 12.7122Z" transform="translate(11 14)" fill="white"/>
</svg>
