<svg width="30" height="30" viewBox="0 0 30 30" version="1.1" xmlns="http://www.w3.org/2000/svg" xmlns:xlink="http://www.w3.org/1999/xlink">
<title>form-ico</title>
<desc>Created using Figma</desc>
<g id="Canvas" transform="translate(2043 -563)">
<clipPath id="clip-0" clip-rule="evenodd">
<path d="M -2043 563L -2013 563L -2013 593L -2043 593L -2043 563Z" fill="#FFFFFF"/>
</clipPath>
<g id="form-ico" clip-path="url(#clip-0)">
<g id="date">
<g id="Rectangle 2">
<use xlink:href="#path0_fill" transform="translate(-2038 569)" fill="#303BFD"/>
</g>
<g id="Rectangle 2.1">
<use xlink:href="#path1_fill" transform="translate(-2033.45 578)" fill="#66E698"/>
</g>
<g id="Rectangle">
<mask id="mask0_outline_ins">
<use xlink:href="#path2_fill" fill="white" transform="translate(-2038 569)"/>
</mask>
<g mask="url(#mask0_outline_ins)">
<use xlink:href="#path3_stroke_2x" transform="translate(-2038 569)" fill="#303BFD"/>
</g>
</g>
</g>
</g>
</g>
<defs>
<path id="path0_fill" d="M 0 1C 0 0.447715 0.447715 0 1 0L 19 0C 19.5523 0 20 0.447715 20 1L 20 5.4L 0 5.4L 0 1Z"/>
<path id="path1_fill" d="M 0 1C 0 0.447715 0.447715 0 1 0L 3.54545 0C 4.09774 0 4.54545 0.447715 4.54545 1L 4.54545 3.5C 4.54545 4.05228 4.09774 4.5 3.54545 4.5L 1 4.5C 0.447715 4.5 0 4.05228 0 3.5L 0 1Z"/>
<path id="path2_fill" d="M 0 1C 0 0.447715 0.447715 0 1 0L 19 0C 19.5523 0 20 0.447715 20 1L 20 17C 20 17.5523 19.5523 18 19 18L 1 18C 0.447715 18 0 17.5523 0 17L 0 1Z"/>
<path id="path3_stroke_2x" d="M 1 1L 19 1L 19 -1L 1 -1L 1 1ZM 19 1L 19 17L 21 17L 21 1L 19 1ZM 19 17L 1 17L 1 19L 19 19L 19 17ZM 1 17L 1 1L -1 1L -1 17L 1 17ZM 1 17L 1 17L -1 17C -1 18.1046 -0.104569 19 1 19L 1 17ZM 19 17L 19 17L 19 19C 20.1046 19 21 18.1046 21 17L 19 17ZM 19 1L 19 1L 21 1C 21 -0.104569 20.1046 -1 19 -1L 19 1ZM 1 -1C -0.104569 -1 -1 -0.104569 -1 1L 1 1L 1 1L 1 -1Z"/>
</defs>
</svg>
