<svg width="10" height="8" viewBox="0 0 10 8" version="1.1" xmlns="http://www.w3.org/2000/svg" xmlns:xlink="http://www.w3.org/1999/xlink">
<title>Vector</title>
<desc>Created using Figma</desc>
<g id="Canvas" transform="translate(-254 1622)">
<g id="Vector">
<use xlink:href="#path0_stroke" transform="translate(255 -1621)" fill="#275DF2"/>
</g>
</g>
<defs>
<path id="path0_stroke" d="M 0.644871 2.98571C 0.222764 2.62956 -0.408139 2.68302 -0.764291 3.10513C -1.12044 3.52724 -1.06698 4.15814 -0.644871 4.51429L 0.644871 2.98571ZM 2.66667 6L 2.0218 6.76429C 2.43623 7.11397 3.05383 7.06964 3.41408 6.66436L 2.66667 6ZM 8.74741 0.664364C 9.11433 0.251581 9.07715 -0.380491 8.66436 -0.747409C 8.25158 -1.11433 7.61951 -1.07715 7.25259 -0.664364L 8.74741 0.664364ZM -0.644871 4.51429L 2.0218 6.76429L 3.31154 5.23571L 0.644871 2.98571L -0.644871 4.51429ZM 3.41408 6.66436L 8.74741 0.664364L 7.25259 -0.664364L 1.91926 5.33564L 3.41408 6.66436Z"/>
</defs>
</svg>
