<svg width="48" height="48" viewBox="0 0 48 48" fill="none" xmlns="http://www.w3.org/2000/svg">
<path d="M20.2611 0.24879C19.1395 -0.323429 17.7674 0.124931 17.1969 1.25017L0.248007 34.6787C-0.322478 35.8038 0.124642 37.1793 1.24662 37.7514C1.57752 37.92 1.93014 38 2.27759 38C3.10803 38 3.90853 37.5433 4.31083 36.75L21.2598 3.3215C21.8302 2.19641 21.3831 0.820856 20.2611 0.24879Z" transform="translate(13.1947 5)" fill="#84DBFF"/>
<path d="M17.2859 8.66707C17.2859 3.88807 13.4086 -7.67133e-08 8.6428 -7.67133e-08C3.87732 -7.67133e-08 0 3.88807 0 8.66707C0 13.4459 3.87732 17.334 8.64295 17.334C13.4087 17.334 17.2859 13.4459 17.2859 8.66707ZM8.64295 12.7636C6.39049 12.7636 4.5578 10.9258 4.5578 8.66707C4.5578 6.40821 6.39049 4.57044 8.64295 4.57044C10.8956 4.57044 12.7283 6.40806 12.7283 8.66707C12.7281 10.9258 10.8956 12.7636 8.64295 12.7636Z" transform="translate(4 7.58984)" fill="#84DBFF"/>
<path d="M8.6431 2.78957e-07C3.87732 2.78957e-07 -5.00735e-07 3.88807 -5.00735e-07 8.66692C-5.00735e-07 13.4458 3.87717 17.3338 8.6431 17.3338C13.4087 17.3338 17.2861 13.4459 17.2861 8.66692C17.2861 3.88792 13.4089 2.78957e-07 8.6431 2.78957e-07ZM8.6431 12.7633C6.39049 12.7633 4.5578 10.9255 4.5578 8.66677C4.5578 6.40806 6.39049 4.57029 8.6431 4.57029C10.8956 4.57029 12.7283 6.40806 12.7283 8.66677C12.7283 10.9255 10.8957 12.7633 8.6431 12.7633Z" transform="translate(26.714 23.0764)" fill="#84DBFF"/>
</svg>
