<svg width="160" height="160" viewBox="0 0 160 160" version="1.1" xmlns="http://www.w3.org/2000/svg" xmlns:xlink="http://www.w3.org/1999/xlink">
<g id="Canvas" fill="none">
<g id="placeholder-default" clip-path="url(#clip0)">
<g id="photo-camera">
<g id="Group">
<g id="Group_2">
<g id="Vector">
<path d="M 56 33.75C 46.7208 33.75 39.2 41.3078 39.2 50.625C 39.2 59.9456 46.7208 67.5 56 67.5C 65.277 67.5 72.8 59.9456 72.8 50.625C 72.8 41.3078 65.277 33.75 56 33.75ZM 100.8 16.875L 87.36 16.875C 85.512 16.875 83.5206 15.435 82.9371 13.6732L 79.4629 3.20063C 78.8771 1.44 76.888 0 75.04 0L 36.96 0C 35.112 0 33.1206 1.44 32.5371 3.20175L 29.0629 13.6744C 28.4771 15.435 26.488 16.875 24.64 16.875L 11.2 16.875C 5.04 16.875 0 21.9375 0 28.125L 0 78.75C 0 84.9375 5.04 90 11.2 90L 100.8 90C 106.96 90 112 84.9375 112 78.75L 112 28.125C 112 21.9375 106.96 16.875 100.8 16.875ZM 56 78.75C 40.5362 78.75 28 66.1579 28 50.625C 28 35.0933 40.5362 22.5 56 22.5C 71.4616 22.5 84 35.0933 84 50.625C 84 66.1579 71.4616 78.75 56 78.75ZM 96.88 35.9921C 94.7162 35.9921 92.96 34.2304 92.96 32.0546C 92.96 29.8811 94.7162 28.1171 96.88 28.1171C 99.0461 28.1171 100.8 29.8811 100.8 32.0546C 100.8 34.2304 99.045 35.9921 96.88 35.9921Z" transform="translate(24 35)" fill="#F0F2FA"/>
</g>
</g>
</g>
</g>
</g>
</g>
<defs>

<clipPath id="clip0">
<rect width="160" height="160" fill="white"/>
</clipPath>

</defs>
</svg>

