<svg width="48" height="48" viewBox="0 0 48 48" fill="none" xmlns="http://www.w3.org/2000/svg">
<path d="M14 12.1C21.732 12.1 28 9.39129 28 6.04998C28 2.70867 21.732 0 14 0C6.26801 0 0 2.70867 0 6.04998C0 9.39129 6.26801 12.1 14 12.1Z" transform="translate(10 33.9001)" fill="#F2F2F2"/>
<path d="M12.9231 0C5.74364 0 -2.09686e-07 5.9583 -2.09686e-07 13.2C-2.09686e-07 20.5333 12.9231 39.6916 12.9231 39.6916C12.9231 39.6916 25.8461 20.5332 25.8461 13.2C25.8462 5.9583 20.1026 0 12.9231 0ZM12.9231 19.0667C9.78215 19.0667 7.17959 16.4084 7.17959 13.2001C7.17959 9.99177 9.78215 7.33344 12.9231 7.33344C16.0641 7.33344 18.6667 9.99177 18.6667 13.2001C18.6667 16.4084 16.0641 19.0667 12.9231 19.0667Z" transform="translate(11.0769 2)" fill="#84DBFF"/>
</svg>
