<svg width="48" height="48" viewBox="0 0 48 48" fill="none" xmlns="http://www.w3.org/2000/svg">
<path d="M19.5501 17.4998C18.8414 17.4998 18.2393 17.2447 17.7436 16.7342C17.2477 16.2241 17 15.6042 17 14.8749V0H2.54989C1.84169 0 1.23955 0.255045 0.743746 0.765519C0.247853 1.2757 1.33447e-07 1.89555 1.33447e-07 2.62487V39.375C1.33447e-07 40.1045 0.247853 40.7244 0.743746 41.2347C1.23964 41.7447 1.84169 42 2.54999 42H31.4507C32.1588 42 32.7605 41.7447 33.2563 41.2347C33.752 40.724 34 40.1045 34 39.375V17.4998H19.5501ZM27.2 34.125C27.2 34.38 27.1205 34.5898 26.9613 34.7536C26.8021 34.9173 26.5984 34.9994 26.3506 34.9994H7.64996C7.4022 34.9994 7.19845 34.9174 7.03898 34.7536C6.87998 34.5897 6.80006 34.38 6.80006 34.125V32.3748C6.80006 32.1192 6.8797 31.9095 7.03898 31.7456C7.19854 31.5824 7.40229 31.4999 7.64996 31.4999H26.3506C26.5984 31.4999 26.8022 31.5824 26.9613 31.7456C27.1205 31.9095 27.2 32.1192 27.2 32.3748V34.125ZM27.2 27.1248C27.2 27.3805 27.1205 27.5896 26.9613 27.7541C26.8021 27.9176 26.5984 27.9999 26.3506 27.9999H7.64996C7.4022 27.9999 7.19845 27.9176 7.03898 27.7541C6.87998 27.5895 6.80006 27.3805 6.80006 27.1248V25.3747C6.80006 25.1197 6.8797 24.9099 7.03898 24.7461C7.19854 24.5822 7.40229 24.5003 7.64996 24.5003H26.3506C26.5984 24.5003 26.8022 24.5822 26.9613 24.7461C27.1204 24.91 27.2 25.1197 27.2 25.3747V27.1248Z" transform="translate(7 3)" fill="#84DBFF"/>
<path d="M11.7944 10.309L3.50679 1.77737C2.62098 0.86589 1.45186 0.273146 -2.27144e-07 -2.64877e-09V13.9182H13.5208C13.2552 12.423 12.6793 11.2201 11.7944 10.309Z" transform="translate(27.3999 3.08179)" fill="#84DBFF"/>
</svg>
