<svg width="24" height="24" viewBox="0 0 24 24" version="1.1" xmlns="http://www.w3.org/2000/svg" xmlns:xlink="http://www.w3.org/1999/xlink">
<title>action-upload</title>
<desc>Created using Figma</desc>
<g id="Canvas" transform="translate(422 2153)">
<clipPath id="clip-0" clip-rule="evenodd">
<path d="M -422 -2153L -398 -2153L -398 -2129L -422 -2129L -422 -2153Z" fill="#FFFFFF"/>
</clipPath>
<g id="action-upload" clip-path="url(#clip-0)">
<g id="upload">
<use xlink:href="#path0_stroke" transform="matrix(1 0 0 -1 -415 -2136)" fill="#FFFFFF"/>
</g>
</g>
</g>
<defs>
<path id="path0_stroke" d="M 6 0C 6 -0.552285 5.55228 -1 5 -1C 4.44772 -1 4 -0.552285 4 0L 6 0ZM 5 11L 4.29289 11.7071C 4.68342 12.0976 5.31658 12.0976 5.70711 11.7071L 5 11ZM 10.7071 6.70711C 11.0976 6.31658 11.0976 5.68342 10.7071 5.29289C 10.3166 4.90237 9.68342 4.90237 9.29289 5.29289L 10.7071 6.70711ZM 0.707107 5.29289C 0.316582 4.90237 -0.316582 4.90237 -0.707107 5.29289C -1.09763 5.68342 -1.09763 6.31658 -0.707107 6.70711L 0.707107 5.29289ZM 4 0L 4 11L 6 11L 6 0L 4 0ZM 5.70711 11.7071L 10.7071 6.70711L 9.29289 5.29289L 4.29289 10.2929L 5.70711 11.7071ZM 5.70711 10.2929L 0.707107 5.29289L -0.707107 6.70711L 4.29289 11.7071L 5.70711 10.2929Z"/>
</defs>
</svg>
