<svg width="24" height="24" viewBox="0 0 24 24" version="1.1" xmlns="http://www.w3.org/2000/svg" xmlns:xlink="http://www.w3.org/1999/xlink">
<title>action-ico</title>
<desc>Created using Figma</desc>
<g id="Canvas" transform="translate(1977 -43)">
<clipPath id="clip-0" clip-rule="evenodd">
<path d="M -1977 43L -1953 43L -1953 67L -1977 67L -1977 43Z" fill="#275DF2"/>
</clipPath>
<g id="action-ico" clip-path="url(#clip-0)">
<g id="download">
<use xlink:href="#path0_stroke" transform="translate(-1972 47)" fill="#275DF2"/>
</g>
</g>
</g>
<defs>
<path id="path0_stroke" d="M 8 0C 8 -0.552285 7.55228 -1 7 -1C 6.44772 -1 6 -0.552285 6 0L 8 0ZM 7 11L 6.29289 11.7071C 6.68342 12.0976 7.31658 12.0976 7.70711 11.7071L 7 11ZM 12.7071 6.70711C 13.0976 6.31658 13.0976 5.68342 12.7071 5.29289C 12.3166 4.90237 11.6834 4.90237 11.2929 5.29289L 12.7071 6.70711ZM 2.70711 5.29289C 2.31658 4.90237 1.68342 4.90237 1.29289 5.29289C 0.902369 5.68342 0.902369 6.31658 1.29289 6.70711L 2.70711 5.29289ZM 0 15C -0.552285 15 -1 15.4477 -1 16C -1 16.5523 -0.552285 17 0 17L 0 15ZM 14 17C 14.5523 17 15 16.5523 15 16C 15 15.4477 14.5523 15 14 15L 14 17ZM 6 0L 6 11L 8 11L 8 0L 6 0ZM 7.70711 11.7071L 12.7071 6.70711L 11.2929 5.29289L 6.29289 10.2929L 7.70711 11.7071ZM 7.70711 10.2929L 2.70711 5.29289L 1.29289 6.70711L 6.29289 11.7071L 7.70711 10.2929ZM 0 17L 14 17L 14 15L 0 15L 0 17Z"/>
</defs>
</svg>
