<?xml version="1.0" encoding="utf-8"?>
<!-- Generator: Adobe Illustrator 22.1.0, SVG Export Plug-In . SVG Version: 6.00 Build 0)  -->
<svg version="1.1" id="Слой_1" xmlns="http://www.w3.org/2000/svg" xmlns:xlink="http://www.w3.org/1999/xlink" x="0px" y="0px"
	 viewBox="0 0 56 56" style="enable-background:new 0 0 56 56;" xml:space="preserve">
<style type="text/css">
	.st0{fill:#F55656;}
</style>
<path class="st0" d="M38.3,22.9h-1.7c-0.4,0-0.8,0.4-0.8,0.8c0,0.4,0.4,0.8,0.8,0.8h1.7c0.4,0,0.8-0.4,0.8-0.8
	C39.1,23.3,38.8,22.9,38.3,22.9z"/>
<path class="st0" d="M38.5,29.6c-0.3-0.4-0.8-0.6-1.3-0.6H18.8c-0.5,0-1,0.2-1.3,0.6c-0.3,0.4-0.4,0.9-0.3,1.4l0.4,1.7
	c0.2,0.7,0.8,1.3,1.6,1.3h17.6c0.8,0,1.4-0.5,1.6-1.3l0.4-1.7C38.9,30.5,38.8,30,38.5,29.6z M37.3,30.6l-0.4,1.7c0,0,0,0-0.1,0H19.2
	c0,0,0,0-0.1,0l-0.4-1.7c0,0,0,0,0,0s0,0,0,0L37.3,30.6C37.2,30.5,37.2,30.5,37.3,30.6C37.3,30.6,37.3,30.6,37.3,30.6z"/>
<path class="st0" d="M49.5,24.5c1.4,0,2.5-1.1,2.5-2.5c0-1.4-1.1-2.5-2.5-2.5h-0.9c-1.3,0-2.3,0.9-2.5,2.1L44,15.7
	c-0.5-1.3-1.8-2.2-3.2-2.2H15.2c-1.4,0-2.7,0.9-3.2,2.2l-2.1,5.9c-0.2-1.2-1.2-2.1-2.5-2.1H6.5C5.1,19.5,4,20.6,4,22
	c0,1.4,1.1,2.5,2.5,2.5h0.9c0.4,0,0.8-0.1,1.1-0.3l-1.8,2.3c-0.6,0.7-0.9,1.7-0.9,2.6v16c0,0.9,0.7,1.7,1.7,1.7H10
	c0.9,0,1.7-0.7,1.7-1.7v-3.5h32.8v3.5c0,0.9,0.7,1.7,1.7,1.7h2.6c0.9,0,1.7-0.7,1.7-1.7v-16c0-1-0.3-1.9-0.9-2.6l-1.8-2.3
	c0.3,0.2,0.7,0.3,1.1,0.3H49.5z M7.4,22.9H6.5c-0.5,0-0.9-0.4-0.9-0.9s0.4-0.9,0.9-0.9h0.9c0.5,0,0.9,0.4,0.9,0.9
	C8.3,22.5,7.9,22.9,7.4,22.9z M10,45.2H7.4c0,0-0.1,0-0.1-0.1v-4c0.5,0.3,1.1,0.5,1.8,0.5H10L10,45.2C10,45.2,10,45.2,10,45.2z
	 M37.5,40.1h-19v-1.8c0,0,0-0.1,0.1-0.1h18.9c0,0,0.1,0,0.1,0.1L37.5,40.1z M48.6,45.2H46c0,0-0.1,0-0.1-0.1v-3.5h0.9
	c0.6,0,1.3-0.2,1.8-0.5L48.6,45.2C48.7,45.2,48.6,45.2,48.6,45.2z M48.1,27.6c0.4,0.5,0.6,1,0.6,1.6v9.1c0,1-0.8,1.8-1.8,1.8h-7.8
	v-1.8c0-0.9-0.7-1.7-1.7-1.7H18.6c-0.9,0-1.7,0.7-1.7,1.7v1.8H9.1c-1,0-1.8-0.8-1.8-1.8v-9.1c0-0.6,0.2-1.2,0.6-1.6l2.4-3.1h22.8
	c0.4,0,0.8-0.4,0.8-0.8c0-0.4-0.4-0.8-0.8-0.8h-22l2.4-6.7c0.3-0.7,0.9-1.2,1.7-1.2h25.6c0.7,0,1.4,0.5,1.7,1.2l2.4,6.7h-3.1
	c-0.4,0-0.8,0.4-0.8,0.8c0,0.4,0.4,0.8,0.8,0.8h3.9L48.1,27.6z M47.7,22c0-0.5,0.4-0.9,0.9-0.9h0.9c0.5,0,0.9,0.4,0.9,0.9
	s-0.4,0.9-0.9,0.9h-0.9C48.1,22.9,47.7,22.5,47.7,22z"/>
<path class="st0" d="M12.5,34.9c-0.9,0-1.7,0.7-1.7,1.7s0.7,1.7,1.7,1.7c0.9,0,1.7-0.7,1.7-1.7S13.5,34.9,12.5,34.9z"/>
<path class="st0" d="M43.5,34.9c-0.9,0-1.7,0.7-1.7,1.7s0.7,1.7,1.7,1.7c0.9,0,1.7-0.7,1.7-1.7S44.4,34.9,43.5,34.9z"/>
<path class="st0" d="M12.1,28.1c-1.6,0-3,1.3-3,3c0,1.6,1.3,3,3,3c1.6,0,3-1.3,3-3C15.1,29.4,13.7,28.1,12.1,28.1z M12.1,32.3
	c-0.7,0-1.3-0.6-1.3-1.3c0-0.7,0.6-1.3,1.3-1.3c0.7,0,1.3,0.6,1.3,1.3C13.4,31.7,12.8,32.3,12.1,32.3z"/>
<path class="st0" d="M43.9,28.1c-1.6,0-3,1.3-3,3c0,1.6,1.3,3,3,3s3-1.3,3-3C46.8,29.4,45.5,28.1,43.9,28.1z M43.9,32.3
	c-0.7,0-1.3-0.6-1.3-1.3c0-0.7,0.6-1.3,1.3-1.3s1.3,0.6,1.3,1.3C45.2,31.7,44.6,32.3,43.9,32.3z"/>
</svg>
