<?xml version="1.0" encoding="utf-8"?>
<!-- Generator: Adobe Illustrator 22.1.0, SVG Export Plug-In . SVG Version: 6.00 Build 0)  -->
<svg version="1.1" id="Слой_1" xmlns="http://www.w3.org/2000/svg" xmlns:xlink="http://www.w3.org/1999/xlink" x="0px" y="0px"
	 viewBox="0 0 56 56" style="enable-background:new 0 0 56 56;" xml:space="preserve">
<style type="text/css">
	.st0{clip-path:url(#SVGID_2_);}
	.st1{fill:#F55656;}
</style>
<g>
	<defs>
		<rect id="SVGID_1_" x="3" y="3" width="50" height="50"/>
	</defs>
	<clipPath id="SVGID_2_">
		<use xlink:href="#SVGID_1_"  style="overflow:visible;"/>
	</clipPath>
	<g class="st0">
		<path class="st1" d="M52.5,32.4c-0.1-0.1-0.3-0.3-0.4-0.4c0.3-0.4,0.5-0.9,0.5-1.5c0-0.8-0.2-1.5-0.7-2.1c-0.6-0.6-1.3-1-2.2-1
			c-0.7,0-1.4,0.3-2,0.7L36.4,38.3H26.1v-17c1.4,0.2,3.1,0.7,4.6,1.6c0.4,0.2,0.8,0.2,1.2,0c1.1-0.7,5-2.6,10.8-0.1c0,0,0,0,0,0
			c0,0,0,0,0,0c0.3,0.1,0.7,0.1,0.9-0.1c0.3-0.2,0.4-0.5,0.3-0.9c-0.8-4.1-3.2-7.9-6.7-10.6C33.8,8.6,29.5,7.1,25.1,7V5.9
			c0-0.4-0.3-0.7-0.7-0.7c-0.4,0-0.7,0.3-0.7,0.7V7c-4.4,0.1-8.7,1.6-12.1,4.2C8,14,5.6,17.7,4.8,21.9c-0.1,0.3,0.1,0.7,0.3,0.9
			C5.4,23,5.7,23,6,22.9c0,0,0,0,0,0c5.8-2.5,9.7-0.6,10.8,0.1c0.2,0.1,0.4,0.2,0.6,0.2c0.2,0,0.4-0.1,0.6-0.2
			c1.5-1,3.2-1.4,4.6-1.6v17H7.1c-1.6,0-2.9,1.3-2.9,2.9c0,0.5,0.1,1,0.4,1.4c-0.9,0.2-1.5,1-1.5,2c0,1.1,0.9,2,2,2h2.3
			c0,0-0.4,0.5-0.4,0.5c-0.7,0.9-0.5,2.3,0.4,3.1c0.9,0.7,2.3,0.6,3.1-0.4l2.5-3.2h9.8v2.6c0,1,0.8,1.7,1.8,1.7
			c0.9,0,1.7-0.7,1.7-1.7v-2.6h6.4c0,0,2.7,3.5,2.7,3.5c0.7,0.9,2.1,1.1,3.1,0.4c0.9-0.7,1.1-2.1,0.4-3.1L38,46.6
			c1.2-0.1,2.3-0.6,3.2-1.4l11.1-10c0.4-0.4,0.6-0.9,0.7-1.4C53,33.3,52.8,32.8,52.5,32.4z M42.3,21.1c-2.2-0.8-6.5-1.8-10.4,0.1
			c-0.4-3.8-1.6-9.3-5.1-12.7c3.5,0.4,6.8,1.7,9.5,3.8C39.3,14.7,41.4,17.7,42.3,21.1z M6.5,21.1c0.9-3.4,3-6.5,6-8.7
			c2.7-2.1,6-3.4,9.5-3.8c-1,1-1.9,2.2-2.7,3.6c-0.2,0.4,0,0.8,0.3,1c0.4,0.2,0.8,0,1-0.3c1-1.9,2.3-3.3,3.8-4.3
			c4.2,2.7,5.6,8.5,6,12.5c-2.2-1.1-4.4-1.4-6-1.4c0,0,0,0,0,0c0,0,0,0,0,0c-1.6,0-3.9,0.3-6,1.4c0.2-1.9,0.6-3.6,1.1-5.2
			c0.1-0.4-0.1-0.8-0.5-0.9c-0.4-0.1-0.8,0.1-0.9,0.5c-0.6,1.8-0.9,3.7-1.2,5.8C12.9,19.3,8.7,20.4,6.5,21.1z M24.1,21.1
			c0.1,0,0.2,0,0.3,0c0.1,0,0.2,0,0.3,0v17.2h-0.6V21.1z M9.2,49c-0.2,0.3-0.7,0.4-1,0.1c-0.3-0.2-0.3-0.8-0.1-1l1.1-1.4H11L9.2,49z
			 M24.7,49.2c0,0.1-0.1,0.2-0.2,0.2h-0.2c-0.1,0-0.2-0.1-0.2-0.2v-2.6h0.6V49.2z M37.7,48.9c0,0.2-0.1,0.4-0.3,0.5
			c-0.3,0.2-0.8,0.2-1-0.1l-2-2.6h1.8l1.3,1.7C37.6,48.5,37.7,48.7,37.7,48.9z M51.5,33.7c0,0.1-0.1,0.3-0.2,0.4l-11.1,10
			c-0.7,0.7-1.7,1-2.7,1H5c-0.3,0-0.6-0.3-0.6-0.6s0.3-0.6,0.6-0.6h5.2c0.4,0,0.7-0.3,0.7-0.7c0-0.4-0.3-0.7-0.7-0.7H6.6
			c-0.6-0.2-0.9-0.8-0.9-1.4c0-0.8,0.7-1.5,1.5-1.5h29.6c0.2,0,0.4-0.1,0.5-0.2l11.5-10.3c0.3-0.2,0.6-0.4,1-0.4
			c0.4,0,0.8,0.2,1.1,0.5c0.3,0.3,0.4,0.7,0.4,1c0,0.4-0.2,0.7-0.5,1c0,0-0.8,0.6-1,0.8l-11.1,10c-0.3,0.2-0.6,0.4-1,0.4H13.6
			c-0.4,0-0.7,0.3-0.7,0.7c0,0.4,0.3,0.7,0.7,0.7h23.9c0.7,0,1.4-0.3,2-0.7l11.1-10c0.1-0.1,0.3-0.2,0.4-0.1c0.1,0,0.3,0.1,0.4,0.2
			C51.5,33.4,51.5,33.6,51.5,33.7z"/>
	</g>
</g>
</svg>
