<?xml version="1.0" encoding="utf-8"?>
<!-- Generator: Adobe Illustrator 22.1.0, SVG Export Plug-In . SVG Version: 6.00 Build 0)  -->
<svg version="1.1" id="Слой_1" xmlns="http://www.w3.org/2000/svg" xmlns:xlink="http://www.w3.org/1999/xlink" x="0px" y="0px"
	 viewBox="0 0 56 56" style="enable-background:new 0 0 56 56;" xml:space="preserve">
<style type="text/css">
	.st0{clip-path:url(#SVGID_2_);}
	.st1{fill:#F55656;}
</style>
<g>
	<defs>
		<rect id="SVGID_1_" x="7" y="7" width="42" height="42"/>
	</defs>
	<clipPath id="SVGID_2_">
		<use xlink:href="#SVGID_1_"  style="overflow:visible;"/>
	</clipPath>
	<g class="st0">
		<path class="st1" d="M17.3,24c0,0.5-0.4,0.8-0.8,0.8s-0.8-0.4-0.8-0.8s0.4-0.8,0.8-0.8S17.3,23.5,17.3,24z"/>
		<path class="st1" d="M27.5,48.9C27.7,49,27.8,49,28,49c0.2,0,0.3,0,0.5-0.1l7.5-5c4.8-3.2,7.7-8.6,7.7-14.3V12.8
			c0-0.4-0.2-0.7-0.6-0.8L28.3,7C28.1,7,27.9,7,27.7,7L13,12c-0.3,0.1-0.6,0.4-0.6,0.8v16.8c0,5.8,2.9,11.1,7.7,14.3L27.5,48.9z
			 M14.1,29.6V13.4L28,8.7l13.9,4.7v16.2c0,5.2-2.6,10.1-6.9,13l-7,4.7l-7-4.7C16.6,39.6,14.1,34.8,14.1,29.6z"/>
		<path class="st1" d="M27.5,44.9c0.1,0.1,0.3,0.1,0.5,0.1s0.3,0,0.5-0.1l5.6-3.8c3.9-2.6,6.2-6.9,6.2-11.6V15.1
			c0-0.4-0.2-0.7-0.6-0.8l-11.5-3.9c-0.2-0.1-0.4-0.1-0.5,0l-11.5,3.9c-0.3,0.1-0.6,0.4-0.6,0.8v5.6c0,0.5,0.4,0.8,0.8,0.8
			c0.5,0,0.8-0.4,0.8-0.8v-5L28,12.1l10.7,3.6v13.8c0,4.1-2,8-5.5,10.2L28,43.3l-5.2-3.5c-3.4-2.3-5.5-6.1-5.5-10.2v-2.3
			c0-0.5-0.4-0.8-0.8-0.8c-0.5,0-0.8,0.4-0.8,0.8v2.3c0,4.7,2.3,9,6.2,11.6L27.5,44.9z"/>
		<path class="st1" d="M24.6,33.9c0.5,0.5,1.1,0.7,1.7,0.7s1.3-0.3,1.7-0.7l6.6-6.6c1-1,1-2.5,0-3.5c-1-1-2.5-1-3.5,0l-4.8,4.8
			l-1.5-1.5c-1-1-2.5-1-3.5,0c-1,1-1,2.5,0,3.5L24.6,33.9z M22.5,28.3c0.3-0.3,0.8-0.3,1.2,0l2.1,2.1c0.3,0.3,0.8,0.3,1.2,0l5.4-5.4
			c0.3-0.3,0.8-0.3,1.2,0c0.3,0.3,0.3,0.8,0,1.2l-6.6,6.6c-0.2,0.2-0.4,0.2-0.6,0.2c-0.2,0-0.4-0.1-0.6-0.2l-3.3-3.3
			C22.2,29.2,22.2,28.6,22.5,28.3z"/>
	</g>
</g>
</svg>
