<?xml version="1.0" encoding="utf-8"?>
<!-- Generator: Adobe Illustrator 22.1.0, SVG Export Plug-In . SVG Version: 6.00 Build 0)  -->
<svg version="1.1" id="Слой_1" xmlns="http://www.w3.org/2000/svg" xmlns:xlink="http://www.w3.org/1999/xlink" x="0px" y="0px"
	 viewBox="0 0 56 56" style="enable-background:new 0 0 56 56;" xml:space="preserve">
<style type="text/css">
	.st0{clip-path:url(#SVGID_2_);}
	.st1{fill:#F55656;}
</style>
<g>
	<defs>
		<rect id="SVGID_1_" x="7" y="7" width="42" height="42"/>
	</defs>
	<clipPath id="SVGID_2_">
		<use xlink:href="#SVGID_1_"  style="overflow:visible;"/>
	</clipPath>
	<g class="st0">
		<path class="st1" d="M21.5,22L21.5,22L21.5,22z"/>
		<path class="st1" d="M15.7,33.4L15.7,33.4L15.7,33.4L15.7,33.4z"/>
		<path class="st1" d="M24.2,26L24.2,26L24.2,26L24.2,26z"/>
		<path class="st1" d="M26.4,38.7L26.4,38.7L26.4,38.7L26.4,38.7z"/>
		<path class="st1" d="M36.3,24.1c-1.8,0-3.3,1.5-3.3,3.3s1.5,3.3,3.3,3.3c1.8,0,3.3-1.5,3.3-3.3S38.1,24.1,36.3,24.1z M36.3,29.1
			c-0.9,0-1.7-0.7-1.7-1.7c0-0.9,0.7-1.7,1.7-1.7c0.9,0,1.7,0.7,1.7,1.7C37.9,28.4,37.2,29.1,36.3,29.1z"/>
		<path class="st1" d="M28,7c-3.2,0-6.2,0.7-8.9,2c-1.3-1.2-3-2-5-2c-4,0-7.2,3.2-7.2,7c0,1.5,0.9,3.3,2,5c-1.3,2.7-2,5.7-2,8.9
			c0,11.6,9.4,21,21,21s21-9.4,21-21S39.6,7,28,7z M8.7,14c0-3,2.5-5.4,5.5-5.4c3.1,0,5.5,2.4,5.5,5.4c0,3-5.5,9-5.5,9
			S8.7,17,8.7,14z M8.7,28c0-2.6,0.5-5.1,1.4-7.3c1.2,1.7,2.4,3,2.9,3.5l1.2,1.3l1.2-1.3c1-1.1,6-6.7,6-10.1c0-1.4-0.4-2.7-1.1-3.8
			c1.3-0.6,2.7-1,4.2-1.3L24,9.8c-0.2,0.4-0.3,0.8-0.3,1.2c0,0.5,0.1,1.1,0.5,1.5l0,0l1.3,1.8c0.1,0.1,0.2,0.3,0.2,0.5
			c0.1,0.2,0.1,0.5,0.1,0.6c0,0.1,0,0.2,0,0.2l0,0l-0.3,1.8c0,0.1-0.1,0.4-0.3,0.5c-0.1,0.2-0.3,0.4-0.5,0.4l-2.2,1
			c-0.7,0.3-1.1,1-1.1,1.8c0,0.3,0.1,0.5,0.2,0.8l0.9,2c0,0.1,0.1,0.3,0.1,0.5c0,0.2,0.1,0.4,0.1,0.6c0,0.2,0,0.3,0,0.4l0,0
			l-0.3,1.1c0,0.1-0.1,0.4-0.3,0.6c-0.2,0.2-0.4,0.4-0.5,0.5l-1.6,0.9c-0.1,0-0.3,0.1-0.5,0.1c-0.2,0-0.5-0.1-0.6-0.1l-1.3-0.9
			c-0.4-0.3-0.9-0.4-1.4-0.4c-0.4,0-0.9,0.1-1.3,0.3l-1.3,0.8c-0.3,0.2-0.5,0.4-0.6,0.6c-0.2,0.3-0.2,0.5-0.2,0.8
			c0,0.4,0.2,0.9,0.5,1.2l0,0l0.8,0.8c0.1,0.1,0.2,0.2,0.2,0.4c0.1,0.2,0.1,0.4,0.1,0.6c0,0.1,0,0.1,0,0.2l-0.1,0.7
			c0,0.2-0.2,0.5-0.3,0.7c-0.2,0.3-0.4,0.5-0.5,0.6l-0.7,0.6c-0.5,0.4-1,1-1.5,1.5C9.5,34.5,8.7,31.4,8.7,28z M22.6,43.3l-0.9,3
			c-4-1.4-7.4-4.1-9.7-7.5c0.1-0.1,0.2-0.2,0.2-0.3c0.3-0.4,1-1.1,1.4-1.5l0.7-0.6c0.3-0.3,0.6-0.7,0.8-1c0.2-0.4,0.4-0.8,0.5-1.2
			l0.2-0.7c0-0.2,0-0.3,0-0.5c0-0.4-0.1-0.8-0.2-1.1c-0.1-0.4-0.3-0.7-0.6-1L14.2,30l0,0l0,0l0,0l1.3-0.8l0,0
			c0.1-0.1,0.3-0.1,0.5-0.1c0.2,0,0.4,0.1,0.5,0.1l1.3,0.9c0.5,0.3,1,0.4,1.5,0.4c0.4,0,0.9-0.1,1.3-0.3l1.6-0.9
			c0.4-0.2,0.7-0.5,1-0.9c0.3-0.4,0.5-0.8,0.6-1.2l0.3-1.2c0.1-0.3,0.1-0.5,0.1-0.8c0-0.3,0-0.6-0.1-0.9c-0.1-0.3-0.1-0.6-0.3-0.9
			l-0.9-2l0,0l0-0.1c0-0.1,0.1-0.2,0.2-0.3l2.2-1c0.4-0.2,0.8-0.5,1.1-0.9c0.3-0.4,0.5-0.8,0.6-1.3l0.3-1.8l0,0c0-0.2,0-0.3,0-0.5
			c0-0.4-0.1-0.7-0.2-1.1c-0.1-0.4-0.2-0.7-0.5-1l-1.3-1.8l0,0c-0.1-0.1-0.1-0.3-0.1-0.6c0-0.2,0-0.3,0.1-0.4l1-1.9
			c0.5,0,1-0.1,1.5-0.1c9.6,0,17.6,7.1,19.1,16.3l-0.7-0.4c-0.3-0.2-0.6-0.3-1-0.4C45,24.1,44.7,24,44.3,24c-0.2,0-0.4,0-0.6,0
			l-0.2,0c-1.4-2.6-4.1-4.4-7.3-4.4c-4.6,0-8.3,3.7-8.3,8.3c0,2.8,2.7,6.8,4.9,9.5L31.6,39c-0.1,0.1-0.3,0.2-0.5,0.3
			c-0.2,0.1-0.5,0.1-0.6,0.1l-0.1,0L28,39.2l-0.1,0l0,0v0l0,0l0,0l0.4-1.4c0.1-0.2,0.1-0.4,0.1-0.6c0-0.4-0.1-0.8-0.3-1.1
			c-0.2-0.3-0.4-0.6-0.8-0.9l-1-0.6c-0.3-0.2-0.7-0.3-1.1-0.3c-0.6,0-1.2,0.3-1.6,0.8l-2.9,3.9c-0.3,0.3-0.4,0.8-0.4,1.2
			c0,0.6,0.3,1.2,0.8,1.6l1.1,0.8c0.1,0,0.1,0.1,0.2,0.3c0.1,0.1,0.1,0.3,0.1,0.4C22.6,43.2,22.6,43.3,22.6,43.3z M42.9,28
			c0,3.7-6.6,11.1-6.6,11.1s-6.6-7.4-6.6-11.1c0-3.7,3-6.6,6.6-6.6C40,21.4,42.9,24.3,42.9,28z M28,47.3c-1.6,0-3.2-0.2-4.7-0.6
			l0.9-3c0.1-0.2,0.1-0.4,0.1-0.6c0-0.4-0.1-0.8-0.2-1.1c-0.2-0.3-0.4-0.7-0.7-0.9l-1.1-0.8c-0.1-0.1-0.1-0.1-0.1-0.2
			c0-0.1,0-0.1,0.1-0.2l2.9-3.9c0.1-0.1,0.2-0.1,0.3-0.1c0.1,0,0.1,0,0.2,0l1,0.6c0.1,0,0.1,0.1,0.2,0.2c0.1,0.1,0.1,0.2,0.1,0.3
			c0,0.1,0,0.1,0,0.1l-0.4,1.4c-0.1,0.2-0.1,0.4-0.1,0.5c0,0.4,0.2,0.8,0.5,1.2c0.3,0.3,0.7,0.5,1.1,0.5l2.4,0.2c0.1,0,0.1,0,0.2,0
			c0.4,0,0.9-0.1,1.3-0.3c0.4-0.2,0.8-0.4,1.1-0.7l1.1-1.2c0.5,0.6,0.9,1.1,1.1,1.3l1.2,1.4l1.2-1.4c1.2-1.3,7.1-8.1,7.1-12.2
			c0-0.8-0.1-1.6-0.3-2.3c0,0,0,0,0.1,0c0.2,0,0.5,0,0.7,0.1c0.2,0.1,0.4,0.1,0.5,0.2l1.8,1c0,0.4,0,0.7,0,1.1
			C47.3,38.7,38.7,47.3,28,47.3z"/>
		<path class="st1" d="M14.7,27.7L14.7,27.7L14.7,27.7L14.7,27.7z"/>
		<path class="st1" d="M14.3,10.9c-1.5,0-2.8,1.2-2.8,2.8c0,1.5,1.2,2.8,2.8,2.8c1.5,0,2.8-1.2,2.8-2.8S15.8,10.9,14.3,10.9z
			 M14.3,14.7c-0.6,0-1.1-0.5-1.1-1.1c0-0.6,0.5-1.1,1.1-1.1c0.6,0,1.1,0.5,1.1,1.1C15.4,14.2,14.9,14.7,14.3,14.7z"/>
	</g>
</g>
</svg>
