<svg width="160" height="160" viewBox="0 0 160 160" version="1.1" xmlns="http://www.w3.org/2000/svg" xmlns:xlink="http://www.w3.org/1999/xlink">
<title>error-not-found</title>
<desc>Created using Figma</desc>
<g id="Canvas" transform="translate(1570 -463)">
<clipPath id="clip-0" clip-rule="evenodd">
<path d="M -1570 463L -1410 463L -1410 623L -1570 623L -1570 463Z" fill="#FFFFFF"/>
</clipPath>
<g id="error-not-found" clip-path="url(#clip-0)">
<g id="search">
<g id="Group">
<g id="Group">
<g id="Vector">
<use xlink:href="#path0_fill" transform="translate(-1481.24 519.629)" fill="#66E698"/>
</g>
</g>
</g>
<g id="Group">
<g id="Group">
<g id="Vector">
<use xlink:href="#path1_fill" transform="translate(-1516.72 523.251)" fill="#66E698"/>
</g>
</g>
</g>
<g id="Group">
<g id="Group">
<g id="Vector">
<use xlink:href="#path2_fill" transform="translate(-1525 508)" fill="#FFFFFF"/>
</g>
</g>
</g>
<g id="Group">
<g id="Group">
<g id="Vector">
<use xlink:href="#path3_fill" transform="translate(-1495.02 542.89)" fill="#FFFFFF"/>
</g>
</g>
</g>
<g id="Group">
<g id="Group">
<g id="Vector">
<use xlink:href="#path4_fill" transform="translate(-1487.53 551.613)" fill="#66E698"/>
</g>
</g>
</g>
<g id="Group">
<g id="Group">
<g id="Vector">
<use xlink:href="#path5_fill" transform="translate(-1488.97 546.961)" fill="#66E698"/>
</g>
</g>
</g>
</g>
</g>
</g>
<defs>
<path id="path0_fill" d="M 14.7769 9.77478L 1.7161 0.208109C 1.23308 -0.145645 0.557275 -0.0375182 0.206317 0.449739C -0.144504 0.936996 -0.0370439 1.61885 0.445984 1.97274L 13.5069 11.5393C 13.6987 11.6797 13.9207 11.7474 14.141 11.7474C 14.4751 11.7474 14.8049 11.5914 15.0165 11.2977C 15.3674 10.8104 15.26 10.1285 14.7769 9.77478Z"/>
<path id="path1_fill" d="M 18.0897 0.919757C 17.9962 0.325064 17.4423 -0.0812365 16.8528 0.0137876L 0.911612 2.56565C 0.322079 2.65998 -0.0800106 3.21868 0.0135052 3.81337C 0.0979975 4.35028 0.557373 4.73299 1.07964 4.73299C 1.13597 4.73299 1.19312 4.72858 1.2504 4.71934L 17.1917 2.16748C 17.7814 2.07315 18.1835 1.51459 18.0897 0.919757Z"/>
<path id="path2_fill" d="M 69.554 17.9747L 45.298 0.208066C 45.0661 0.038291 44.7771 -0.0320461 44.4935 0.0136041C 44.2105 0.0589784 43.9568 0.215789 43.7882 0.449694L 33.2101 15.1457L 31.7536 5.88758C 31.7088 5.60196 31.5532 5.34612 31.3212 5.17607C 31.0892 5.00602 30.7996 4.93637 30.5167 4.98161L 0.911612 9.72082C 0.32208 9.81515 -0.0800108 10.3738 0.013505 10.9684L 5.79549 47.7248C 5.84047 48.0104 5.99592 48.2662 6.22779 48.4363C 6.41359 48.5724 6.63604 48.6443 6.86285 48.6443C 6.91918 48.6443 6.97578 48.6397 7.03225 48.6308L 13.835 47.5418L 13.835 59.2406C 13.835 59.8428 14.319 60.331 14.9159 60.331L 44.8917 60.331C 45.4887 60.331 45.9726 59.8428 45.9726 59.2406L 45.9726 56.1661C 46.7141 55.7365 47.4145 55.2405 48.0649 54.6795L 50.7581 57.3964L 49.892 58.2701C 49.47 58.6959 49.47 59.3863 49.892 59.8122L 59.6748 69.6806C 59.8859 69.8935 60.1625 70 60.4392 70C 60.7158 70 60.9925 69.8935 61.2036 69.6806L 64.4646 66.391C 64.6672 66.1866 64.7811 65.9093 64.7811 65.6201C 64.7811 65.3309 64.6672 65.0535 64.4646 64.8491L 54.6817 54.9807C 54.4789 54.7762 54.204 54.6613 53.9173 54.6613C 53.6306 54.6613 53.3558 54.7762 53.1529 54.9807L 52.2868 55.8544L 49.5936 53.1376C 51.7265 50.6258 52.89 47.4641 52.89 44.1215C 52.89 43.7638 52.8752 43.4017 52.8475 43.0402L 69.7936 19.4974C 70.1445 19.0101 70.0371 18.3283 69.554 17.9747ZM 53.9172 57.2938L 62.1714 65.6203L 60.4391 67.3679L 52.1849 59.0413L 53.9172 57.2938ZM 13.8351 22.0243L 13.8351 26.4929L 10.6347 27.0053C 10.0451 27.0996 9.64303 27.6583 9.73655 28.253C 9.82104 28.7899 10.2804 29.1726 10.8027 29.1726C 10.859 29.1726 10.9162 29.1682 10.9734 29.159L 13.8351 28.7009L 13.8351 35.9135L 12.08 36.1943C 11.4905 36.2887 11.0884 36.8474 11.1819 37.4421C 11.2664 37.979 11.7258 38.3617 12.2481 38.3617C 12.3044 38.3617 12.3616 38.3573 12.4188 38.348L 13.8351 38.1214L 13.8351 45.334L 7.76096 46.3063L 2.3179 11.7036L 29.7883 7.30632L 31.414 17.6411L 29.0437 20.9339L 14.9159 20.9339C 14.319 20.9341 13.8351 21.4222 13.8351 22.0243ZM 43.8109 58.1504L 15.9968 58.1504L 15.9968 46.2649L 15.9968 36.8445L 15.9968 27.4241L 15.9968 23.1149L 29.5928 23.1149C 29.5931 23.1149 29.5933 23.1151 29.5936 23.1151C 29.594 23.1151 29.5944 23.1149 29.5947 23.1149L 33.1975 23.1149L 41.8458 23.1149C 41.8461 23.1149 41.8464 23.1151 41.8466 23.1151C 41.8471 23.1151 41.8475 23.1149 41.848 23.1149L 43.8106 23.1149L 43.8106 24.2541L 43.8106 31.0643C 42.3167 30.5162 40.7478 30.2384 39.1269 30.2384C 38.8249 30.2384 38.5242 30.2496 38.2252 30.2692C 38.1446 30.2499 38.0606 30.2384 37.9741 30.2384L 21.8333 30.2384C 21.2364 30.2384 20.7524 30.7266 20.7524 31.3288C 20.7524 31.9309 21.2364 32.4192 21.8333 32.4192L 31.7206 32.4192C 30.5527 33.1723 29.4908 34.1077 28.5772 35.2068C 27.4994 36.5033 26.6801 37.959 26.1335 39.5425L 21.8334 39.5425C 21.2365 39.5425 20.7525 40.0307 20.7525 40.6329C 20.7525 41.235 21.2365 41.7232 21.8334 41.7232L 25.5708 41.7232C 25.4337 42.5139 25.3644 43.3164 25.3644 44.122C 25.3644 45.7584 25.6393 47.341 26.1817 48.8467L 21.8336 48.8467C 21.2367 48.8467 20.7527 49.335 20.7527 49.9371C 20.7527 50.5392 21.2367 51.0275 21.8336 51.0275L 27.187 51.0275C 29.6411 55.3481 34.1557 58.0055 39.1273 58.0055C 40.7493 58.0055 42.3182 57.7281 43.811 57.181L 43.811 58.1504L 43.8109 58.1504ZM 47.3304 52.3967C 47.3303 52.3968 47.3302 52.397 47.33 52.3971C 46.4676 53.2671 45.4816 53.9909 44.3997 54.5487C 42.7584 55.3951 40.9845 55.8243 39.1272 55.8243C 34.7468 55.8243 30.7859 53.3781 28.7904 49.4403C 28.7903 49.4401 28.7901 49.4398 28.79 49.4395C 27.9512 47.7841 27.526 45.9949 27.526 44.1216C 27.526 43.041 27.6735 41.9669 27.9647 40.9295C 28.4122 39.3348 29.1758 37.8806 30.234 36.6077C 32.4468 33.9456 35.6883 32.4189 39.1273 32.4189C 40.9824 32.4189 42.7565 32.8486 44.3997 33.6964C 47.8989 35.5016 50.2394 38.9227 50.6598 42.8482C 50.66 42.8489 50.6601 42.8497 50.6601 42.8506C 50.7054 43.2745 50.7285 43.7021 50.7285 44.1216C 50.7283 47.2477 49.5216 50.1863 47.3304 52.3967ZM 52.3006 40.0885C 51.2941 36.7248 49.0491 33.8579 45.9726 32.0786L 45.9726 26.3932L 51.8482 30.6967C 52.04 30.8371 52.262 30.9048 52.4823 30.9048C 52.8164 30.9048 53.1462 30.7489 53.3578 30.4551C 53.7087 29.9678 53.6012 29.286 53.1182 28.9321L 45.9726 23.6983L 45.9726 22.0246C 45.9726 21.4224 45.4887 20.9342 44.8917 20.9342L 42.1988 20.9342L 40.0573 19.3656C 39.5742 19.0118 38.8982 19.1198 38.5475 19.6072C 38.2534 20.0157 38.2822 20.5602 38.5834 20.9342L 33.1974 20.9342L 31.7149 20.9342L 33.4258 18.5574C 33.426 18.5572 33.4261 18.5571 33.4263 18.5568L 44.9024 2.61332L 67.4093 19.0985L 52.3006 40.0885Z"/>
<path id="path3_fill" d="M 9.15129 2.52532e-07C 4.10526 2.52532e-07 -1.50204e-07 4.1412 -1.50204e-07 9.2314C -1.50204e-07 14.3216 4.10526 18.4628 9.15129 18.4628C 14.1973 18.4628 18.3026 14.3216 18.3026 9.2314C 18.3026 4.14106 14.1973 2.52532e-07 9.15129 2.52532e-07ZM 9.15129 16.2821C 5.29718 16.2821 2.1618 13.1191 2.1618 9.2314C 2.1618 5.34355 5.29732 2.18073 9.15129 2.18073C 13.0054 2.18073 16.1408 5.34369 16.1408 9.2314C 16.1408 13.1191 13.0053 16.2821 9.15129 16.2821Z"/>
<path id="path4_fill" d="M 4.72764 0.319309C 4.30545 -0.106438 3.62117 -0.106438 3.19885 0.319309L 0.316538 3.22685C -0.105513 3.6526 -0.105513 4.34301 0.316538 4.76876C 0.527632 4.98156 0.804352 5.08817 1.08093 5.08817C 1.35752 5.08817 1.63424 4.9817 1.84533 4.76876L 4.72764 1.86121C 5.14983 1.43533 5.14983 0.744917 4.72764 0.319309Z"/>
<path id="path5_fill" d="M 5.01571 0.31931C 4.59352 -0.106436 3.90924 -0.106436 3.48705 0.31931L 0.316537 3.51758C -0.105514 3.94333 -0.105514 4.63373 0.316537 5.05948C 0.527631 5.27228 0.804351 5.37889 1.08093 5.37889C 1.35752 5.37889 1.63424 5.27242 1.84533 5.05948L 5.01571 1.86121C 5.43789 1.43532 5.43789 0.744919 5.01571 0.31931Z"/>
</defs>
</svg>
