<svg width="160" height="160" viewBox="0 0 160 160" version="1.1" xmlns="http://www.w3.org/2000/svg" xmlns:xlink="http://www.w3.org/1999/xlink">
<title>error-code</title>
<desc>Created using Figma</desc>
<g id="Canvas" transform="translate(1570 -463)">
<clipPath id="clip-0" clip-rule="evenodd">
<path d="M -1570 463L -1410 463L -1410 623L -1570 623L -1570 463Z" fill="#FFFFFF"/>
</clipPath>
<g id="error-code" clip-path="url(#clip-0)">
<g id="coding">
<g id="Group">
<g id="Group">
<g id="Vector">
<use xlink:href="#path0_fill" transform="translate(-1499.75 519)" fill="#66E698"/>
</g>
</g>
</g>
<g id="Group">
<g id="Group">
<g id="Vector">
<use xlink:href="#path1_fill" transform="translate(-1529 531.8)" fill="#FFFFFF"/>
</g>
</g>
</g>
<g id="Group">
<g id="Group">
<g id="Vector">
<use xlink:href="#path2_fill" transform="translate(-1477 531.802)" fill="#FFFFFF"/>
</g>
</g>
</g>
</g>
</g>
</g>
<defs>
<path id="path0_fill" d="M 18.4218 0.0940177C 17.5735 -0.203575 16.6441 0.228414 16.345 1.06359L 0.0951443 45.8624C -0.207106 46.6944 0.234842 47.6096 1.07989 47.9071C 1.25859 47.9679 1.44384 48 1.62589 48C 2.29545 48 2.91944 47.5937 3.15664 46.9376L 19.4067 2.13862C 19.7088 1.30674 19.2668 0.39161 18.4218 0.0940177Z"/>
<path id="path1_fill" d="M 25.0153 19.3283L 5.7525 11.2004L 25.0153 3.07259C 25.8409 2.72384 26.2211 1.78307 25.8668 0.970237C 25.5158 0.157406 24.5505 -0.216983 23.7347 0.128608L 0.98475 9.72837C 0.386801 9.98127 0 10.5604 0 11.2004C 0 11.8405 0.386801 12.4196 0.98475 12.6723L 23.7347 22.2721C 23.9426 22.3585 24.1605 22.4001 24.375 22.4001C 25.0056 22.4001 25.6035 22.0384 25.87 21.4305C 26.2243 20.6178 25.8407 19.677 25.0153 19.3283Z"/>
<path id="path2_fill" d="M 25.014 9.72704L 2.26403 0.127274C 1.44823 -0.215167 0.482976 0.156075 0.131976 0.968905C -0.222223 1.78173 0.161225 2.72251 0.986776 3.07125L 20.2496 11.1991L 0.986776 19.327C 0.161225 19.6757 -0.222223 20.6165 0.131976 21.4293C 0.395226 22.0372 0.993174 22.3989 1.62373 22.3989C 1.83823 22.3989 2.05592 22.3573 2.26403 22.2709L 25.014 12.6712C 25.6119 12.4184 25.9987 11.8391 25.9987 11.1993C 25.9987 10.5589 25.6119 9.97978 25.014 9.72704Z"/>
</defs>
</svg>
