<svg width="160" height="160" viewBox="0 0 160 160" version="1.1" xmlns="http://www.w3.org/2000/svg" xmlns:xlink="http://www.w3.org/1999/xlink">
<title>error-access-denied</title>
<desc>Created using Figma</desc>
<g id="Canvas" transform="translate(1570 -463)">
<clipPath id="clip-0" clip-rule="evenodd">
<path d="M -1570 463L -1410 463L -1410 623L -1570 623L -1570 463Z" fill="#FFFFFF"/>
</clipPath>
<g id="error-access-denied" clip-path="url(#clip-0)">
<g id="padlock">
<g id="Group">
<g id="Group">
<g id="Vector">
<use xlink:href="#path0_fill" transform="translate(-1497.59 546.556)" fill="#66E698"/>
</g>
</g>
<g id="Group">
<g id="Vector">
<use xlink:href="#path1_fill" transform="translate(-1514 508)" fill="#FFFFFF"/>
</g>
</g>
<g id="Group">
<g id="Vector">
<use xlink:href="#path2_fill" transform="translate(-1491.01 535.692)" fill="#FFFFFF"/>
</g>
</g>
<g id="Group">
<g id="Vector">
<use xlink:href="#path3_fill" transform="translate(-1503.08 540.508)" fill="#FFFFFF"/>
</g>
</g>
<g id="Group">
<g id="Vector">
<use xlink:href="#path4_fill" transform="translate(-1508.2 552.412)" fill="#FFFFFF"/>
</g>
</g>
<g id="Group">
<g id="Vector">
<use xlink:href="#path5_fill" transform="translate(-1503.36 561.763)" fill="#FFFFFF"/>
</g>
</g>
<g id="Group">
<g id="Vector">
<use xlink:href="#path6_fill" transform="translate(-1491.41 565.752)" fill="#FFFFFF"/>
</g>
</g>
<g id="Group">
<g id="Vector">
<use xlink:href="#path7_fill" transform="translate(-1482.01 562.042)" fill="#FFFFFF"/>
</g>
</g>
<g id="Group">
<g id="Vector">
<use xlink:href="#path8_fill" transform="translate(-1478.01 552.805)" fill="#FFFFFF"/>
</g>
</g>
<g id="Group">
<g id="Vector">
<use xlink:href="#path9_fill" transform="translate(-1481.73 540.787)" fill="#FFFFFF"/>
</g>
</g>
</g>
</g>
</g>
</g>
<defs>
<path id="path0_fill" d="M 7.58731 1.09182e-06C 3.40356 1.09182e-06 1.0967e-06 3.3884 1.0967e-06 7.55119C 1.0967e-06 11.7163 3.40356 15.1047 7.58731 15.1047C 11.7687 15.1047 15.1723 11.7163 15.1723 7.55119C 15.1723 3.3884 11.7687 1.09182e-06 7.58731 1.09182e-06L 7.58731 1.09182e-06ZM 7.58731 12.6996C 4.73554 12.6996 2.41588 10.3891 2.41588 7.55119C 2.41588 4.71214 4.7367 2.40512 7.58731 2.40512C 10.4379 2.40512 12.7564 4.71329 12.7564 7.55119C 12.7576 10.3891 10.4391 12.6996 7.58731 12.6996L 7.58731 12.6996Z"/>
<path id="path1_fill" d="M 41.8699 30.1413L 41.8699 16.3246C 41.8699 7.32268 34.5133 0 25.4746 0L 22.5266 0C 13.4844 0 6.12897 7.32268 6.12897 16.3246L 6.12897 30.1413C 6.12897 30.1632 6.14056 30.1805 6.14172 30.2013C 2.33705 34.431 -2.05925e-15 39.9949 -2.05925e-15 46.1058C -2.05925e-15 59.282 10.766 70 24.0012 70C 37.234 70 48 59.282 48 46.1058C 48 39.9949 45.6641 34.4299 41.8583 30.2002C 41.8583 30.1805 41.8699 30.1632 41.8699 30.1413L 41.8699 30.1413ZM 22.5266 2.40396L 25.4746 2.40396C 33.1836 2.40396 39.4552 8.64873 39.4552 16.3246L 39.4552 27.8574C 35.276 24.3443 29.8867 22.2162 24.0012 22.2162C 18.1145 22.2162 12.724 24.3443 8.54485 27.8585L 8.54485 16.3257C 8.54369 8.64988 14.8164 2.40396 22.5266 2.40396L 22.5266 2.40396ZM 24 67.596C 12.098 67.596 2.41356 57.9559 2.41356 46.1058C 2.41356 34.2591 12.0968 24.619 24 24.619C 35.8997 24.619 45.583 34.2591 45.583 46.1058C 45.5841 57.9559 35.9009 67.596 24 67.596L 24 67.596Z"/>
<path id="path2_fill" d="M 1.20794 6.17783C 1.87567 6.17783 2.41588 5.64002 2.41588 4.97527L 2.41588 1.20256C 2.41588 0.537805 1.87567 9.68548e-07 1.20794 9.68548e-07C 0.540212 9.68548e-07 8.49062e-07 0.537805 8.49062e-07 1.20256L 8.49062e-07 4.97527C 0.0011601 5.64002 0.540212 6.17783 1.20794 6.17783Z"/>
<path id="path3_fill" d="M 2.06144 0.352285C 1.58963 -0.117429 0.825679 -0.117429 0.353863 0.352285C -0.117953 0.821998 -0.117953 1.58254 0.353863 2.05225L 3.03289 4.71935C 3.26822 4.95363 3.57774 5.07135 3.8861 5.07135C 4.19562 5.07135 4.50399 4.95363 4.73931 4.71935C 5.21113 4.24964 5.21113 3.48909 4.73931 3.01938L 2.06144 0.352285L 2.06144 0.352285Z"/>
<path id="path4_fill" d="M 6.20548 1.20256C 6.20548 0.537803 5.66527 -1.79622e-06 4.99754 -1.79622e-06L 1.20794 -1.79622e-06C 0.540211 -1.79622e-06 -3.36087e-07 0.537803 -3.36087e-07 1.20256C -3.36087e-07 1.86731 0.540211 2.40512 1.20794 2.40512L 4.99754 2.40512C 5.66527 2.40397 6.20548 1.86616 6.20548 1.20256Z"/>
<path id="path5_fill" d="M 3.03289 0.352284L 0.353862 3.01938C -0.117954 3.48909 -0.117954 4.24964 0.353862 4.71935C 0.58919 4.95363 0.898711 5.07135 1.20707 5.07135C 1.51659 5.07135 1.82495 4.95363 2.06028 4.71935L 4.73931 2.05225C 5.21113 1.58254 5.21113 0.821998 4.73931 0.352284C 4.26866 -0.117429 3.50471 -0.117429 3.03289 0.352284Z"/>
<path id="path6_fill" d="M 1.20794 4.22639e-07C 0.540212 4.22639e-07 1.00826e-06 0.537805 1.00826e-06 1.20256L 1.00826e-06 4.97296C 1.00826e-06 5.63771 0.540212 6.17552 1.20794 6.17552C 1.87567 6.17552 2.41588 5.63771 2.41588 4.97296L 2.41588 1.20256C 2.41588 0.537805 1.87567 4.22639e-07 1.20794 4.22639e-07Z"/>
<path id="path7_fill" d="M 2.06144 0.352285C 1.58963 -0.117428 0.825675 -0.117428 0.35386 0.352285C -0.117956 0.821999 -0.117956 1.58254 0.35386 2.05225L 3.03058 4.71935C 3.2659 4.95363 3.57542 5.07135 3.88379 5.07135C 4.19331 5.07135 4.50167 4.95363 4.737 4.71935C 5.20881 4.24964 5.20881 3.48909 4.737 3.01938L 2.06144 0.352285L 2.06144 0.352285Z"/>
<path id="path8_fill" d="M -8.84439e-07 1.20256C -8.84439e-07 1.86731 0.540211 2.40512 1.20794 2.40512L 4.99522 2.40512C 5.66295 2.40512 6.20316 1.86731 6.20316 1.20256C 6.20316 0.537807 5.66295 2.14842e-06 4.99522 2.14842e-06L 1.20794 2.14842e-06C 0.540211 0.00115624 -8.84439e-07 0.538961 -8.84439e-07 1.20256Z"/>
<path id="path9_fill" d="M 1.20823 5.07135C 1.51775 5.07135 1.82611 4.95363 2.06144 4.71935L 4.73815 2.05226C 5.20997 1.58254 5.20997 0.821999 4.73815 0.352285C 4.26634 -0.117428 3.50239 -0.117428 3.03058 0.352285L 0.353861 3.01938C -0.117955 3.48909 -0.117955 4.24964 0.353861 4.71935C 0.590349 4.95363 0.899868 5.07135 1.20823 5.07135Z"/>
</defs>
</svg>
