<?xml version="1.0" encoding="utf-8"?>
<!-- Generator: Adobe Illustrator 22.1.0, SVG Export Plug-In . SVG Version: 6.00 Build 0)  -->
<svg version="1.1" id="Слой_1" xmlns="http://www.w3.org/2000/svg" xmlns:xlink="http://www.w3.org/1999/xlink" x="0px" y="0px"
	 viewBox="0 0 56 56" style="enable-background:new 0 0 56 56;" xml:space="preserve">
<style type="text/css">
	.st0{fill:#FFFFFF;}
</style>
<path class="st0" d="M44.9,38.7c0.5,0,0.8-0.4,0.8-0.8c0-0.5-0.4-0.8-0.8-0.8c-0.5,0-0.8,0.4-0.8,0.8C44.1,38.3,44.4,38.7,44.9,38.7
	z"/>
<path class="st0" d="M9.5,49h37.1c1.4,0,2.5-1.1,2.5-2.5V16c0-0.5-0.4-0.8-0.8-0.8h-5.7c0-4.5-3.7-8.2-8.2-8.2
	c-4.5,0-8.2,3.7-8.2,8.2h-6.2c-0.5,0-0.8,0.4-0.8,0.8v9.5H7.8c-0.5,0-0.8,0.4-0.8,0.8v20.2C7,47.9,8.1,49,9.5,49z M8.6,46.5v-3h19v3
	c0,0.5-0.4,0.8-0.8,0.8H9.5C9,47.4,8.6,47,8.6,46.5z M46.5,47.4H29.2c0.1-0.3,0.1-0.5,0.1-0.8v-3h18v3C47.4,47,47,47.4,46.5,47.4z
	 M34.2,8.6c3.6,0,6.6,2.9,6.6,6.6H27.7C27.7,11.6,30.6,8.6,34.2,8.6z M20.6,16.8H26v3.8h-0.8c-0.5,0-0.8,0.4-0.8,0.8
	s0.4,0.8,0.8,0.8h3.3c0.5,0,0.8-0.4,0.8-0.8s-0.4-0.8-0.8-0.8h-0.8v-3.8h13.1v3.8H40c-0.5,0-0.8,0.4-0.8,0.8s0.4,0.8,0.8,0.8h3.3
	c0.5,0,0.8-0.4,0.8-0.8s-0.4-0.8-0.8-0.8h-0.8v-3.8h4.9v25.1h-18V26.4c0-0.5-0.4-0.8-0.8-0.8h-7.9V16.8z M27.7,27.2v14.8h-19V27.2
	H27.7z"/>
<path class="st0" d="M13.2,32.1v1.6c0,2.7,2.2,4.9,4.9,4.9c2.7,0,4.9-2.2,4.9-4.9v-1.6c0.5,0,0.8-0.4,0.8-0.8c0-0.5-0.4-0.8-0.8-0.8
	h-1.6c-0.5,0-0.8,0.4-0.8,0.8c0,0.5,0.4,0.8,0.8,0.8v1.6c0,1.8-1.5,3.3-3.3,3.3c-1.8,0-3.3-1.5-3.3-3.3v-1.6c0.5,0,0.8-0.4,0.8-0.8
	c0-0.5-0.4-0.8-0.8-0.8h-1.6c-0.5,0-0.8,0.4-0.8,0.8C12.4,31.7,12.8,32.1,13.2,32.1z"/>
<path class="st0" d="M44.9,35.4c0.5,0,0.8-0.4,0.8-0.8V28c0-0.5-0.4-0.8-0.8-0.8c-0.5,0-0.8,0.4-0.8,0.8v6.6
	C44.1,35,44.4,35.4,44.9,35.4z"/>
</svg>
