<?xml version="1.0" encoding="utf-8"?>
<!-- Generator: Adobe Illustrator 22.1.0, SVG Export Plug-In . SVG Version: 6.00 Build 0)  -->
<svg version="1.1" id="Слой_1" xmlns="http://www.w3.org/2000/svg" xmlns:xlink="http://www.w3.org/1999/xlink" x="0px" y="0px"
	 viewBox="0 0 56 56" style="enable-background:new 0 0 56 56;" xml:space="preserve">
<style type="text/css">
	.st0{fill:#FFFFFF;}
</style>
<path class="st0" d="M24.6,44.6c-0.2-0.2-0.4-0.2-0.6-0.2s-0.4,0.1-0.6,0.2c-0.2,0.2-0.2,0.4-0.2,0.6c0,0.2,0.1,0.4,0.2,0.6
	c0.2,0.2,0.4,0.2,0.6,0.2s0.4-0.1,0.6-0.2c0.2-0.2,0.2-0.4,0.2-0.6C24.9,44.9,24.8,44.7,24.6,44.6z"/>
<path class="st0" d="M35.7,9.3h-5.1c-0.5,0-0.8,0.4-0.8,0.8c0,0.5,0.4,0.8,0.8,0.8h5.1c0.5,0,0.8-0.4,0.8-0.8
	C36.5,9.7,36.1,9.3,35.7,9.3z"/>
<path class="st0" d="M44.2,25.5c0.5,0,0.8-0.4,0.8-0.8V10c0-1.6-1.3-3-3-3h-18c-1.6,0-3,1.3-3,3v5.7c-2.4,1.9-4.3,4.4-5.7,7.1
	c-1.4,2.9-2.1,6.1-2.1,9.2v8.6h-0.7c-0.9,0-1.6,0.7-1.6,1.6v6c0,0.5,0.4,0.8,0.8,0.8s0.8-0.4,0.8-0.8v-6h14.6v6
	c0,0.5,0.4,0.8,0.8,0.8c0.5,0,0.8-0.4,0.8-0.8v-3.6h13.3c1.6,0,3-1.3,3-3V31.5c0-0.5-0.4-0.8-0.8-0.8c-0.5,0-0.8,0.4-0.8,0.8v6.1
	H31.1l2.6-3.7c0.6-0.9,0.7-2,0.2-3c-0.5-1-1.5-1.5-2.5-1.5c-0.6,0-1.2,0.2-1.7,0.6l-5.2,3.9C24.3,34,24.1,34,23.8,34
	c-0.6,0-1.1-0.5-1.1-1.1v-1V13.2h20.7v11.5C43.4,25.2,43.8,25.5,44.2,25.5z M43.4,39.2v2.4c0,0.7-0.6,1.3-1.3,1.3H28.8v-0.7
	c0-0.5-0.3-1-0.7-1.3c0.7-0.4,1.3-1,1.8-1.6c0,0,0,0,0,0H43.4z M23.8,35.7c0.6,0,1.2-0.2,1.6-0.5l5.2-3.9c0.2-0.2,0.5-0.2,0.7-0.2
	c0.5,0,0.9,0.2,1.1,0.7c0.2,0.4,0.2,0.9-0.1,1.3l-3.5,4.9c-1.2,1.7-3.2,2.7-5.2,2.7H15V32c0-5.4,2.2-10.5,6.2-14.2v14.1v1
	C21.1,34.5,22.3,35.7,23.8,35.7z M22.8,11.6V10c0-0.7,0.6-1.3,1.3-1.3h18c0.7,0,1.3,0.6,1.3,1.3v1.6H22.8z"/>
<path class="st0" d="M33.7,40.4c-0.2-0.2-0.4-0.2-0.6-0.2c-0.2,0-0.4,0.1-0.6,0.2c-0.2,0.2-0.2,0.4-0.2,0.6c0,0.2,0.1,0.4,0.2,0.6
	c0.2,0.2,0.4,0.2,0.6,0.2c0.2,0,0.4-0.1,0.6-0.2c0.2-0.2,0.2-0.4,0.2-0.6C33.9,40.8,33.8,40.6,33.7,40.4z"/>
<path class="st0" d="M39.3,20c-0.3-0.4-0.9-0.7-1.4-0.7h-2.2l-0.7-1.2c-0.2-0.4-0.7-0.5-1.1-0.3c-0.4,0.2-0.5,0.7-0.3,1.1l0.2,0.4
	h-1.3l0.2-0.4c0.2-0.4,0.1-0.9-0.3-1.1c-0.4-0.2-0.9-0.1-1.1,0.3l-0.7,1.2h-2.2c-0.5,0-1.1,0.2-1.4,0.7c-0.3,0.4-0.5,1-0.4,1.5
	l1.1,5.2c0.2,0.8,0.9,1.4,1.8,1.4h7.4c0.9,0,1.6-0.6,1.8-1.4l1.1-5.2C39.7,21,39.6,20.4,39.3,20z M38,21.2L37,26.4
	c0,0.1-0.1,0.1-0.2,0.1h-7.4c-0.1,0-0.1-0.1-0.2-0.1l-1.1-5.2c0-0.1,0-0.1,0-0.1c0,0,0.1-0.1,0.1-0.1h1.3l-0.5,0.8
	c-0.2,0.4-0.1,0.9,0.3,1.1c0.1,0.1,0.3,0.1,0.4,0.1c0.3,0,0.6-0.1,0.7-0.4l0.9-1.6h3.2v0l0.9,1.6c0.2,0.3,0.4,0.4,0.7,0.4
	c0.1,0,0.3,0,0.4-0.1c0.4-0.2,0.5-0.7,0.3-1.1L36.6,21h1.3c0.1,0,0.1,0,0.1,0.1C38,21.1,38,21.1,38,21.2z"/>
<path class="st0" d="M44.8,27.4c-0.2-0.2-0.4-0.2-0.6-0.2c-0.2,0-0.4,0.1-0.6,0.2c-0.2,0.2-0.2,0.4-0.2,0.6s0.1,0.4,0.2,0.6
	c0.2,0.2,0.4,0.2,0.6,0.2c0.2,0,0.4-0.1,0.6-0.2c0.2-0.2,0.2-0.4,0.2-0.6S45,27.6,44.8,27.4z"/>
</svg>
