<?xml version="1.0" encoding="utf-8"?>
<!-- Generator: Adobe Illustrator 22.1.0, SVG Export Plug-In . SVG Version: 6.00 Build 0)  -->
<svg version="1.1" id="Слой_1" xmlns="http://www.w3.org/2000/svg" xmlns:xlink="http://www.w3.org/1999/xlink" x="0px" y="0px"
	 viewBox="0 0 56 56" style="enable-background:new 0 0 56 56;" xml:space="preserve">
<style type="text/css">
	.st0{clip-path:url(#SVGID_2_);}
	.st1{fill:#FFFFFF;}
</style>
<g>
	<defs>
		<rect id="SVGID_1_" x="7.5" y="7" width="41" height="42"/>
	</defs>
	<clipPath id="SVGID_2_">
		<use xlink:href="#SVGID_1_"  style="overflow:visible;"/>
	</clipPath>
	<g class="st0">
		<path class="st1" d="M35.4,19.7c-0.4,0-0.8,0.4-0.8,0.8c0,0.5,0.4,0.8,0.8,0.8c0.4,0,0.8-0.4,0.8-0.8
			C36.2,20.1,35.8,19.7,35.4,19.7z"/>
		<path class="st1" d="M20.8,34.6c-0.4,0-0.8,0.4-0.8,0.8c0,0.5,0.4,0.8,0.8,0.8c0.4,0,0.8-0.4,0.8-0.8C21.6,35,21.2,34.6,20.8,34.6
			z"/>
		<path class="st1" d="M47.6,12c-0.3-0.1-0.6,0-0.8,0.2l-3.3,3.4H42l-1.8-1.9v-1.7l3.3-3.4c0.2-0.2,0.3-0.5,0.2-0.8
			c-0.1-0.3-0.3-0.5-0.5-0.6C42.3,7.1,41.5,7,40.6,7c-2.6,0-5,1.2-6.5,3.4c-1.4,2-1.9,4.5-1.2,6.9l-5.9,6l-9.8-10.1v-2
			c0-0.3-0.1-0.6-0.4-0.7L11,7.1c-0.3-0.2-0.7-0.1-1,0.1L7.8,9.6c-0.3,0.3-0.3,0.7-0.1,1l3.4,5.8c0.1,0.2,0.4,0.4,0.7,0.4l1.9,0
			l9.8,10.1l-5.9,6c-2.3-0.6-4.8-0.2-6.8,1.3c-2.1,1.6-3.3,4-3.3,6.7c0,0.9,0.1,1.8,0.4,2.6C8,43.7,8.3,43.9,8.5,44
			c0.3,0.1,0.6,0,0.8-0.2l3.3-3.4h1.6l1.8,1.9v1.6l-3.4,3.4c-0.2,0.2-0.3,0.5-0.2,0.8c0.1,0.3,0.3,0.5,0.5,0.6
			c0.8,0.3,1.7,0.4,2.6,0.4c2.6,0,5-1.2,6.5-3.4c1.4-2,1.9-4.5,1.2-6.9l4.7-4.8l1.1,1.2l-0.5,0.5c-0.3,0.3-0.3,0.8,0,1.2
			c0.3,0.3,0.8,0.3,1.1,0l0.5-0.5l10.2,11.3c0,0,0,0,0,0c1.9,1.9,4.9,1.9,6.8,0c1.9-1.9,1.9-5,0-7c0,0,0,0,0,0L36.1,30.2l0.4-0.5
			c0.3-0.3,0.3-0.8,0-1.2c-0.3-0.3-0.8-0.3-1.1,0l-0.5,0.5L33.8,28l4.8-4.9c0.7,0.2,1.4,0.3,2.1,0.3c4.4,0,8-3.7,8-8.2
			c0-0.9-0.1-1.8-0.4-2.6C48.1,12.3,47.9,12.1,47.6,12z M14.6,15.4c-0.2-0.2-0.4-0.2-0.6-0.2l-1.8,0l-2.8-4.9l1.4-1.4l4.7,2.9v1.9
			c0,0.2,0.1,0.4,0.2,0.6l10.1,10.3l-1.1,1.2L14.6,15.4z M35,31.4l11.1,10.4c1.2,1.3,1.2,3.4,0,4.6c-1.2,1.3-3.3,1.3-4.5,0
			L31.4,35.1L35,31.4z M33.8,30.3l-3.5,3.6l-1.1-1.2l3.5-3.5L33.8,30.3z M40.6,21.8c-0.7,0-1.4-0.1-2.1-0.3c-0.3-0.1-0.6,0-0.8,0.2
			c-4,4.1-12.7,13-15.9,16.2c-0.2,0.2-0.3,0.5-0.2,0.8c0.7,2,0.3,4.2-0.9,5.9c-1.2,1.7-3.1,2.7-5.2,2.7c-0.2,0-0.5,0-0.7,0l2.5-2.6
			c0.2-0.2,0.2-0.4,0.2-0.6v-2.3c0-0.2-0.1-0.4-0.2-0.6l-2.3-2.3c-0.2-0.2-0.4-0.2-0.6-0.2h-2.3c-0.2,0-0.4,0.1-0.6,0.2l-2.5,2.6
			c0-0.2,0-0.5,0-0.7c0-2.1,1-4.1,2.7-5.3c1.7-1.3,3.8-1.6,5.8-0.9c0.3,0.1,0.6,0,0.8-0.2c0,0,15.9-16.2,15.9-16.2
			c0.2-0.2,0.3-0.5,0.2-0.8c-0.7-2-0.3-4.2,0.9-5.9c1.2-1.7,3.1-2.7,5.2-2.7c0.2,0,0.5,0,0.7,0l-2.5,2.6c-0.1,0.2-0.2,0.4-0.2,0.6
			v2.3c0,0.2,0.1,0.4,0.2,0.6l2.2,2.3c0.2,0.2,0.4,0.3,0.6,0.3h2.3c0.2,0,0.4-0.1,0.6-0.2l2.5-2.6c0,0.2,0,0.5,0,0.7
			C47,18.8,44.1,21.8,40.6,21.8z"/>
		<path class="st1" d="M32.5,22.3l-10,10.3c-0.3,0.3-0.3,0.8,0,1.2c0.3,0.3,0.8,0.3,1.1,0l10-10.3c0.3-0.3,0.3-0.8,0-1.2
			C33.4,22,32.8,22,32.5,22.3z"/>
		<path class="st1" d="M42.7,44.1c0.3,0.3,0.8,0.3,1.1,0c0.3-0.3,0.3-0.8,0-1.2l-7.2-7.4c-0.3-0.3-0.8-0.3-1.1,0
			c-0.3,0.3-0.3,0.8,0,1.2L42.7,44.1z"/>
	</g>
</g>
</svg>
