<?xml version="1.0" encoding="utf-8"?>
<!-- Generator: Adobe Illustrator 22.1.0, SVG Export Plug-In . SVG Version: 6.00 Build 0)  -->
<svg version="1.1" id="Слой_1" xmlns="http://www.w3.org/2000/svg" xmlns:xlink="http://www.w3.org/1999/xlink" x="0px" y="0px"
	 viewBox="0 0 56 56" style="enable-background:new 0 0 56 56;" xml:space="preserve">
<style type="text/css">
	.st0{clip-path:url(#SVGID_2_);}
	.st1{clip-path:url(#SVGID_4_);}
	.st2{fill:#FFFFFF;}
</style>
<g>
	<defs>
		<rect id="SVGID_1_" width="56" height="56"/>
	</defs>
	<clipPath id="SVGID_2_">
		<use xlink:href="#SVGID_1_"  style="overflow:visible;"/>
	</clipPath>
	<g class="st0">
		<g>
			<defs>
				<rect id="SVGID_3_" x="4" y="4" transform="matrix(0.7071 -0.7071 0.7071 0.7071 -11.598 28)" width="48" height="48"/>
			</defs>
			<clipPath id="SVGID_4_">
				<use xlink:href="#SVGID_3_"  style="overflow:visible;"/>
			</clipPath>
			<g class="st1">
				<path class="st2" d="M35.4,8.1C35,8.5,34.7,9,34.6,9.5c-1.3-0.9-3.1-0.8-4.2,0.3c-0.4,0.4-0.7,0.9-0.8,1.4
					c-1.3-0.8-2.9-0.7-4,0.4c-1.3,1.3-1.3,3.3,0,4.6l4.3,4.3l-9.4,9.4l-4.3-4.3c-1.3-1.3-3.3-1.3-4.6,0c-1.1,1.1-1.2,2.8-0.4,4
					c-0.5,0.1-1,0.4-1.4,0.8c-1.1,1.1-1.2,2.9-0.3,4.2C9,34.7,8.5,35,8.1,35.4c-1.3,1.3-1.3,3.3,0,4.6l7.1,7.1
					c1.3,1.3,3.3,1.3,4.6,0c0.4-0.4,0.7-0.8,0.8-1.3c1.3,0.9,3.1,0.8,4.2-0.3c0.4-0.4,0.7-0.9,0.8-1.4c1.2,0.8,2.9,0.7,4-0.4
					c1.3-1.3,1.3-3.3,0-4.6l-4.3-4.3l2.2-2.2c0.3-0.3,0.3-0.9,0-1.2c-0.3-0.3-0.9-0.3-1.2,0l-2.2,2.2l-2.4-2.4l9.4-9.4l2.4,2.4
					l-2.2,2.2c-0.3,0.3-0.3,0.9,0,1.2c0.3,0.3,0.9,0.3,1.2,0l2.2-2.2l4.3,4.3c1.3,1.3,3.3,1.3,4.6,0c1.1-1.1,1.2-2.8,0.4-4
					c0.5-0.1,1-0.4,1.4-0.8c1.1-1.1,1.2-2.9,0.3-4.2c0.5-0.1,0.9-0.4,1.3-0.8c1.3-1.3,1.3-3.3,0-4.6l-7.1-7.1
					C38.7,6.9,36.6,6.9,35.4,8.1z M18.5,45.8c-0.6,0.6-1.5,0.6-2.1,0l-7.1-7.1c-0.6-0.6-0.6-1.5,0-2.1c0.6-0.6,1.5-0.6,2.1,0
					l7.1,7.1C19.1,44.3,19.1,45.2,18.5,45.8z M23.5,44.1c-0.6,0.6-1.5,0.6-2.1,0L11,33.7c-0.6-0.6-0.6-1.5,0-2.1
					c0.6-0.6,1.5-0.6,2.1,0L23.5,42C24.1,42.6,24.1,43.5,23.5,44.1z M28.3,40.2c0.6,0.6,0.6,1.5,0,2.1c-0.6,0.6-1.5,0.6-2.1,0
					L12.8,28.9c-0.6-0.6-0.6-1.5,0-2.1c0.6-0.6,1.5-0.6,2.1,0L28.3,40.2z M42.3,26.3c0.6,0.6,0.6,1.5,0,2.1c-0.6,0.6-1.5,0.6-2.1,0
					L26.8,14.9c-0.6-0.6-0.6-1.5,0-2.1c0.6-0.6,1.5-0.6,2.1,0L42.3,26.3z M44.1,21.4c0.6,0.6,0.6,1.5,0,2.1l0,0
					c-0.6,0.6-1.5,0.6-2.1,0L31.6,13.1c-0.6-0.6-0.6-1.5,0-2.1c0.6-0.6,1.5-0.6,2.1,0L44.1,21.4z M45.7,16.4c0.6,0.6,0.6,1.5,0,2.1
					c-0.6,0.6-1.5,0.6-2.1,0l-7.1-7.1c-0.6-0.6-0.6-1.5,0-2.1c0.6-0.6,1.5-0.6,2.1,0L45.7,16.4z"/>
				<path class="st2" d="M28.8,28.8c-0.3,0.3-0.3,0.9,0,1.2c0.3,0.3,0.9,0.3,1.2,0c0.3-0.3,0.3-0.9,0-1.2
					C29.7,28.5,29.1,28.5,28.8,28.8z"/>
			</g>
		</g>
	</g>
</g>
</svg>
