<?xml version="1.0" encoding="utf-8"?>
<!-- Generator: Adobe Illustrator 22.1.0, SVG Export Plug-In . SVG Version: 6.00 Build 0)  -->
<svg version="1.1" id="Слой_1" xmlns="http://www.w3.org/2000/svg" xmlns:xlink="http://www.w3.org/1999/xlink" x="0px" y="0px"
	 viewBox="0 0 56 56" style="enable-background:new 0 0 56 56;" xml:space="preserve">
<style type="text/css">
	.st0{clip-path:url(#SVGID_2_);}
	.st1{fill:#FFFFFF;}
</style>
<g>
	<defs>
		<rect id="SVGID_1_" x="4" y="4" width="48" height="48"/>
	</defs>
	<clipPath id="SVGID_2_">
		<use xlink:href="#SVGID_1_"  style="overflow:visible;"/>
	</clipPath>
	<g class="st0">
		<path class="st1" d="M28,15.1c-7.8,0-14.2,6.4-14.2,14.2c0,7.8,6.4,14.2,14.2,14.2c7.8,0,14.2-6.4,14.2-14.2
			C42.2,21.5,35.9,15.1,28,15.1z M28,41.7c-6.8,0-12.3-5.5-12.3-12.3C15.7,22.5,21.2,17,28,17c6.8,0,12.3,5.5,12.3,12.3
			S34.8,41.7,28,41.7z"/>
		<path class="st1" d="M36.4,24.8c-0.2-0.5-0.8-0.6-1.3-0.4c0,0,0,0,0,0c-0.4,0.3-0.6,0.8-0.3,1.2c0.6,1.1,0.9,2.4,0.9,3.7
			c0,4.2-3.5,7.7-7.7,7.7s-7.7-3.5-7.7-7.7c0-4.2,3.5-7.7,7.7-7.7c0.4,0,0.8,0,1.2,0.1c0.5,0.1,1-0.2,1.1-0.7c0,0,0,0,0-0.1
			c0.1-0.5-0.3-1-0.8-1.1c-0.5-0.1-1-0.1-1.5-0.1c-5.3,0-9.6,4.3-9.6,9.6s4.3,9.6,9.6,9.6c5.3,0,9.6-4.3,9.6-9.6
			C37.6,27.7,37.2,26.2,36.4,24.8z"/>
		<path class="st1" d="M34,21.5c0,0-0.1-0.1-0.1-0.1c-0.1,0-0.1-0.1-0.2-0.1c-0.1,0-0.1,0-0.2-0.1c-0.1,0-0.2,0-0.4,0
			c-0.1,0-0.1,0-0.2,0.1c-0.1,0-0.1,0.1-0.2,0.1c-0.1,0-0.1,0.1-0.1,0.1c0,0-0.1,0.1-0.1,0.1c0,0.1-0.1,0.1-0.1,0.2c0,0,0,0.1,0,0.1
			c0,0,0,0,0,0.1c0,0.1,0,0.1,0,0.2c0,0.1,0,0.1,0,0.2c0,0.1,0,0.1,0.1,0.2c0,0.1,0.1,0.1,0.1,0.2c0,0.1,0.1,0.1,0.1,0.1
			c0,0,0.1,0.1,0.1,0.1c0.1,0,0.1,0.1,0.2,0.1c0.1,0,0.1,0,0.2,0.1c0.1,0,0.1,0,0.2,0c0.1,0,0.1,0,0.2,0c0.1,0,0.1,0,0.2-0.1
			c0,0,0.1,0,0.1-0.1c0,0,0,0,0,0c0.1,0,0.1-0.1,0.1-0.1c0,0,0.1-0.1,0.1-0.1c0-0.1,0.1-0.1,0.1-0.2c0-0.1,0-0.1,0.1-0.2
			c0-0.1,0-0.1,0-0.2C34.3,21.9,34.2,21.7,34,21.5z"/>
		<path class="st1" d="M52,42.8l-3-24.8c-0.2-1.7-0.8-3.4-1.6-4.9c-0.5-0.9-1.2-1.8-1.9-2.6l-0.1-0.1C44.7,9.8,43.8,9.6,43,10
			c-0.8,0.4-1.3,1.2-1.2,2.1l3.9,31.4c0,0.1,0,0.2,0.1,0.3c0.3,1.5,1.6,2.5,3.1,2.5c0.1,0,0.3,0,0.4,0c1-0.1,1.9-0.7,2.4-1.6
			c0.1-0.1,0.1-0.2,0.1-0.3c0-0.1,0.1-0.2,0.1-0.3C52,43.7,52,43.3,52,42.8z M43.7,11.9c0,0,0-0.1,0.1-0.2c0,0,0.1,0,0.1,0
			c0.1,0,0.1,0,0.1,0.1l0.1,0.1c0.6,0.7,1.2,1.4,1.6,2.2c0.7,1.3,1.2,2.7,1.4,4.2l1.6,13.2l-2.6,0.3L43.7,11.9z M50,43.6
			c-0.2,0.4-0.6,0.8-1.1,0.8c-0.7,0.1-1.4-0.4-1.5-1.1l-1.2-9.7l2.6-0.3l1.2,9.7C50.1,43.2,50.1,43.4,50,43.6z"/>
		<path class="st1" d="M15.6,10.7c-0.5-0.1-1,0.3-1,0.8l-0.9,6.9c-0.1,1.1-1,1.9-2.1,2L11,20.4l1.1-9.1c0.1-0.5-0.3-1-0.8-1
			c-0.5-0.1-1,0.3-1,0.8l-1.1,9.1l-0.6-0.1c-1-0.3-1.7-1.3-1.6-2.4l0.9-6.9c0.1-0.5-0.3-1-0.8-1c-0.5-0.1-1,0.3-1,0.8l-0.9,6.9
			c-0.2,1.7,0.7,3.4,2.2,4.1L4,42.1c0,0,0,0,0,0c-0.1,0.9,0.1,1.7,0.6,2.5c0.5,0.7,1.3,1.2,2.2,1.3l0,0c0.1,0,0.3,0,0.4,0
			c0.7,0,1.5-0.3,2-0.7c0.7-0.6,1.1-1.4,1.2-2.2l1.9-20.7c1.6-0.4,2.9-1.8,3.1-3.5l0.9-6.9C16.4,11.3,16.1,10.8,15.6,10.7z
			 M8.7,42.7c0,0.4-0.2,0.7-0.5,1c-0.3,0.2-0.7,0.3-1,0.3l0,0c-0.4,0-0.7-0.2-0.9-0.5c-0.2-0.3-0.3-0.7-0.3-1L9.1,22l0.7,0.1
			c0,0,0,0,0,0c0,0,0,0,0,0l0.7,0.1L8.7,42.7z"/>
	</g>
</g>
</svg>
