<svg width="90" height="90" viewBox="0 0 90 90" version="1.1" xmlns="http://www.w3.org/2000/svg" xmlns:xlink="http://www.w3.org/1999/xlink">
<title>module-venues</title>
<desc>Created using Figma</desc>
<g id="Canvas" transform="translate(-422 2219)">
<clipPath id="clip-0" clip-rule="evenodd">
<path d="M 422 -2219L 512 -2219L 512 -2129L 422 -2129L 422 -2219Z" fill="#FFFFFF"/>
</clipPath>
<g id="module-venues" clip-path="url(#clip-0)">
<g id="restaurant">
<g id="Group">
<g id="Group">
<g id="Group">
<g id="Vector">
<use xlink:href="#path0_fill" transform="translate(442 -2195)" fill="#FFFFFF"/>
</g>
<g id="Vector">
<use xlink:href="#path1_fill" transform="translate(461.006 -2173.11)" fill="#66E698"/>
</g>
<g id="Vector">
<use xlink:href="#path2_fill" transform="translate(454.959 -2165.53)" fill="#FFFFFF"/>
</g>
</g>
</g>
</g>
</g>
</g>
</g>
<defs>
<path id="path0_fill" d="M 50 16.3684L 50 8.57895C 50 8.02758 49.5397 7.57895 48.9741 7.57895L 48.2721 7.57895L 48.2721 5C 48.2721 3.636 47.1337 2.52632 45.7343 2.52632L 37.041 2.52632L 37.041 2.47368C 37.041 1.10968 35.9026 0 34.5032 0L 15.4968 0C 14.0974 0 12.959 1.10968 12.959 2.47368L 12.959 2.52632L 4.26566 2.52632C 2.86631 2.52632 1.72786 3.636 1.72786 5L 1.72786 7.57895L 1.02592 7.57895C 0.460259 7.57895 0 8.02758 0 8.57895L 0 16.3684C 0 17.6712 0.687905 18.8198 1.72786 19.4888L 1.72786 40.4211L 0.809935 40.4211C 0.362635 40.4211 0 40.7745 0 41.2105C 0 41.6465 0.362635 42 0.809935 42L 49.1901 42C 49.6374 42 50 41.6465 50 41.2105C 50 40.7745 49.6374 40.4211 49.1901 40.4211L 48.2721 40.4211L 48.2721 19.4888C 49.3121 18.8198 50 17.6712 50 16.3684ZM 14.5788 2.47368C 14.5788 1.98032 14.9906 1.57895 15.4968 1.57895L 34.5032 1.57895C 35.0094 1.57895 35.4212 1.98032 35.4212 2.47368L 35.4212 3.31168L 35.4209 3.31579L 35.4211 3.31789C 35.4199 3.81021 35.0086 4.21053 34.5032 4.21053L 15.4968 4.21053C 14.9906 4.21053 14.5788 3.80916 14.5788 3.31579L 14.5788 2.47368ZM 3.34773 5C 3.34773 4.50663 3.7595 4.10526 4.26566 4.10526L 13.0922 4.10526C 13.4311 5.08316 14.3806 5.78947 15.4968 5.78947L 34.5032 5.78947C 35.6194 5.78947 36.5689 5.08316 36.9078 4.10526L 45.7343 4.10526C 46.2405 4.10526 46.6523 4.50663 46.6523 5L 46.6523 7.57895L 3.34773 7.57895L 3.34773 5ZM 42.3326 9.1579L 42.3326 16.3684C 42.3326 17.5583 41.3395 18.5263 40.1188 18.5263C 38.8981 18.5263 37.905 17.5583 37.905 16.3684L 37.905 9.1579L 42.3326 9.1579ZM 36.2851 9.1579L 36.2851 16.3684C 36.2851 17.5583 35.292 18.5263 34.0713 18.5263C 32.8505 18.5263 31.8575 17.5583 31.8575 16.3684L 31.8575 9.1579L 36.2851 9.1579ZM 30.2376 9.1579L 30.2376 16.3684C 30.2376 17.5583 29.2445 18.5263 28.0238 18.5263C 26.803 18.5263 25.8099 17.5583 25.8099 16.3684L 25.8099 9.1579L 30.2376 9.1579ZM 24.1901 9.1579L 24.1901 16.3684C 24.1901 17.5583 23.197 18.5263 21.9762 18.5263C 20.7555 18.5263 19.7624 17.5583 19.7624 16.3684L 19.7624 9.1579L 24.1901 9.1579ZM 18.1425 9.1579L 18.1425 16.3684C 18.1425 17.5583 17.1495 18.5263 15.9287 18.5263C 14.708 18.5263 13.7149 17.5583 13.7149 16.3684L 13.7149 9.1579L 18.1425 9.1579ZM 12.095 9.1579L 12.095 16.3684C 12.095 17.5583 11.1019 18.5263 9.88121 18.5263C 8.66047 18.5263 7.66739 17.5583 7.66739 16.3684L 7.66739 9.1579L 12.095 9.1579ZM 1.61987 16.3684L 1.61987 9.1579L 6.04752 9.1579L 6.04752 16.3684C 6.04752 17.5583 5.05443 18.5263 3.83369 18.5263C 2.61296 18.5263 1.61987 17.5583 1.61987 16.3684ZM 15.5508 40.4211L 6.80346 40.4211L 6.80346 38.6316L 15.5508 38.6316L 15.5508 40.4211ZM 15.5508 37.0526L 6.80346 37.0526L 6.80346 23.4737L 15.5508 23.4737L 15.5508 37.0526ZM 46.6523 40.4211L 17.1706 40.4211L 17.1706 22.6842C 17.1706 22.2482 16.808 21.8947 16.3607 21.8947L 5.99352 21.8947C 5.54622 21.8947 5.18359 22.2482 5.18359 22.6842L 5.18359 40.4211L 3.34773 40.4211L 3.34773 20.0742C 3.50702 20.094 3.66901 20.1053 3.83369 20.1053C 5.06134 20.1053 6.15529 19.5392 6.85745 18.6615C 7.55961 19.5392 8.65356 20.1053 9.88121 20.1053C 11.1089 20.1053 12.2028 19.5392 12.905 18.6615C 13.6071 19.5392 14.7011 20.1053 15.9287 20.1053C 17.1564 20.1053 18.2503 19.5392 18.9525 18.6615C 19.6546 19.5392 20.7486 20.1053 21.9762 20.1053C 23.2039 20.1053 24.2978 19.5392 25 18.6615C 25.7022 19.5392 26.7961 20.1053 28.0238 20.1053C 29.2514 20.1053 30.3454 19.5392 31.0475 18.6615C 31.7497 19.5392 32.8436 20.1053 34.0713 20.1053C 35.2989 20.1053 36.3929 19.5392 37.095 18.6615C 37.7972 19.5392 38.8911 20.1053 40.1188 20.1053C 41.3464 20.1053 42.4404 19.5392 43.1425 18.6615C 43.8447 19.5392 44.9387 20.1053 46.1663 20.1053C 46.331 20.1053 46.493 20.094 46.6523 20.0742L 46.6523 40.4211ZM 46.1663 18.5263C 44.9456 18.5263 43.9525 17.5583 43.9525 16.3684L 43.9525 9.1579L 48.3801 9.1579L 48.3801 16.3684C 48.3801 17.5583 47.387 18.5263 46.1663 18.5263Z"/>
<path id="path1_fill" d="M 25 0L 0.809935 0C 0.362635 0 0 0.353474 0 0.789474L 0 15.9474C 0 16.3834 0.362635 16.7368 0.809935 16.7368L 25 16.7368C 25.4473 16.7368 25.8099 16.3834 25.8099 15.9474L 25.8099 0.789474C 25.8099 0.353474 25.4473 0 25 0ZM 24.1901 15.1579L 18.8985 15.1579L 18.8985 12.5263L 21.5443 12.5263C 21.9916 12.5263 22.3542 12.1728 22.3542 11.7368C 22.3542 11.3008 21.9916 10.9474 21.5443 10.9474L 14.6328 10.9474C 14.1855 10.9474 13.8229 11.3008 13.8229 11.7368C 13.8229 12.1728 14.1855 12.5263 14.6328 12.5263L 17.2786 12.5263L 17.2786 15.1579L 8.53132 15.1579L 8.53132 12.5263L 11.1771 12.5263C 11.6244 12.5263 11.987 12.1728 11.987 11.7368C 11.987 11.3008 11.6244 10.9474 11.1771 10.9474L 4.26566 10.9474C 3.81836 10.9474 3.45572 11.3008 3.45572 11.7368C 3.45572 12.1728 3.81836 12.5263 4.26566 12.5263L 6.91145 12.5263L 6.91145 15.1579L 1.61987 15.1579L 1.61987 1.57895L 6.91145 1.57895L 6.91145 2.622C 5.42559 2.97726 4.31965 4.28579 4.31965 5.84211C 4.31965 6.27811 4.68229 6.63158 5.12959 6.63158L 6.91145 6.63158L 6.91145 6.68421C 6.91145 7.12021 7.27408 7.47368 7.72138 7.47368C 8.16868 7.47368 8.53132 7.12021 8.53132 6.68421L 8.53132 6.63158L 10.3132 6.63158C 10.7605 6.63158 11.1231 6.27811 11.1231 5.84211C 11.1231 4.28579 10.0172 2.97726 8.53132 2.622L 8.53132 1.57895L 17.2786 1.57895L 17.2786 2.622C 15.7928 2.97726 14.6868 4.28579 14.6868 5.84211C 14.6868 6.27811 15.0495 6.63158 15.4968 6.63158L 17.2786 6.63158L 17.2786 6.68421C 17.2786 7.12021 17.6413 7.47368 18.0886 7.47368C 18.5359 7.47368 18.8985 7.12021 18.8985 6.68421L 18.8985 6.63158L 20.6803 6.63158C 21.1276 6.63158 21.4903 6.27811 21.4903 5.84211C 21.4903 4.28579 20.3843 2.97726 18.8985 2.622L 18.8985 1.57895L 24.1901 1.57895L 24.1901 15.1579ZM 7.72138 4.10526C 8.41253 4.10526 9.01285 4.49074 9.30832 5.05263L 6.13445 5.05263C 6.4298 4.49074 7.03024 4.10526 7.72138 4.10526ZM 18.0886 4.10526C 18.7797 4.10526 19.38 4.49074 19.6755 5.05263L 16.5016 5.05263C 16.797 4.49074 17.3974 4.10526 18.0886 4.10526Z"/>
<path id="path2_fill" d="M 0.809935 3.26316C 1.25724 3.26316 1.61987 2.90968 1.61987 2.47368L 1.61987 0.789474C 1.61987 0.353474 1.25724 0 0.809935 0C 0.362635 0 0 0.353474 0 0.789474L 0 2.47368C 0 2.90968 0.362635 3.26316 0.809935 3.26316Z"/>
</defs>
</svg>
