<svg width="90" height="90" viewBox="0 0 90 90" version="1.1" xmlns="http://www.w3.org/2000/svg" xmlns:xlink="http://www.w3.org/1999/xlink">
<title>module-reports</title>
<desc>Created using Figma</desc>
<g id="Canvas" transform="translate(-422 2219)">
<clipPath id="clip-0" clip-rule="evenodd">
<path d="M 422 -2219L 512 -2219L 512 -2129L 422 -2129L 422 -2219Z" fill="#FFFFFF"/>
</clipPath>
<g id="module-reports" clip-path="url(#clip-0)">
<g id="reports">
<g id="Group">
<g id="Group">
<g id="Vector">
<use xlink:href="#path0_fill" transform="translate(446 -2197)" fill="#FFFFFF"/>
</g>
</g>
</g>
<g id="Group">
<g id="Group">
<g id="Vector">
<use xlink:href="#path1_fill" transform="translate(460.701 -2181.94)" fill="#66E698"/>
</g>
</g>
</g>
<g id="Group">
<g id="Group">
<g id="Vector">
<use xlink:href="#path2_fill" transform="translate(460.701 -2169.89)" fill="#66E698"/>
</g>
</g>
</g>
<g id="Group">
<g id="Group">
<g id="Vector">
<use xlink:href="#path3_fill" transform="translate(460.701 -2163.87)" fill="#66E698"/>
</g>
</g>
</g>
<g id="Group">
<g id="Group">
<g id="Vector">
<use xlink:href="#path4_fill" transform="translate(460.701 -2175.92)" fill="#66E698"/>
</g>
</g>
</g>
</g>
</g>
</g>
<defs>
<path id="path0_fill" d="M 39.5999 6.62645L 35.3999 6.62645L 35.3999 2.40966C 35.4 1.08428 34.3198 0 33.0004 0L 2.39993 0C 1.07994 0 1.18732e-08 1.08428 1.18732e-08 2.40966L 1.18732e-08 40.9638C 1.18732e-08 42.2891 1.07994 43.3735 2.40003 43.3735L 6.60004 43.3735L 6.60004 47.5903C 6.60004 48.9156 7.6795 50 9.00007 50L 29.3995 50C 30.7189 50 32.5861 49.2566 33.5467 48.3488L 40.2511 42.0127C 41.2128 41.1049 41.9988 39.2772 41.9988 37.9519L 42 9.03631C 41.9999 7.71082 40.9199 6.62645 39.5999 6.62645ZM 6.59985 9.03621L 6.59985 41.5662L 2.39993 41.5662C 2.07477 41.5662 1.79999 41.2904 1.79999 40.9639L 1.79999 2.40966C 1.79999 2.0832 2.07477 1.80732 2.39993 1.80732L 33.0005 1.80732C 33.3251 1.80732 33.6004 2.0832 33.6004 2.40966L 33.6004 6.62655L 8.99988 6.62655C 7.6793 6.62655 6.59985 7.71082 6.59985 9.03621ZM 39.0174 40.6969L 32.3129 47.0325C 32.1756 47.1621 31.9967 47.2892 31.7993 47.4102L 31.7993 41.8674C 31.7993 41.4535 31.9655 41.0812 32.2397 40.8041C 32.5163 40.5288 32.8871 40.3614 33.2993 40.3614L 39.3023 40.3614C 39.2093 40.4884 39.1139 40.6053 39.0174 40.6969ZM 40.1986 37.9517C 40.1986 38.1306 40.1662 38.3378 40.117 38.554L 33.2992 38.554C 31.4783 38.5576 30.0029 40.039 29.9992 41.8673L 29.9992 48.1196C 29.785 48.1631 29.5786 48.1925 29.3993 48.1925L 8.99988 48.1925L 8.99988 48.1926C 8.67404 48.1926 8.39994 47.9167 8.39994 47.5902L 8.39994 9.03612C 8.39994 8.70965 8.67413 8.43377 8.99988 8.43377L 39.5998 8.43377C 39.9249 8.43377 40.1997 8.70965 40.1997 9.03612L 40.1986 37.9517Z"/>
<path id="path1_fill" d="M 18.2999 3.33785e-07L 0.899998 3.33785e-07C 0.402582 3.33785e-07 5.93661e-08 0.404198 5.93661e-08 0.903611C 5.93661e-08 1.40302 0.40268 1.80722 0.899998 1.80722L 18.2999 1.80722C 18.7967 1.80722 19.1999 1.40302 19.1999 0.903611C 19.1999 0.404198 18.7967 3.33785e-07 18.2999 3.33785e-07Z"/>
<path id="path2_fill" d="M 18.2999 -3.57627e-07L 0.899998 -3.57627e-07C 0.402582 -3.57627e-07 5.93661e-08 0.404197 5.93661e-08 0.90361C 5.93661e-08 1.40302 0.40268 1.80722 0.899998 1.80722L 18.2999 1.80722C 18.7967 1.80722 19.1999 1.40302 19.1999 0.90361C 19.1999 0.4041 18.7967 -3.57627e-07 18.2999 -3.57627e-07Z"/>
<path id="path3_fill" d="M 10.4999 7.8678e-07L 0.899997 7.8678e-07C 0.402582 7.8678e-07 -7.3614e-07 0.404198 -7.3614e-07 0.903611C -7.3614e-07 1.40302 0.402582 1.80722 0.899997 1.80722L 10.4999 1.80722C 10.9967 1.80722 11.3993 1.40302 11.3993 0.903611C 11.3993 0.404198 10.9967 7.8678e-07 10.4999 7.8678e-07Z"/>
<path id="path4_fill" d="M 18.2999 -1.19209e-08L 0.899998 -1.19209e-08C 0.402582 -1.19209e-08 5.93661e-08 0.404199 5.93661e-08 0.903612C 5.93661e-08 1.40303 0.40268 1.80722 0.899998 1.80722L 18.2999 1.80722C 18.7967 1.80722 19.1999 1.40303 19.1999 0.903612C 19.1999 0.404199 18.7967 -1.19209e-08 18.2999 -1.19209e-08Z"/>
</defs>
</svg>
