<svg width="90" height="90" viewBox="0 0 90 90" version="1.1" xmlns="http://www.w3.org/2000/svg" xmlns:xlink="http://www.w3.org/1999/xlink">
<title>ico</title>
<desc>Created using Figma</desc>
<g id="Canvas" transform="translate(-422 2219)">
<clipPath id="clip-0" clip-rule="evenodd">
<path d="M 422 -2219L 512 -2219L 512 -2129L 422 -2129L 422 -2219Z" fill="#FFFFFF"/>
</clipPath>
<g id="ico" clip-path="url(#clip-0)">
<g id="dashboard">
<g id="Group">
<g id="Group">
<g id="Vector">
<use xlink:href="#path0_fill" transform="translate(437 -2193)" fill="#FFFFFF"/>
</g>
</g>
</g>
<g id="Group">
<g id="Group">
<g id="Vector">
<use xlink:href="#path1_fill" transform="translate(472.638 -2179.39)" fill="#66E698"/>
</g>
</g>
</g>
<g id="Group">
<g id="Group">
<g id="Vector">
<use xlink:href="#path2_fill" transform="translate(447.382 -2176.44)" fill="#66E698"/>
</g>
</g>
</g>
</g>
</g>
</g>
<defs>
<path id="path0_fill" d="M 40.3279 -8.72612e-08C 33.6769 -8.72612e-08 27.7905 3.37621 24.2283 8.52796C 21.6947 6.87274 18.7748 5.99992 15.7377 5.99992C 7.05996 6.00004 0 13.1775 0 22C 0 27.7002 3.01957 33.0134 7.88039 35.866C 8.02992 35.9539 8.19938 36 8.37211 36L 23.1033 36C 23.2759 36 23.4455 35.9539 23.5951 35.866C 24.5314 35.3166 25.4094 34.6698 26.216 33.9373C 26.8466 34.5947 27.5252 35.2141 28.2514 35.789C 28.4242 35.9258 28.6369 36 28.8558 36L 51.8 36C 52.0189 36 52.2315 35.9258 52.4044 35.789C 57.2314 31.9678 60 26.213 60 20C 60 8.97188 51.1752 -8.72612e-08 40.3279 -8.72612e-08ZM 22.8349 34L 16.7214 34L 16.7214 31C 16.7214 30.4478 16.281 30.0001 15.7378 30.0001C 15.1946 30.0001 14.7543 30.4478 14.7543 31L 14.7543 34L 8.64059 34C 7.57559 33.3473 6.61652 32.5572 5.77828 31.661L 8.16914 29.2302C 8.55328 28.8398 8.55328 28.2065 8.16902 27.8161C 7.785 27.4254 7.16227 27.4254 6.77801 27.8161L 4.52203 30.1098C 2.89043 27.7736 1.96734 24.9461 1.96734 21.9999L 4.91812 21.9999C 5.46129 21.9999 5.90168 21.5522 5.90168 21C 5.90168 20.4477 5.46129 20 4.91812 20L 2.10996 20C 2.52832 17.0403 3.86098 14.3786 5.80617 12.3171L 7.76156 14.3051C 7.95363 14.5004 8.20535 14.5981 8.45707 14.5981C 8.70867 14.5981 8.96051 14.5004 9.15246 14.3051C 9.53672 13.9147 9.53672 13.2814 9.15258 12.891L 7.26703 10.974C 9.3627 9.30619 11.9425 8.2425 14.754 8.03961L 14.754 10.9999C 14.754 11.5521 15.1944 11.9998 15.7376 11.9998C 16.2807 11.9998 16.7211 11.5521 16.7211 10.9999L 16.7211 8.03627C 19.0284 8.20116 21.2339 8.94567 23.1782 10.2188C 21.5749 13.1129 20.6556 16.4483 20.6556 19.9999C 20.6556 24.5956 22.172 28.9398 24.9144 32.4371C 24.2702 33.0232 23.5744 33.5469 22.8349 34ZM 53.5254 32.0034L 50.7606 29.1924C 50.3766 28.802 49.7539 28.8018 49.3695 29.1924C 48.9853 29.5828 48.9853 30.2161 49.3695 30.6065L 52.1321 33.4154C 51.9124 33.6148 51.688 33.8104 51.4573 34.0001L 41.3115 34.0001L 41.3115 31.0001C 41.3115 30.4479 40.8711 30.0002 40.328 30.0002C 39.7848 30.0002 39.3444 30.4479 39.3444 31.0001L 39.3444 34.0001L 29.1987 34.0001C 28.9679 33.8104 28.7435 33.6149 28.5238 33.4154L 31.2864 30.6065C 31.6705 30.2161 31.6705 29.5828 31.2863 29.1924C 30.9022 28.8018 30.2795 28.8018 29.8952 29.1924L 27.1305 32.0034C 27.114 31.9847 27.0969 31.9664 27.0805 31.9476C 27.0444 31.8936 27.0029 31.8422 26.9554 31.7947C 26.9489 31.7883 26.9412 31.784 26.9345 31.7777C 24.3757 28.7832 22.8653 25.0214 22.65 21L 26.5575 21C 27.1007 21 27.5411 20.5522 27.5411 20C 27.5411 19.4478 27.1007 19.0001 26.5575 19.0001L 22.6518 19.0001C 22.8797 14.789 24.5384 10.9605 27.1402 8.00649L 29.8951 10.8076C 30.0872 11.0029 30.3389 11.1006 30.5906 11.1006C 30.8422 11.1006 31.0941 11.0029 31.286 10.8076C 31.6703 10.4172 31.6703 9.78394 31.2861 9.39352L 28.5311 6.59229C 31.4366 3.94725 35.2023 2.26093 39.3443 2.0292L 39.3443 6.00004C 39.3443 6.55226 39.7847 6.99999 40.3279 6.99999C 40.871 6.99999 41.3114 6.55226 41.3114 6.00004L 41.3114 2.0292C 45.4534 2.26093 49.2191 3.94725 52.1245 6.59229L 49.3693 9.39352C 48.9852 9.78394 48.9852 10.4172 49.3693 10.8076C 49.5614 11.0029 49.8131 11.1006 50.0648 11.1006C 50.3166 11.1006 50.5683 11.0029 50.7604 10.8076L 53.5154 8.00649C 56.1172 10.9605 57.7759 14.789 58.0038 19.0001L 54.0982 19.0001C 53.555 19.0001 53.1146 19.4478 53.1146 20C 53.1146 20.5522 53.555 21 54.0982 21L 58.0057 21C 57.7852 25.1233 56.2031 28.9734 53.5254 32.0034Z"/>
<path id="path1_fill" d="M 10.194 0.29307C 9.92496 0.0194044 9.52488 -0.0717393 9.16711 0.0584814C 8.04726 0.465942 2.39789 2.56234 1.15242 3.82881C 0.409336 4.58416 1.60217e-06 5.58863 1.60217e-06 6.6572C 1.60217e-06 7.72554 0.409336 8.73001 1.15242 9.48536L 1.1523 9.48536C 1.89551 10.241 2.88351 10.657 3.93445 10.657C 4.98539 10.657 5.97352 10.241 6.71649 9.4856C 7.96207 8.21949 10.024 2.47561 10.4246 1.3371C 10.5526 0.973006 10.4629 0.566498 10.194 0.29307ZM 5.32523 8.07116C 4.95375 8.44884 4.45981 8.65686 3.93422 8.65686C 3.40875 8.65686 2.91469 8.44884 2.5432 8.07116L 2.54309 8.07116C 2.1716 7.69349 1.96699 7.19131 1.96699 6.65708C 1.96699 6.12262 2.1716 5.62044 2.5432 5.24277C 3.06832 4.70878 5.52445 3.6165 7.81933 2.7071C 6.92508 5.03987 5.85082 7.53694 5.32523 8.07116Z"/>
<path id="path2_fill" d="M 7.28891 2.8854C 6.35997 1.94085 2.48153 0.482809 1.31493 0.05843C 0.956804 -0.0716715 0.556961 0.0193512 0.288015 0.293017C 0.0191872 0.566445 -0.0705788 0.972954 0.0575072 1.33693C 0.475046 2.52297 1.90907 6.46605 2.83802 7.41024C 3.43251 8.01476 4.2227 8.34752 5.06352 8.34752C 5.90411 8.34752 6.69442 8.01476 7.28891 7.41048C 7.88341 6.80619 8.21083 6.00247 8.21083 5.14776C 8.21071 4.29328 7.88341 3.48956 7.28891 2.8854ZM 5.8979 5.99592L 5.89778 5.99616C 5.67489 6.22264 5.37864 6.3475 5.0634 6.3475C 4.74817 6.3475 4.45192 6.22276 4.22891 5.99592C 3.94098 5.70343 3.30653 4.30579 2.68157 2.72635C 4.23512 3.3616 5.60985 4.00663 5.89778 4.29936C 6.12079 4.5262 6.24348 4.82739 6.24348 5.14776C 6.24348 5.46837 6.12079 5.76932 5.8979 5.99592Z"/>
</defs>
</svg>
