<svg width="90" height="90" viewBox="0 0 90 90" version="1.1" xmlns="http://www.w3.org/2000/svg" xmlns:xlink="http://www.w3.org/1999/xlink">
<title>module-transactions</title>
<desc>Created using Figma</desc>
<g id="Canvas" transform="translate(-422 2219)">
<clipPath id="clip-0" clip-rule="evenodd">
<path d="M 422 -2219L 512 -2219L 512 -2129L 422 -2129L 422 -2219Z" fill="#FFFFFF"/>
</clipPath>
<g id="module-transactions" clip-path="url(#clip-0)">
<g id="transactions">
<g id="Group">
<g id="Group">
<g id="Vector">
<use xlink:href="#path0_fill" transform="translate(461.19 -2185.22)" fill="#66E698"/>
</g>
</g>
</g>
<g id="Group">
<g id="Group">
<g id="Vector">
<use xlink:href="#path1_fill" transform="translate(469.87 -2195)" fill="#66E698"/>
</g>
</g>
</g>
<g id="Group">
<g id="Group">
<g id="Vector">
<use xlink:href="#path2_fill" transform="translate(441 -2175.44)" fill="#FFFFFF"/>
</g>
</g>
</g>
</g>
</g>
</g>
<defs>
<path id="path0_fill" d="M 5.81071 2.4691e-07C 2.6 2.4691e-07 4.21525e-07 2.57529 4.21525e-07 5.75293C 4.21525e-07 8.93007 2.5999 11.507 5.81071 11.507C 9.01968 11.507 11.6209 8.92997 11.6209 5.75293C 11.6209 2.57519 9.01968 2.4691e-07 5.81071 2.4691e-07ZM 5.81071 9.78091C 3.5683 9.78091 1.74373 7.97384 1.74373 5.75293C 1.74373 3.53262 3.5684 1.72606 5.81071 1.72606C 8.05311 1.72606 9.87708 3.53262 9.87708 5.75293C 9.87718 7.97384 8.05311 9.78091 5.81071 9.78091Z"/>
<path id="path1_fill" d="M 4.64883 -1.0185e-07C 2.08 -1.0185e-07 1.21498e-06 2.06031 1.21498e-06 4.60212C 1.21498e-06 7.14444 2.07939 9.20535 4.64883 9.20535C 7.21532 9.20535 9.29654 7.14444 9.29654 4.60212C 9.29654 2.06031 7.21542 -1.0185e-07 4.64883 -1.0185e-07ZM 4.64883 7.47939C 3.04668 7.47939 1.74322 6.18831 1.74322 4.60212C 1.74261 3.01643 3.04607 1.72596 4.64883 1.72596C 6.25047 1.72596 7.55281 3.01643 7.55281 4.60212C 7.55281 6.18831 6.25047 7.47939 4.64883 7.47939Z"/>
<path id="path2_fill" d="M 48.0937 2.45332C 47.5194 2.45332 46.9896 2.59197 46.5187 2.80082C 45.8051 1.89516 44.6963 1.30949 43.446 1.30838C 42.7994 1.30777 42.2055 1.47808 41.6947 1.73243L 40.0452 2.69958C 39.3293 1.85207 38.2575 1.30898 37.0545 1.30838C 36.4081 1.30777 35.8147 1.47808 35.3038 1.73243L 29.3666 5.32999C 27.9256 4.90765 21.6676 3.14993 20.4642 2.84916C 19.8604 2.69847 19.3335 2.57468 18.9019 2.48669C 18.6859 2.443 18.4941 2.4073 18.3235 2.38141C 18.1508 2.35613 18.0069 2.33833 17.844 2.33772C 17.7185 2.33833 17.6106 2.34986 17.4863 2.36422C 17.0362 2.42348 16.396 2.55931 15.6409 2.73407C 14.0976 3.0936 12.1274 3.61545 11.0395 3.90895L 11.0395 2.30141C 11.0395 1.03572 9.99428 -7.28385e-07 8.71621 -7.28385e-07L 2.32375 -7.28385e-07C 1.0464 -7.28385e-07 0 1.03562 0 2.30141L 0 20.1371C 0 21.4028 1.0464 22.4385 2.32375 22.4385L 8.71509 22.4385C 9.99377 22.4385 11.0383 21.4029 11.0383 20.1371L 11.0383 18.7522C 12.4175 19.0497 15.4792 19.7044 18.7066 20.3609C 20.8894 20.8045 23.1457 21.2486 25.0085 21.5835C 25.9404 21.7504 26.7748 21.8901 27.4566 21.989C 28.1446 22.088 28.6584 22.1489 29.0495 22.1508C 29.354 22.1496 29.6417 22.092 29.9531 22.0081C 30.5326 21.8463 31.1918 21.572 31.9464 21.2089C 34.573 19.9408 38.3454 17.5647 41.9039 15.2137C 45.456 12.8663 48.7782 10.5472 50.4065 9.43726C 51.4268 8.74105 52 7.56627 52 6.32242C 51.9989 4.18615 50.2523 2.45382 48.0937 2.45332ZM 9.29644 20.137C 9.29644 20.4488 9.03004 20.7123 8.7152 20.7123L 2.32375 20.7123C 2.00891 20.7123 1.74251 20.4488 1.74251 20.137L 1.74251 2.30141C 1.74251 1.98962 2.00891 1.72606 2.32375 1.72606L 8.71509 1.72606C 9.02994 1.72606 9.29634 1.98962 9.29634 2.30141L 9.29634 20.137L 9.29644 20.137ZM 49.4203 8.01561C 47.4177 9.38153 42.9376 12.5142 38.6008 15.3028C 36.4347 16.6964 34.3033 18.0029 32.5561 18.9506C 31.6837 19.4241 30.9054 19.8073 30.2825 20.0627C 29.9718 20.1911 29.6996 20.2866 29.4841 20.3458C 29.2697 20.4062 29.1086 20.4263 29.0496 20.4252C 28.8594 20.4269 28.3563 20.377 27.7103 20.2819C 25.4205 19.95 21.1357 19.1024 17.4465 18.3407C 15.6005 17.9592 13.8991 17.5997 12.6596 17.3344C 11.9397 17.1808 11.3832 17.0606 11.0377 16.9863L 11.0377 5.69872C 11.2075 5.6527 11.4312 5.59223 11.6993 5.51981C 12.618 5.27305 14.0202 4.903 15.2775 4.59646C 15.9049 4.44284 16.4983 4.306 16.9698 4.20871C 17.2049 4.16047 17.4095 4.12234 17.5672 4.09766C 17.722 4.07177 17.8416 4.06317 17.8428 4.06429C 17.8463 4.06368 17.9376 4.06945 18.0618 4.08846C 18.5425 4.15976 19.5288 4.38812 20.7295 4.70002C 24.3487 5.63551 30.0553 7.32759 32.3607 8.02148C 33.1581 8.25965 33.8808 8.61867 34.3541 9.05426C 34.5927 9.2718 34.7712 9.50421 34.8915 9.75563C 35.0122 10.0082 35.0798 10.282 35.081 10.6158C 35.0804 11.2929 34.8066 11.8983 34.3582 12.3429C 33.9133 12.7819 33.3089 13.0512 32.6335 13.0569L 30.3854 12.8388L 22.7102 11.8636C 22.2325 11.8032 21.795 12.1368 21.7343 12.6092C 21.6737 13.0822 22.0111 13.5149 22.4883 13.5753L 30.1884 14.5538L 32.5718 14.7851L 32.6145 14.7851C 34.939 14.784 36.8237 12.9187 36.8248 10.6162C 36.8259 10.0362 36.6959 9.49257 36.4666 9.01502C 36.1211 8.29646 35.5647 7.74002 34.9367 7.31657C 34.3057 6.89201 33.5939 6.58941 32.8682 6.37076C 32.5205 6.26598 32.0928 6.13775 31.6105 5.99444L 36.101 3.27018C 36.4078 3.12 36.7221 3.03545 37.0543 3.03484C 37.6177 3.03423 38.126 3.25056 38.5109 3.60048L 36.1739 4.97268C 35.7601 5.2155 35.6238 5.74534 35.8694 6.15554C 36.1156 6.56514 36.65 6.70035 37.0637 6.45703L 42.4873 3.2719C 42.7959 3.12 43.1119 3.03545 43.4459 3.03484C 44.0473 3.03423 44.5881 3.28221 44.9793 3.67583L 38.6636 7.38514C 38.2493 7.62796 38.1129 8.1578 38.3591 8.56801C 38.6047 8.9776 39.1391 9.11281 39.5528 8.86949L 47.1361 4.41583C 47.444 4.26565 47.7595 4.18049 48.0929 4.17988C 48.692 4.18049 49.2283 4.41806 49.6217 4.80813C 50.0146 5.19881 50.2556 5.72926 50.2562 6.32363C 50.2569 7.04563 49.9217 7.67731 49.4203 8.01561Z"/>
</defs>
</svg>
