<svg width="90" height="90" viewBox="0 0 90 90" version="1.1" xmlns="http://www.w3.org/2000/svg" xmlns:xlink="http://www.w3.org/1999/xlink">
<title>module-settings</title>
<desc>Created using Figma</desc>
<g id="Canvas" transform="translate(-422 2219)">
<clipPath id="clip-0" clip-rule="evenodd">
<path d="M 422 -2219L 512 -2219L 512 -2129L 422 -2129L 422 -2219Z" fill="#FFFFFF"/>
</clipPath>
<g id="module-settings" clip-path="url(#clip-0)">
<g id="settings">
<g id="Group">
<g id="Group">
<g id="Vector">
<use xlink:href="#path0_fill" transform="translate(440 -2188.68)" fill="#FFFFFF"/>
</g>
</g>
</g>
<g id="Group">
<g id="Group">
<g id="Vector">
<use xlink:href="#path1_fill" transform="translate(449.781 -2178.89)" fill="#FFFFFF"/>
</g>
</g>
</g>
<g id="Group">
<g id="Group">
<g id="Vector">
<use xlink:href="#path2_fill" transform="translate(472.095 -2196)" fill="#66E698"/>
</g>
</g>
</g>
<g id="Group">
<g id="Group">
<g id="Vector">
<use xlink:href="#path3_fill" transform="translate(478.768 -2189.36)" fill="#66E698"/>
</g>
</g>
</g>
</g>
</g>
</g>
<defs>
<path id="path0_fill" d="M 36.7447 16.4801L 36.2342 13.6742C 36.0713 13.0347 35.3988 12.4496 34.7407 12.3731C 34.7407 12.3731 33.0622 12.1784 32.3519 10.8646C 31.6409 9.54901 32.4036 8.04961 32.4036 8.04961C 32.7023 7.4602 32.5983 6.5665 32.171 6.06212C 32.171 6.06212 31.82 5.64626 31.1722 5.03103C 30.5268 4.41571 30.0934 4.08541 30.0934 4.08541C 29.7942 3.8558 29.3704 3.7365 28.9557 3.7365C 28.6426 3.7365 28.3349 3.80397 28.0873 3.94252C 28.0873 3.94252 27.3282 4.36737 26.4003 4.36737C 26.0355 4.36737 25.645 4.30233 25.2639 4.11967C 23.9117 3.47177 23.6432 1.81214 23.6432 1.81214C 23.5375 1.16128 22.9202 0.518873 22.2712 0.384448L 19.4316 0.00243258L 19.3474 -2.453e-07C 18.7062 -2.453e-07 17.9899 0.442935 17.7248 1.01723C 17.7248 1.01723 17.0192 2.54074 15.5451 2.80769C 15.3961 2.83476 15.2495 2.84692 15.107 2.84692C 13.8389 2.84692 12.8701 1.88744 12.8701 1.88744C 12.5557 1.57523 12.0558 1.39988 11.5785 1.39988C 11.3442 1.39988 11.1152 1.44208 10.9163 1.53071L 8.3934 2.88722C 7.83326 3.23983 7.48173 4.05759 7.61273 4.70486C 7.61273 4.70486 7.94442 6.35011 6.90778 7.42889C 6.20641 8.15812 5.21607 8.27626 4.64865 8.27626C 4.37759 8.27626 4.20452 8.24972 4.20452 8.24972C 4.13481 8.23893 4.06277 8.23406 3.99 8.23406C 3.3825 8.23406 2.70877 8.59683 2.41546 9.10661L 1.16545 11.6744C 0.921504 12.2878 1.12094 13.1552 1.60895 13.6017C 1.60895 13.6017 2.85294 14.7402 2.65097 16.2196C 2.449 17.6967 0.950824 18.4644 0.950824 18.4644C 0.361362 18.7664 -0.06357 19.5497 0.00783202 20.2055L 0.517455 23.0126C 0.681458 23.6521 1.3534 24.2366 2.01141 24.3126C 2.01141 24.3126 3.68994 24.5066 4.39911 25.8211C 5.10944 27.1355 4.34869 28.6341 4.34869 28.6341C 4.04948 29.2229 4.154 30.1179 4.58125 30.6224C 4.58125 30.6224 4.93225 31.0376 5.57888 31.6542C 6.22498 32.269 6.65824 32.5991 6.65824 32.5991C 6.95809 32.8287 7.38186 32.9475 7.79772 32.9475C 8.10959 32.9475 8.41734 32.88 8.66498 32.742C 8.66498 32.742 9.42288 32.3176 10.3507 32.3176C 10.715 32.3176 11.1067 32.3834 11.4884 32.566C 12.8394 33.2126 13.1086 34.8723 13.1086 34.8723C 13.215 35.5232 13.8322 36.1656 14.4812 36.3L 17.3209 36.6821L 17.405 36.6845C 18.0463 36.6845 18.7626 36.2416 19.0277 35.6673C 19.0277 35.6673 19.732 34.1444 21.2062 33.8792C 21.3552 33.8522 21.5018 33.84 21.6443 33.84C 22.9117 33.84 23.8812 34.7982 23.8812 34.7982C 24.1961 35.1098 24.6949 35.2845 25.1721 35.2845C 25.4071 35.2845 25.6355 35.2429 25.8356 35.1537L 28.3574 33.7977C 28.9181 33.4451 29.2703 32.6279 29.1392 31.9807C 29.1392 31.9807 28.8068 30.3348 29.8435 29.2567C 30.5454 28.5269 31.5364 28.4088 32.1038 28.4088C 32.3742 28.4088 32.548 28.4358 32.548 28.4358C 32.6183 28.4466 32.6897 28.4515 32.7625 28.4515C 33.37 28.4515 34.0437 28.0887 34.3375 27.5789L 35.5869 25.0117C 35.8303 24.3976 35.6308 23.5309 35.1434 23.0843C 35.1434 23.0843 33.8994 21.9459 34.1007 20.4657C 34.3032 18.9887 35.802 18.2203 35.802 18.2203C 36.3913 17.9192 36.8163 17.1358 36.7447 16.4801ZM 34.9152 16.6519C 34.5005 16.8773 32.6099 18.0181 32.3081 20.2245C 32.0076 22.432 33.5275 24.0332 33.8694 24.3616L 33.8778 24.3947L 32.7871 26.6366L 32.7648 26.6498C 32.6493 26.6348 32.4132 26.61 32.1026 26.61C 30.6723 26.61 29.4061 27.1084 28.537 28.013C 26.9913 29.619 27.2707 31.7989 27.3531 32.2682L 27.3405 32.299L 25.1385 33.4826L 25.1055 33.4753C 24.808 33.1962 23.4672 32.0411 21.6426 32.0411C 21.3878 32.0411 21.1306 32.0639 20.8824 32.1086C 18.6823 32.5044 17.6204 34.433 17.413 34.8561L 17.3818 34.8753L 14.9015 34.5414L 14.8804 34.5179C 14.7927 34.0509 14.2854 31.9102 12.271 30.9448C 11.6808 30.6622 11.0336 30.5187 10.3497 30.5187C 9.10088 30.5187 8.10748 30.9973 7.8263 31.1474L 7.79677 31.148L 7.71872 31.1402C 7.60461 31.0492 7.2746 30.7779 6.82868 30.3537C 6.37917 29.9252 6.09124 29.6076 5.99748 29.5021L 5.98546 29.3967C 6.17783 28.9959 7.06007 26.9469 5.99147 24.9689C 4.9332 23.0085 2.76055 22.5998 2.28774 22.5343L 2.26433 22.515L 1.81967 20.0628L 1.83707 20.0327C 2.25114 19.8073 4.14124 18.6659 4.44288 16.4607C 4.74399 14.2532 3.22409 12.652 2.88163 12.3236L 2.87319 12.2911L 3.96447 10.048L 3.98673 10.0348C 4.10274 10.0498 4.33773 10.0745 4.64896 10.0745C 6.07869 10.0745 7.34494 9.57619 8.21516 8.67097C 9.75974 7.06433 9.48025 4.88508 9.39788 4.41634L 9.41054 4.38503L 11.6119 3.20144L 11.6437 3.20874C 11.9412 3.48785 13.2825 4.64489 15.1077 4.64489C 15.3632 4.64489 15.6203 4.62205 15.8698 4.57742C 18.0687 4.17964 19.1312 2.25116 19.3392 1.82875L 19.3704 1.80886L 21.8507 2.14276L 21.8706 2.16507C 21.9589 2.63276 22.4642 4.77456 24.4799 5.7406C 25.0701 6.0232 25.7174 6.16672 26.4013 6.16672C 27.6501 6.16672 28.644 5.68761 28.9259 5.53637L 28.9566 5.53521L 29.0329 5.54367C 29.1459 5.63346 29.4759 5.90527 29.9241 6.33192C 30.373 6.75973 30.6609 7.07617 30.7547 7.18236L 30.7667 7.2878C 30.5732 7.68981 29.6904 9.73759 30.7594 11.7167C 31.8183 13.6754 33.9896 14.0858 34.4644 14.152L 34.4872 14.1713L 34.9331 16.6223L 34.9152 16.6519Z"/>
<path id="path1_fill" d="M 14.5366 2.37258C 12.8713 0.786347 10.7317 6.45525e-07 8.59713 6.45525e-07C 6.33262 6.45525e-07 4.07233 0.884072 2.38431 2.64079C -0.89765 6.05302 -0.776151 11.4672 2.6542 14.7318C 4.31892 16.3169 6.45718 17.1044 8.59365 17.1044C 10.8582 17.1044 13.1184 16.2192 14.8065 14.4636C 18.0883 11.0507 17.9663 5.63716 14.5366 2.37258ZM 13.4999 13.2196C 12.2072 14.5634 10.4651 15.3042 8.59365 15.3042C 6.83824 15.3042 5.17352 14.6389 3.90305 13.4318C 2.59293 12.1855 1.84959 10.5053 1.80983 8.70164C 1.76954 6.89785 2.43726 5.18703 3.69085 3.8834C 4.98294 2.53958 6.72633 1.79818 8.59713 1.79818C 10.3519 1.79818 12.0173 2.46353 13.2871 3.67124C 14.5972 4.91755 15.3406 6.59707 15.3808 8.40138C 15.4212 10.2045 14.7535 11.9162 13.4999 13.2196Z"/>
<path id="path2_fill" d="M 21.4287 10.5603C 21.4287 10.5603 20.1204 9.77989 19.8517 8.69868C 19.5813 7.61683 20.3704 6.3188 20.3704 6.3188C 20.5417 6.03673 20.5386 5.57762 20.3631 5.29735L 19.0988 3.59668C 18.9239 3.39478 18.603 3.26522 18.3158 3.26522C 18.2479 3.26522 18.1817 3.27304 18.1205 3.28806C 18.1205 3.28806 17.6541 3.4044 17.076 3.4044C 16.6241 3.4044 16.1037 3.33269 15.6835 3.08077C 14.722 2.5052 14.3596 1.03351 14.3596 1.03351C 14.2802 0.712313 13.951 0.391005 13.6282 0.317606L 11.5236 0.00179808L 11.4732 -1.09739e-07C 11.1529 -1.09739e-07 10.7749 0.204334 10.6132 0.472443C 10.6132 0.472443 9.82961 1.77237 8.74297 2.04175C 8.58319 2.08036 8.41971 2.09781 8.2556 2.09781C 7.30122 2.09781 6.35053 1.52595 6.35053 1.52595C 6.2111 1.44218 6.0279 1.39998 5.84449 1.39998C 5.65581 1.39998 5.46639 1.44462 5.32464 1.53314L 3.613 2.79267C 3.36177 3.00716 3.22297 3.44597 3.30281 3.76537C 3.30281 3.76537 3.67364 5.23463 3.09546 6.18924C 2.51613 7.14386 1.03778 7.50726 1.03778 7.50726C 0.715676 7.58616 0.392942 7.9135 0.319009 8.23533L 0.00176107 10.3284C -0.0216529 10.6568 0.191079 11.0654 0.475316 11.2348C 0.475316 11.2348 1.78186 12.0146 2.05038 13.0957C 2.32143 14.1768 1.53168 15.4736 1.53168 15.4736C 1.3604 15.7562 1.36399 16.2156 1.53949 16.4945L 2.80458 18.1963C 2.97892 18.3982 3.30039 18.5278 3.58705 18.5278C 3.65497 18.5278 3.7211 18.5205 3.78174 18.5054C 3.78174 18.5054 4.24749 18.3896 4.8262 18.3896C 5.27813 18.3896 5.79914 18.4602 6.21922 18.712C 7.17898 19.2876 7.54316 20.7604 7.54316 20.7604C 7.62258 21.0804 7.95175 21.4023 8.27511 21.4758L 10.3779 21.7911L 10.4284 21.7929C 10.7487 21.7929 11.1267 21.588 11.2901 21.3193C 11.2901 21.3193 12.0738 20.0218 13.1597 19.7523C 13.3195 19.713 13.4824 19.6956 13.6465 19.6956C 14.6014 19.6956 15.5516 20.2687 15.5516 20.2687C 15.6905 20.3525 15.8737 20.3941 16.057 20.3941C 16.2457 20.3941 16.4356 20.3502 16.578 20.2604L 18.2884 19.0039C 18.5396 18.7881 18.6789 18.3506 18.5991 18.0313C 18.5991 18.0313 18.2301 16.559 18.8064 15.6038C 19.3851 14.6486 20.8667 14.2863 20.8667 14.2863C 21.1876 14.2074 21.511 13.8801 21.5848 13.559L 21.9027 11.466C 21.9264 11.1383 21.7129 10.7309 21.4287 10.5603ZM 19.886 12.7082C 19.1528 12.9703 17.9401 13.5507 17.2574 14.6783C 16.5778 15.8034 16.6294 17.1425 16.7387 17.9079L 15.9821 18.4642C 15.4509 18.2153 14.5873 17.8983 13.6474 17.8983C 13.3276 17.8983 13.0163 17.9356 12.7248 18.0079C 11.4423 18.3249 10.5271 19.3085 10.0607 19.9256L 9.13099 19.7863C 8.86774 19.0577 8.28292 17.8512 7.15198 17.1714C 6.50958 16.7869 5.72711 16.5923 4.82683 16.5923C 4.4771 16.5923 4.15974 16.6218 3.90852 16.6567L 3.34669 15.9028C 3.67965 15.2019 4.12494 13.9369 3.8059 12.6643C 3.48917 11.3879 2.50052 10.4767 1.87857 10.0126L 2.01863 9.08694C 2.75058 8.82422 3.9622 8.24443 4.6449 7.11869C 5.3258 5.99358 5.27465 4.65568 5.16475 3.88975L 5.92075 3.33227C 6.45262 3.5806 7.31556 3.89821 8.2555 3.89821C 8.57464 3.89821 8.88525 3.86087 9.17919 3.788C 10.4598 3.47103 11.3739 2.4886 11.8427 1.86915L 12.7711 2.00844C 13.0344 2.73767 13.6178 3.94358 14.7483 4.62089C 15.3919 5.00777 16.1751 5.20375 17.0759 5.20375C 17.4264 5.20375 17.7436 5.17297 17.9954 5.1387L 18.5561 5.89142C 18.2244 6.59231 17.7784 7.85786 18.0963 9.13188C 18.4136 10.4083 19.404 11.3201 20.0261 11.7847L 19.886 12.7082Z"/>
<path id="path3_fill" d="M 6.4885 0.609935C 5.79853 0.196507 5.03715 1.74292e-07 4.28538 1.74292e-07C 2.83403 1.74292e-07 1.41812 0.734629 0.612865 2.0629C -0.60466 4.07695 0.0479782 6.69363 2.07318 7.90683C 2.76315 8.32142 3.52453 8.51857 4.27631 8.51857C 5.72702 8.51857 7.14357 7.7833 7.94766 6.45566C 9.16582 4.44289 8.51318 1.82557 6.4885 0.609935ZM 6.39949 5.52759C 5.94639 6.27428 5.15306 6.72028 4.2762 6.72028C 3.83028 6.72028 3.3909 6.59791 3.0052 6.36714C 1.83872 5.66688 1.45946 4.15172 2.16198 2.99045C 2.61455 2.24503 3.40788 1.79839 4.2858 1.79839C 4.73172 1.79839 5.17226 1.92013 5.55448 2.14984C 6.72285 2.85179 7.10138 4.36684 6.39949 5.52759Z"/>
</defs>
</svg>
