<svg width="90" height="90" viewBox="0 0 90 90" version="1.1" xmlns="http://www.w3.org/2000/svg" xmlns:xlink="http://www.w3.org/1999/xlink">
<title>module-tags</title>
<desc>Created using Figma</desc>
<g id="Canvas" transform="translate(-422 2219)">
<clipPath id="clip-0" clip-rule="evenodd">
<path d="M 422 -2219L 512 -2219L 512 -2129L 422 -2129L 422 -2219Z" fill="#FFFFFF"/>
</clipPath>
<g id="module-tags" clip-path="url(#clip-0)">
<g id="tag">
<g id="Group">
<g id="Vector">
<use xlink:href="#path0_fill" transform="translate(453.394 -2183.81)" fill="#66E698"/>
</g>
<g id="Vector">
<use xlink:href="#path1_fill" transform="translate(446 -2194)" fill="#FFFFFF"/>
</g>
<g id="Vector">
<use xlink:href="#path2_fill" transform="translate(476.345 -2189.32)" fill="#FFFFFF"/>
</g>
</g>
</g>
</g>
</g>
<defs>
<path id="path0_fill" d="M 23.1601 10.1477L 14.2799 1.26389L 15.5433 -2.53826e-07L 24.4235 8.88383L 23.1601 10.1477ZM 18.4003 14.9094L 9.52015 6.02568L 10.7835 4.76179L 19.6638 13.6455L 18.4003 14.9094ZM 13.6406 19.671L 4.76038 10.7872L 6.02385 9.52323L 14.9041 18.4071L 13.6406 19.671ZM 8.88032 24.4331L -2.85439e-07 15.5492L 1.26347 14.2852L 10.1438 23.1691L 8.88032 24.4331Z"/>
<path id="path1_fill" d="M 40.9281 1.08057C 40.2336 0.383639 39.3095 -2.22057e-10 38.3148 -2.22057e-10L 26.293 0.0370817C 25.3152 0.040114 24.3965 0.422454 23.7063 1.11375L 1.08249 23.7462C -0.960067 25.9662 0.388448 28.2503 1.08249 28.9443L 13.0673 40.934C 15.297 42.9384 17.5697 41.6283 18.2633 40.934L 40.8867 18.3014C 41.5777 17.6101 41.9599 16.691 41.9629 15.7133L 42 3.68659C 42.0031 2.70289 41.6222 1.77758 40.9281 1.08057ZM 40.1759 15.7082C 40.1747 16.2101 39.9783 16.6822 39.6232 17.0375L 16.9999 39.67C 16.287 40.3832 15.0436 40.3832 14.3308 39.67L 2.34596 27.6803C 1.98959 27.3237 1.30048 26.0696 2.34596 25.0101L 24.9702 2.37773C 25.3245 2.02242 25.7965 1.82601 26.2982 1.8248L 38.3261 1.78772C 38.8314 1.78772 39.3055 1.98499 39.6624 2.34273C 40.0189 2.70064 40.2148 3.17603 40.213 3.68139L 40.1759 15.7082Z"/>
<path id="path2_fill" d="M 3.48868 -8.98968e-08C 1.56191 -8.98968e-08 -9.9375e-07 1.56254 -9.9375e-07 3.49009C -9.9375e-07 5.41765 1.56191 6.98019 3.48868 6.98019C 5.41545 6.98019 6.97736 5.41765 6.97736 3.49009C 6.97736 1.56254 5.41545 -8.98968e-08 3.48868 -8.98968e-08ZM 3.48868 5.22652C 2.53006 5.22652 1.75304 4.44911 1.75304 3.49009C 1.75304 2.53108 2.53014 1.75367 3.48868 1.75367C 4.44722 1.75367 5.22432 2.53108 5.22432 3.49009C 5.22432 4.44911 4.44722 5.22652 3.48868 5.22652Z"/>
</defs>
</svg>
