<svg width="90" height="90" viewBox="0 0 90 90" version="1.1" xmlns="http://www.w3.org/2000/svg" xmlns:xlink="http://www.w3.org/1999/xlink">
<g id="Canvas" fill="none">
<g id="module-analytics-offers" clip-path="url(#clip0)">
<g id="module-offers" clip-path="url(#clip1)">
<g id="deals">
<g id="Group">
<g id="Group_2">
<g id="Vector">
<path d="M 27.402 10.4043L 26.5595 1.08859L 26.5589 1.08761C 26.5329 0.79 26.394 0.507943 26.1773 0.3112C 25.9622 0.112881 25.6704 -0.000978044 25.372 6.33051e-06C 25.2883 6.33051e-06 25.2045 0.00853758 25.1223 0.0254688L 15.9239 1.91087C 15.5167 1.99422 15.2549 2.39026 15.3391 2.7957C 15.4223 3.2006 15.8206 3.46126 16.2273 3.37844L 24.0446 1.77615L 0.15838 32.3914C -0.0968951 32.7181 -0.037179 33.1888 0.291324 33.4425C 0.618772 33.6961 1.09169 33.6372 1.34643 33.3107L 25.1985 2.73972L 25.9036 10.538C 25.9407 10.9499 26.3068 11.254 26.72 11.2171C 27.1342 11.1801 27.4396 10.8157 27.402 10.4043Z" transform="translate(32.37 16.2)" fill="#66E698"/>
</g>
</g>
</g>
<g id="Group_3">
<g id="Group_4">
<g id="Vector_2">
<path d="M 8.02491 2.20299e-08C 3.59125 2.20299e-08 2.32575e-09 3.5761 2.32575e-09 7.98853C 2.32575e-09 12.4 3.59125 15.978 8.02491 15.978C 12.4561 15.978 16.0478 12.3999 16.0478 7.98853C 16.0478 3.57663 12.4561 2.20299e-08 8.02491 2.20299e-08ZM 8.02491 14.48C 4.42964 14.48 1.50449 11.5675 1.50449 7.98846C 1.50449 4.40987 4.42971 1.49789 8.02491 1.49789C 11.6191 1.49789 14.5434 4.40941 14.5434 7.98846C 14.5434 11.5681 11.6191 14.48 8.02491 14.48Z" transform="translate(28.2 17.8438)" fill="white"/>
</g>
</g>
</g>
<g id="Group_5">
<g id="Group_6">
<g id="Vector_3">
<path d="M 8.02491 6.72912e-07C 3.59125 6.72912e-07 -3.70108e-07 3.5761 -3.70108e-07 7.98853C -3.70108e-07 12.4 3.59125 15.978 8.02491 15.978C 12.4561 15.978 16.0478 12.4 16.0478 7.98853C 16.0478 3.57603 12.4561 6.72912e-07 8.02491 6.72912e-07ZM 8.02491 14.48C 4.42971 14.48 1.5045 11.5675 1.5045 7.98846C 1.5045 4.40987 4.42971 1.49789 8.02491 1.49789C 11.6191 1.49789 14.5434 4.40941 14.5434 7.98846C 14.5434 11.5675 11.6191 14.48 8.02491 14.48Z" transform="translate(45.7523 33.8218)" fill="white"/>
</g>
</g>
</g>
</g>
</g>
<g id="part-analytics" clip-path="url(#clip2)">
<g id="analytics">
<g id="Group_7">
<g id="Group_8">
<g id="Vector_4">
<path d="M 5.79277 0L 1.52441 0C 0.679297 0.00363559 0.00361328 0.683491 0 1.53324L 0 9.82608C 0.00371094 10.6764 0.679297 11.3555 1.52441 11.3592L 5.79277 11.3592C 6.63789 11.3556 7.31357 10.6764 7.31719 9.82608L 7.31719 1.53324C 7.31357 0.683491 6.63789 0.00373385 5.79277 0ZM 5.79277 9.82608L 1.52441 9.82608L 1.52441 1.53324L 5.79277 1.53324L 5.79277 9.82608Z" transform="translate(25.6097 57.238)" fill="white"/>
</g>
</g>
</g>
<g id="Group_9">
<g id="Group_10">
<g id="Vector_5">
<path d="M 5.79277 0L 1.52441 0C 0.679297 0.00363559 0.00361328 0.683491 0 1.53324L 0 11.9588C 0.00361328 12.8092 0.679297 13.4883 1.52441 13.492L 5.79277 13.492C 6.6373 13.4883 7.31357 12.8092 7.31719 11.9588L 7.31719 1.53324C 7.31357 0.683491 6.6373 0.00373384 5.79277 0ZM 5.79277 11.9588L 1.52441 11.9588L 1.52441 1.53324L 5.79277 1.53324L 5.79277 11.9588Z" transform="translate(35.9756 55.1055)" fill="white"/>
</g>
</g>
</g>
<g id="Group_11">
<g id="Group_12">
<g id="Vector_6">
<path d="M 5.79277 0L 1.52441 0C 0.679297 0.00363559 0.00361328 0.68349 0 1.53314L 0 4.7043C 0.00361328 5.55464 0.679297 6.2338 1.52441 6.23744L 5.79277 6.23744C 6.6373 6.2338 7.31357 5.55464 7.31719 4.7043L 7.31719 1.53314C 7.31357 0.683391 6.6373 0.00294777 5.79277 0ZM 5.65869 4.64014L 1.52441 4.7043L 1.52441 1.53314L 5.65869 1.53314L 5.65869 4.64014Z" transform="translate(46.3413 62.3599)" fill="white"/>
</g>
</g>
</g>
<g id="Group_13">
<g id="Group_14">
<g id="Vector_7">
<path d="M 5.79277 0L 1.52441 0C 0.679295 0.00363559 0.00361328 0.68349 0 1.53314L 0 11.0635C 0.00371094 11.9144 0.679295 12.5936 1.52441 12.5973L 5.79277 12.5973C 6.6373 12.5937 7.31357 11.9145 7.31719 11.0642L 7.31719 1.53314C 7.31357 0.683392 6.6373 0.00363559 5.79277 0ZM 5.79277 11.0635L 1.52441 11.0635L 1.52441 6L 5.79277 6L 5.79277 11.0635ZM 5.79277 4.3598L 1.52441 4.3598L 1.52441 1.53314L 5.79277 1.53314L 5.79277 4.3598Z" transform="translate(56.7072 56)" fill="white"/>
</g>
</g>
</g>
<g id="Group_15">
<g id="Group_16">
<g id="Vector_8">
<path d="M 38.2866 4.95452e-07L 0.713426 4.95452e-07C 0.319617 4.95452e-07 0 0.448172 0 0.999628C 0 1.55183 0.319617 2 0.713426 2L 38.2866 2C 38.6804 2 39 1.55183 39 0.999628C 39 0.448172 38.6804 4.95452e-07 38.2866 4.95452e-07Z" transform="translate(25 71)" fill="white"/>
</g>
</g>
</g>
</g>
</g>
</g>
</g>
<defs>

<clipPath id="clip0">
<rect width="90" height="90" fill="white"/>
</clipPath>
<clipPath id="clip1">
<rect width="72" height="72" fill="white" transform="translate(9 -3)"/>
</clipPath>
<clipPath id="clip2">
<rect width="50" height="19.2771" fill="white" transform="translate(20 54)"/>
</clipPath>

</defs>
</svg>

