<svg width="90" height="90" viewBox="0 0 90 90" version="1.1" xmlns="http://www.w3.org/2000/svg" xmlns:xlink="http://www.w3.org/1999/xlink">
<title>module-analytics</title>
<desc>Created using Figma</desc>
<g id="Canvas" transform="translate(-422 2219)">
<clipPath id="clip-0" clip-rule="evenodd">
<path d="M 422 -2219L 512 -2219L 512 -2129L 422 -2129L 422 -2219Z" fill="#FFFFFF"/>
</clipPath>
<g id="module-analytics" clip-path="url(#clip-0)">
<g id="analytics">
<g id="Group">
<g id="Group">
<g id="Vector">
<use xlink:href="#path0_fill" transform="translate(448.097 -2195)" fill="#66E698"/>
</g>
</g>
</g>
<g id="Group">
<g id="Group">
<g id="Vector">
<use xlink:href="#path1_fill" transform="translate(442.61 -2163.73)" fill="#FFFFFF"/>
</g>
</g>
</g>
<g id="Group">
<g id="Group">
<g id="Vector">
<use xlink:href="#path2_fill" transform="translate(452.976 -2169.86)" fill="#FFFFFF"/>
</g>
</g>
</g>
<g id="Group">
<g id="Group">
<g id="Vector">
<use xlink:href="#path3_fill" transform="translate(463.341 -2176.61)" fill="#FFFFFF"/>
</g>
</g>
</g>
<g id="Group">
<g id="Group">
<g id="Vector">
<use xlink:href="#path4_fill" transform="translate(473.707 -2183.97)" fill="#FFFFFF"/>
</g>
</g>
</g>
<g id="Group">
<g id="Group">
<g id="Vector">
<use xlink:href="#path5_fill" transform="translate(484.073 -2194.4)" fill="#FFFFFF"/>
</g>
</g>
</g>
<g id="Group">
<g id="Group">
<g id="Vector">
<use xlink:href="#path6_fill" transform="translate(442 -2154.53)" fill="#FFFFFF"/>
</g>
</g>
</g>
</g>
</g>
</g>
<defs>
<path id="path0_fill" d="M 22.1118 0.883432C 21.8612 0.615283 21.5008 0.450994 21.127 0.432521L 21.1263 0.432521L 12.9299 0.00126227C 12.425 -0.0250712 11.9953 0.363838 11.9684 0.871837C 11.9415 1.37915 12.3299 1.81178 12.8336 1.83812L 19.1075 2.16886L 0.386073 15.4926C -0.0261335 15.7865 -0.123692 16.3601 0.168398 16.7748C 0.459804 17.1901 1.03061 17.2883 1.4434 16.9945L 20.4093 3.49516L 19.3319 9.98006C 19.2484 10.4801 19.585 10.9549 20.083 11.039C 20.5806 11.123 21.0526 10.7843 21.1361 10.2837L 22.4892 2.13987L 22.4892 2.138C 22.5026 2.05645 22.5099 1.97293 22.5093 1.88951C 22.5113 1.51534 22.3649 1.14912 22.1118 0.883432Z"/>
<path id="path1_fill" d="M 5.79277 2.3989e-07L 1.52441 2.3989e-07C 0.679297 0.00363583 0.00361328 0.683491 2.98023e-09 1.53324L 2.98023e-09 5.82608C 0.00371094 6.67641 0.679297 7.35548 1.52441 7.35921L 5.79277 7.35921C 6.63789 7.35558 7.31357 6.67641 7.31719 5.82608L 7.31719 1.53324C 7.31357 0.683491 6.63789 0.00373409 5.79277 2.3989e-07ZM 5.48789 5.51921L 1.82939 5.51921L 1.82939 1.8399L 5.48789 1.8399L 5.48789 5.51921Z"/>
<path id="path2_fill" d="M 5.79277 9.59561e-08L 1.52441 9.59561e-08C 0.679297 0.00363568 0.00361322 0.683491 -5.96046e-08 1.53324L -5.96046e-08 11.9588C 0.00361322 12.8092 0.679297 13.4883 1.52441 13.492L 5.79277 13.492C 6.6373 13.4883 7.31357 12.8092 7.31719 11.9588L 7.31719 1.53324C 7.31357 0.683491 6.6373 0.00373394 5.79277 9.59561e-08ZM 5.48779 11.652L 1.8293 11.652L 1.8293 1.8399L 5.48779 1.8399L 5.48779 11.652Z"/>
<path id="path3_fill" d="M 5.79277 0L 1.52441 0C 0.679297 0.00363559 0.00361364 0.68349 3.57628e-07 1.53314L 3.57628e-07 18.7043C 0.00361364 19.5546 0.679297 20.2338 1.52441 20.2374L 5.79277 20.2374C 6.6373 20.2338 7.31358 19.5546 7.31719 18.7043L 7.31719 1.53314C 7.31358 0.683392 6.6373 0.00294777 5.79277 0ZM 5.48799 18.3975L 1.82949 18.3975L 1.82949 1.8399L 5.48799 1.8399L 5.48799 18.3975Z"/>
<path id="path4_fill" d="M 5.79277 7.07677e-07L 1.52441 7.07677e-07C 0.679296 0.00363629 0.00361395 0.683491 6.67572e-07 1.53314L 6.67572e-07 26.0635C 0.0037116 26.9144 0.679296 27.5936 1.52441 27.5973L 5.79277 27.5973C 6.6373 27.5937 7.31357 26.9145 7.31719 26.0642L 7.31719 1.53314C 7.31357 0.683392 6.6373 0.00363629 5.79277 7.07677e-07ZM 5.48789 25.7573L 1.8294 25.7573L 1.8294 9.1997L 5.48789 9.1997L 5.48789 25.7573ZM 5.48789 7.3598L 1.8294 7.3598L 1.8294 1.84059L 5.48789 1.84059L 5.48789 7.3598Z"/>
<path id="path5_fill" d="M 5.79277 -1.04952e-07L 1.52441 -1.04952e-07C 0.679296 0.00363548 0.00361426 0.68349 9.77516e-07 1.53314L 9.77516e-07 36.4896C 0.00361426 37.34 0.679296 38.0191 1.52441 38.0228L 5.79277 38.0228C 6.63731 38.0192 7.31357 37.34 7.31719 36.4897L 7.31719 1.53314C 7.31348 0.683392 6.63731 0.00363548 5.79277 -1.04952e-07ZM 5.48779 36.1823L 1.8293 36.1823L 1.8293 12.2654L 5.48779 12.2654L 5.48779 36.1823ZM 5.48779 10.4255L 1.8293 10.4255L 1.8293 1.8399L 5.48779 1.8399L 5.48779 10.4255Z"/>
<path id="path6_fill" d="M 49.0854 4.55792e-07L 0.914648 4.55792e-07C 0.409766 4.55792e-07 0 0.412296 0 0.919608C 0 1.42761 0.409766 1.8399 0.914648 1.8399L 49.0854 1.8399C 49.5902 1.8399 50 1.42761 50 0.919608C 50 0.412296 49.5902 4.55792e-07 49.0854 4.55792e-07Z"/>
</defs>
</svg>
