<svg width="90" height="90" viewBox="0 0 90 90" version="1.1" xmlns="http://www.w3.org/2000/svg" xmlns:xlink="http://www.w3.org/1999/xlink">
<title>module-administrators</title>
<desc>Created using Figma</desc>
<g id="Canvas" transform="translate(-422 2219)">
<clipPath id="clip-0" clip-rule="evenodd">
<path d="M 422 -2219L 512 -2219L 512 -2129L 422 -2129L 422 -2219Z" fill="#FFFFFF"/>
</clipPath>
<g id="module-administrators" clip-path="url(#clip-0)">
<g id="administrations">
<g id="Group">
<g id="Group">
<g id="Vector">
<use xlink:href="#path0_fill" transform="translate(440 -2168.1)" fill="#66E698"/>
</g>
</g>
</g>
<g id="Group">
<g id="Group">
<g id="Vector">
<use xlink:href="#path1_fill" transform="translate(458.409 -2164.38)" fill="#66E698"/>
</g>
</g>
</g>
<g id="Group">
<g id="Group">
<g id="Vector">
<use xlink:href="#path2_fill" transform="translate(452.273 -2201)" fill="#FFFFFF"/>
</g>
</g>
</g>
<g id="Group">
<g id="Group">
<g id="Vector">
<use xlink:href="#path3_fill" transform="translate(476.818 -2168.1)" fill="#66E698"/>
</g>
</g>
</g>
<g id="Group">
<g id="Group">
<g id="Vector">
<use xlink:href="#path4_fill" transform="translate(458.748 -2195.86)" fill="#FFFFFF"/>
</g>
</g>
</g>
<g id="Group">
<g id="Group">
<g id="Vector">
<use xlink:href="#path5_fill" transform="translate(466.116 -2167.17)" fill="#FFFFFF"/>
</g>
</g>
</g>
<g id="Group">
<g id="Group">
<g id="Vector">
<use xlink:href="#path6_fill" transform="translate(466.116 -2170.27)" fill="#FFFFFF"/>
</g>
</g>
</g>
<g id="Group">
<g id="Group">
<g id="Vector">
<use xlink:href="#path7_fill" transform="translate(478.951 -2168.71)" fill="#FFFFFF"/>
</g>
</g>
</g>
<g id="Group">
<g id="Group">
<g id="Vector">
<use xlink:href="#path8_fill" transform="translate(476.978 -2171.09)" fill="#FFFFFF"/>
</g>
</g>
</g>
<g id="Group">
<g id="Group">
<g id="Vector">
<use xlink:href="#path9_fill" transform="translate(475.007 -2173.46)" fill="#FFFFFF"/>
</g>
</g>
</g>
<g id="Group">
<g id="Group">
<g id="Vector">
<use xlink:href="#path10_fill" transform="translate(453.275 -2168.64)" fill="#FFFFFF"/>
</g>
</g>
</g>
<g id="Group">
<g id="Group">
<g id="Vector">
<use xlink:href="#path11_fill" transform="translate(455.246 -2171.01)" fill="#FFFFFF"/>
</g>
</g>
</g>
<g id="Group">
<g id="Group">
<g id="Vector">
<use xlink:href="#path12_fill" transform="translate(457.219 -2173.39)" fill="#FFFFFF"/>
</g>
</g>
</g>
<g id="Group">
<g id="Group">
<g id="Vector">
<use xlink:href="#path13_fill" transform="translate(480.974 -2164.4)" fill="#FFFFFF"/>
</g>
</g>
</g>
<g id="Group">
<g id="Group">
<g id="Vector">
<use xlink:href="#path14_fill" transform="translate(462.584 -2160.67)" fill="#FFFFFF"/>
</g>
</g>
</g>
<g id="Group">
<g id="Group">
<g id="Vector">
<use xlink:href="#path15_fill" transform="translate(444.175 -2164.4)" fill="#FFFFFF"/>
</g>
</g>
</g>
</g>
</g>
</g>
<defs>
<path id="path0_fill" d="M 8.59097 1.0939e-06C 3.84635 1.0939e-06 0 3.89045 0 8.68961C 0 13.4888 3.84635 17.3793 8.59097 17.3793C 13.3356 17.3793 17.1819 13.4888 17.1819 8.68961C 17.1819 3.89045 13.3355 1.0939e-06 8.59097 1.0939e-06ZM 8.59097 15.5173C 4.86929 15.5173 1.84096 12.4543 1.84096 8.68972C 1.84096 4.92515 4.86919 1.86212 8.59097 1.86212C 12.3128 1.86212 15.341 4.92515 15.341 8.68972C 15.3409 12.4541 12.3127 15.5173 8.59097 15.5173Z"/>
<path id="path1_fill" d="M 8.59087 -2.60452e-08C 3.84624 -2.60452e-08 5.53609e-07 3.89056 5.53609e-07 8.68972C 5.53609e-07 13.4889 3.84635 17.3793 8.59087 17.3793C 13.3355 17.3793 17.1818 13.4888 17.1818 8.68972C 17.1818 3.89056 13.3355 -2.60452e-08 8.59087 -2.60452e-08ZM 8.59087 15.5174C 4.86919 15.5174 1.84086 12.4544 1.84086 8.68982C 1.84086 4.92536 4.86908 1.86223 8.59087 1.86223C 12.3126 1.86223 15.3409 4.92526 15.3409 8.68982C 15.3409 12.4543 12.3127 15.5174 8.59087 15.5174Z"/>
<path id="path2_fill" d="M 14.7274 -8.54609e-09C 6.59307 -8.54609e-09 -1.09434e-07 6.66982 -1.09434e-07 14.8965C -1.09434e-07 23.1243 6.59297 29.7931 14.7274 29.7931C 22.8618 29.7931 29.4546 23.1243 29.4546 14.8965C 29.4547 6.67003 22.8618 -8.54609e-09 14.7274 -8.54609e-09ZM 14.7274 27.9312C 7.6214 27.9312 1.84096 22.0835 1.84096 14.8966C 1.84096 7.70975 7.6214 1.86212 14.7274 1.86212C 21.8332 1.86212 27.6138 7.70964 27.6138 14.8966C 27.6139 22.0837 21.8334 27.9312 14.7274 27.9312Z"/>
<path id="path3_fill" d="M 8.59097 1.0939e-06C 3.84635 1.0939e-06 -3.86239e-07 3.89056 -3.86239e-07 8.68961C -3.86239e-07 13.4887 3.84635 17.3793 8.59097 17.3793C 13.3356 17.3793 17.1818 13.4888 17.1818 8.68961C 17.1818 3.89045 13.3356 1.0939e-06 8.59097 1.0939e-06ZM 8.59097 15.5173C 4.86929 15.5173 1.84096 12.4543 1.84096 8.68972C 1.84096 4.92515 4.86919 1.86212 8.59097 1.86212C 12.3127 1.86212 15.341 4.92515 15.341 8.68972C 15.341 12.4541 12.3128 15.5173 8.59097 15.5173Z"/>
<path id="path4_fill" d="M 11.5144 8.86958C 12.5736 7.94359 13.2461 6.57796 13.2461 5.0504C 13.2454 2.26111 11.0106 0.000533256 8.25221 -1.4976e-07C 5.49388 0.000639938 3.2591 2.26122 3.25836 5.0505C 3.25836 6.57807 3.93146 7.94348 4.99005 8.86969C 2.05633 10.0608 0.000527744 12.8377 3.99114e-07 16.2757C 3.99114e-07 16.5209 0.0980866 16.7605 0.269368 16.9343C 0.440544 17.1081 0.678061 17.2067 0.921061 17.2067L 15.584 17.2067C 15.8264 17.2067 16.0632 17.1075 16.235 16.9343C 16.4069 16.761 16.5044 16.521 16.5044 16.2757C 16.5038 12.8377 14.4482 10.0607 11.5144 8.86958ZM 6.02281 2.79622C 6.59592 2.21716 7.3784 1.86276 8.2521 1.86201C 9.12528 1.86265 9.90775 2.21705 10.4814 2.79622C 11.0534 3.37657 11.4043 4.1674 11.405 5.05061C 11.4044 5.93446 11.0534 6.72529 10.4814 7.30553C 9.90765 7.8846 9.12528 8.23899 8.2521 8.23974C 7.3784 8.2391 6.59592 7.88406 6.02281 7.30553C 5.45085 6.72518 5.09995 5.93436 5.09921 5.05061C 5.09995 4.1674 5.45095 3.37667 6.02281 2.79622ZM 1.91954 15.3446C 2.12625 14.0146 2.7693 12.9624 3.71926 12.0004C 4.88205 10.8254 6.47885 10.1016 8.25221 10.101C 10.025 10.1016 11.6223 10.8254 12.7852 12.0004C 13.7351 12.9624 14.3788 14.0145 14.5855 15.3446L 1.91954 15.3446Z"/>
<path id="path5_fill" d="M 0.920428 1.86201C 1.42877 1.86201 1.84086 1.44519 1.84086 0.931007C 1.84086 0.416826 1.42877 0 0.920428 0C 0.41209 0 0 0.416826 0 0.931007C 0 1.44519 0.41209 1.86201 0.920428 1.86201Z"/>
<path id="path6_fill" d="M 0.920428 1.86201C 1.42877 1.86201 1.84086 1.44519 1.84086 0.931007C 1.84086 0.416826 1.42877 0 0.920428 0C 0.41209 0 0 0.416826 0 0.931007C 0 1.44519 0.41209 1.86201 0.920428 1.86201Z"/>
<path id="path7_fill" d="M 0.920429 1.86201C 1.42877 1.86201 1.84086 1.44519 1.84086 0.931008C 1.84086 0.416827 1.42877 0 0.920429 0C 0.412091 0 0 0.416827 0 0.931008C 0 1.44519 0.412091 1.86201 0.920429 1.86201Z"/>
<path id="path8_fill" d="M 0.920428 1.86201C 1.42877 1.86201 1.84085 1.44519 1.84085 0.931007C 1.84085 0.416826 1.42877 0 0.920428 0C 0.41209 0 0 0.416826 0 0.931007C 0 1.44519 0.41209 1.86201 0.920428 1.86201Z"/>
<path id="path9_fill" d="M 0.920427 1.86201C 1.42876 1.86201 1.84086 1.44519 1.84086 0.931008C 1.84086 0.416827 1.42876 0 0.920427 0C 0.412089 0 0 0.416827 0 0.931008C 0 1.44519 0.412089 1.86201 0.920427 1.86201Z"/>
<path id="path10_fill" d="M 0.920427 1.86201C 1.42877 1.86201 1.84086 1.44519 1.84086 0.931008C 1.84086 0.416827 1.42877 0 0.920427 0C 0.412089 0 0 0.416827 0 0.931008C 0 1.44519 0.412089 1.86201 0.920427 1.86201Z"/>
<path id="path11_fill" d="M 0.920428 1.86201C 1.42877 1.86201 1.84085 1.44519 1.84085 0.931006C 1.84085 0.416825 1.42877 0 0.920428 0C 0.41209 0 0 0.416825 0 0.931006C 0 1.44519 0.41209 1.86201 0.920428 1.86201Z"/>
<path id="path12_fill" d="M 0.920428 1.86201C 1.42877 1.86201 1.84085 1.44519 1.84085 0.931006C 1.84085 0.416825 1.42877 0 0.920428 0C 0.41209 0 0 0.416825 0 0.931006C 0 1.44519 0.41209 1.86201 0.920428 1.86201Z"/>
<path id="path13_fill" d="M 8.81117 6.97642C 8.52028 6.10313 7.91584 5.38239 7.14877 4.88472C 7.04688 4.8189 6.9334 4.76684 6.82656 4.70784C 7.17081 4.21999 7.37763 3.62727 7.37816 2.98174C 7.37753 1.33448 6.05821 0.000532416 4.4303 -9.89718e-07C 2.80175 0.000639098 1.48297 1.33448 1.48245 2.98174C 1.48308 3.62663 1.69054 4.22009 2.03405 4.70784C 1.92615 4.76684 1.81372 4.8189 1.71184 4.88472C 0.944764 5.38249 0.33969 6.10312 0.0482796 6.97652C -0.113721 7.46384 0.145206 7.99202 0.626988 8.15589C 1.10877 8.31975 1.63095 8.05785 1.79295 7.57053C 1.93164 7.15148 2.24393 6.75175 2.70599 6.45144C 3.16552 6.15284 3.76522 5.96241 4.42978 5.96295C 5.09434 5.96231 5.69382 6.15284 6.15356 6.45144C 6.61562 6.75121 6.92854 7.15159 7.0666 7.57053C 7.22924 8.05785 7.75078 8.31964 8.23257 8.15589C 8.71424 7.99117 8.97317 7.46374 8.81117 6.97642ZM 4.43041 4.10072C 3.81921 4.09954 3.32457 3.59793 3.32341 2.98099C 3.32457 2.36214 3.81921 1.86244 4.43041 1.86127C 5.04097 1.86244 5.53625 2.36278 5.53741 2.98099C 5.53614 3.59857 5.04033 4.09944 4.43041 4.10072Z"/>
<path id="path14_fill" d="M 8.81106 6.97642C 8.5206 6.10313 7.91563 5.38249 7.14855 4.88472C 7.04614 4.8189 6.93319 4.76684 6.82582 4.70784C 7.1707 4.21999 7.37742 3.62727 7.37816 2.98174C 7.37753 1.33448 6.05822 0.000532052 4.4303 -1.35435e-06C 2.80176 0.000638733 1.48244 1.33448 1.48244 2.98174C 1.48244 3.62663 1.69053 4.2201 2.03405 4.70795C 1.92615 4.76694 1.81372 4.819 1.71184 4.88482C 0.944764 5.3826 0.33969 6.10323 0.0482789 6.97653C -0.113721 7.46385 0.145205 7.99202 0.626987 8.15589C 1.10877 8.31975 1.63095 8.05785 1.79295 7.57053C 1.93164 7.15148 2.24393 6.75175 2.70599 6.45144C 3.16552 6.15284 3.76522 5.96241 4.42978 5.96295C 5.09434 5.96231 5.69382 6.15284 6.15356 6.45144C 6.61572 6.75121 6.92865 7.15159 7.06661 7.57053C 7.22924 8.05785 7.75078 8.31964 8.23256 8.15589C 8.71414 7.99117 8.97306 7.46363 8.81106 6.97642ZM 4.4302 4.10082C 3.819 4.09965 3.32435 3.59804 3.32319 2.9811C 3.32435 2.36224 3.819 1.86255 4.4302 1.86137C 5.04076 1.86255 5.53604 2.36288 5.5372 2.9811C 5.53593 3.59857 5.04076 4.09944 4.4302 4.10082Z"/>
<path id="path15_fill" d="M 8.81106 6.97642C 8.5206 6.10313 7.91552 5.38239 7.14855 4.88472C 7.04614 4.8189 6.93319 4.76684 6.82582 4.70784C 7.1707 4.21999 7.37742 3.62727 7.37816 2.98174C 7.37753 1.33448 6.05822 0.000532416 4.4303 -9.89718e-07C 2.80176 0.000639098 1.48245 1.33448 1.48245 2.98174C 1.48245 3.62663 1.69054 4.22009 2.03405 4.70784C 1.92615 4.76684 1.81372 4.8189 1.71184 4.88472C 0.944764 5.38249 0.339689 6.10312 0.0482783 6.97652C -0.113722 7.46384 0.145204 7.99202 0.626986 8.15589C 1.10877 8.31975 1.63095 8.05785 1.79295 7.57053C 1.93164 7.15148 2.24393 6.75175 2.70599 6.45144C 3.16552 6.15284 3.76522 5.96241 4.42977 5.96295C 5.09433 5.96231 5.69382 6.15284 6.15356 6.45144C 6.61562 6.75121 6.92855 7.15159 7.0666 7.57053C 7.22924 8.05785 7.75078 8.31964 8.23256 8.15589C 8.71414 7.99117 8.97306 7.46374 8.81106 6.97642ZM 4.43009 4.10072C 3.8189 4.09954 3.32425 3.59793 3.32309 2.98099C 3.32425 2.36214 3.8189 1.86244 4.43009 1.86127C 5.04065 1.86244 5.53593 2.36278 5.53709 2.98099C 5.53593 3.59857 5.04065 4.09944 4.43009 4.10072Z"/>
</defs>
</svg>
