<svg width="90" height="90" viewBox="0 0 90 90" version="1.1" xmlns="http://www.w3.org/2000/svg" xmlns:xlink="http://www.w3.org/1999/xlink">
<title>module-visitors</title>
<desc>Created using Figma</desc>
<g id="Canvas" transform="translate(-422 2219)">
<clipPath id="clip-0" clip-rule="evenodd">
<path d="M 422 -2219L 512 -2219L 512 -2129L 422 -2129L 422 -2219Z" fill="#FFFFFF"/>
</clipPath>
<g id="module-visitors" clip-path="url(#clip-0)">
<g id="visitors">
<g id="Group">
<g id="Group">
<g id="Vector">
<use xlink:href="#path0_fill" transform="translate(459.726 -2199)" fill="#66E698"/>
</g>
</g>
</g>
<g id="Group">
<g id="Group">
<g id="Vector">
<use xlink:href="#path1_fill" transform="translate(456.488 -2182.87)" fill="#66E698"/>
</g>
</g>
</g>
<g id="Group">
<g id="Group">
<g id="Vector">
<use xlink:href="#path2_fill" transform="translate(445.15 -2190.13)" fill="#FFFFFF"/>
</g>
</g>
</g>
<g id="Group">
<g id="Group">
<g id="Vector">
<use xlink:href="#path3_fill" transform="translate(442 -2177.29)" fill="#FFFFFF"/>
</g>
</g>
</g>
<g id="Group">
<g id="Group">
<g id="Vector">
<use xlink:href="#path4_fill" transform="translate(477.453 -2190.13)" fill="#FFFFFF"/>
</g>
</g>
</g>
<g id="Group">
<g id="Group">
<g id="Vector">
<use xlink:href="#path5_fill" transform="translate(475.888 -2177.28)" fill="#FFFFFF"/>
</g>
</g>
</g>
</g>
</g>
</g>
<defs>
<path id="path0_fill" d="M 7.27362 0C 3.26772 0 6.0074e-07 3.25787 6.0074e-07 7.25394C 6.0074e-07 11.25 3.26772 14.5177 7.27362 14.5177C 11.2795 14.5177 14.5472 11.2598 14.5472 7.26378C 14.5472 3.26772 11.2795 0 7.27362 0ZM 7.27362 12.9134C 4.15354 12.9134 1.62402 10.3839 1.62402 7.26378C 1.62402 4.1437 4.15354 1.61417 7.27362 1.61417C 10.3937 1.61417 12.9232 4.1437 12.9232 7.26378C 12.9232 10.374 10.3839 12.9134 7.27362 12.9134Z"/>
<path id="path1_fill" d="M 13.7402 -6.0074e-07L 7.27362 -6.0074e-07C 3.26772 -6.0074e-07 -3.0037e-07 3.25787 -3.0037e-07 7.25394L -3.0037e-07 19.3504L 3.22835 19.3504L 3.22835 33.8681L 17.7658 33.8681L 17.7658 19.3504L 20.9941 19.3504L 20.9941 7.25394L 21.0138 7.25394C 21.0138 3.24803 17.7559 -6.0074e-07 13.7402 -6.0074e-07ZM 19.4094 17.7362L 19.3996 17.7362L 16.1713 17.7362L 16.1713 32.2539L 11.3287 32.2539L 11.3287 20.9646L 9.71457 20.9646L 9.71457 32.2539L 4.87205 32.2539L 4.87205 17.7362L 1.6437 17.7362L 1.6437 7.25394C 1.6437 4.1437 4.18307 1.60433 7.29331 1.60433L 13.7598 1.60433C 16.8799 1.60433 19.4094 4.13386 19.4094 7.25394L 19.4094 17.7362Z"/>
<path id="path2_fill" d="M 5.69882 -1.50185e-07C 2.55906 -1.50185e-07 -6.99353e-16 2.55905 -6.99353e-16 5.68898C -6.99353e-16 8.82874 2.55906 11.378 5.69882 11.378C 8.83858 11.378 11.3976 8.82874 11.3976 5.68898C 11.3976 2.54921 8.83858 -1.50185e-07 5.69882 -1.50185e-07ZM 5.69882 9.76378C 3.44488 9.76378 1.61417 7.93307 1.61417 5.68898C 1.61417 3.44488 3.44488 1.61417 5.69882 1.61417C 7.95276 1.61417 9.78346 3.44488 9.78346 5.68898C 9.78346 7.93307 7.95276 9.76378 5.69882 9.76378Z"/>
<path id="path3_fill" d="M 12.8839 15.3839L 12.8839 26.6732L 9.6752 26.6732L 9.6752 18.6122L 8.06102 18.6122L 8.06102 26.6732L 4.04528 26.6732L 4.04528 15.3839L 1.67323 15.3839L 1.61417 6.07283C 1.61417 3.6122 3.66142 1.61417 6.1811 1.61417L 12.8248 1.61417L 12.8248 6.0074e-07L 6.1811 6.0074e-07C 2.77559 0.00984312 0 2.73622 0 6.08268L 0.0688976 16.998L 2.4311 16.998L 2.4311 28.2874L 14.498 28.2874L 14.498 16.998L 16.1122 16.998L 16.1122 15.3839L 12.8839 15.3839Z"/>
<path id="path4_fill" d="M 5.69882 -1.50185e-07C 2.55906 -1.50185e-07 1.20148e-06 2.54921 1.20148e-06 5.68898C 1.20148e-06 8.82874 2.55906 11.378 5.69882 11.378C 8.83858 11.378 11.3976 8.82874 11.3976 5.68898C 11.3976 2.54921 8.83858 -1.50185e-07 5.69882 -1.50185e-07ZM 5.69882 9.76378C 3.44488 9.76378 1.61417 7.93307 1.61417 5.68898C 1.62402 3.44488 3.45473 1.61417 5.69882 1.61417C 7.95276 1.61417 9.78347 3.44488 9.78347 5.68898C 9.78347 7.93307 7.95276 9.76378 5.69882 9.76378Z"/>
<path id="path5_fill" d="M 9.9311 -3.0037e-07L 3.22835 -3.0037e-07L 3.22835 1.61417L 9.9311 1.61417C 12.4508 1.61417 14.498 3.6122 14.498 6.06299L 14.439 15.374L 12.0669 15.374L 12.0669 26.6634L 8.05118 26.6634L 8.05118 18.6024L 6.43701 18.6024L 6.43701 26.6634L 3.22835 26.6634L 3.22835 15.374L -1.20148e-06 15.374L -1.20148e-06 16.9882L 1.61417 16.9882L 1.61417 28.2776L 13.6811 28.2776L 13.6811 16.9882L 16.0433 16.9882L 16.1122 6.07283C 16.1122 2.72638 13.3366 -3.0037e-07 9.9311 -3.0037e-07Z"/>
</defs>
</svg>
