<svg width="90" height="90" viewBox="0 0 90 90" version="1.1" xmlns="http://www.w3.org/2000/svg" xmlns:xlink="http://www.w3.org/1999/xlink">
<title>module-tags</title>
<desc>Created using Figma</desc>
<g id="Canvas" transform="translate(-422 2219)">
<clipPath id="clip-0" clip-rule="evenodd">
<path d="M 422 -2219L 512 -2219L 512 -2129L 422 -2129L 422 -2219Z" fill="#FFFFFF"/>
</clipPath>
<g id="module-tags" clip-path="url(#clip-0)">
<g id="jigsaws">
<g id="Group">
<g id="Group">
<g id="Vector">
<use xlink:href="#path0_fill" transform="translate(442 -2199)" fill="#66E699"/>
</g>
</g>
</g>
<g id="Group">
<g id="Group">
<g id="Vector">
<use xlink:href="#path1_fill" transform="translate(450.769 -2190.15)" fill="#FFFFFF"/>
</g>
</g>
</g>
</g>
</g>
</g>
<defs>
<path id="path0_fill" d="M 17.9048 7.93987C 18.8276 7.93987 19.6945 8.38783 20.2237 9.13812C 20.4078 9.39906 20.74 9.51088 21.0445 9.41459C 21.3492 9.3182 21.5562 9.03578 21.5562 8.71664L 21.5562 0.732132C 21.5562 0.327833 21.228 0 20.8231 0L 0.733134 0C 0.328184 0 1.07249e-09 0.327833 1.07249e-09 0.732132L 1.07249e-09 5.77492C 1.07249e-09 6.17922 0.328184 6.50706 0.733134 6.50706C 1.13808 6.50706 1.46627 6.17922 1.46627 5.77492L 1.46627 1.46426L 20.0899 1.46426L 20.0899 7.07005C 19.4367 6.68635 18.6838 6.47561 17.9047 6.47561C 15.54 6.47561 13.6163 8.39671 13.6163 10.7581C 13.6163 13.1196 15.5401 15.0408 17.9047 15.0408C 18.6838 15.0408 19.4367 14.8299 20.0899 14.4463L 20.0899 20.0521L 12.7764 20.0521C 12.4549 20.0521 12.1709 20.2613 12.0759 20.568C 11.981 20.8749 12.0974 21.2075 12.3628 21.3888C 13.1345 21.9155 13.5952 22.7859 13.5952 23.7173C 13.5952 25.2714 12.3292 26.5356 10.773 26.5356C 9.21684 26.5356 7.95084 25.2714 7.95084 23.7173C 7.95084 22.786 8.41154 21.9154 9.1832 21.3888C 9.4486 21.2076 9.56487 20.8749 9.47002 20.568C 9.37497 20.2613 9.09098 20.0521 8.76955 20.0521L 1.46637 20.0521L 1.46637 8.21546C 1.46637 7.81116 1.13818 7.48333 0.733232 7.48333C 0.328282 7.48333 9.77902e-05 7.81116 9.77902e-05 8.21546L 9.77902e-05 20.7842C 9.77902e-05 21.1885 0.328282 21.5163 0.733232 21.5163L 7.0943 21.5163C 6.70089 22.1719 6.48448 22.9302 6.48448 23.7171C 6.48448 26.0786 8.40821 27.9997 10.7729 27.9997C 13.1375 27.9997 15.0614 26.0786 15.0614 23.7171C 15.0614 22.9302 14.8451 22.1719 14.4516 21.5163L 20.823 21.5163C 21.2279 21.5163 21.5561 21.1885 21.5561 20.7842L 21.5561 12.7998C 21.5561 12.4805 21.3491 12.1982 21.0445 12.1018C 20.74 12.0055 20.4076 12.1172 20.2236 12.3782C 19.6944 13.1286 18.8276 13.5764 17.9047 13.5764C 16.3486 13.5764 15.0826 12.3122 15.0826 10.758C 15.0828 9.20414 16.3488 7.93987 17.9048 7.93987Z"/>
<path id="path1_fill" d="M 40.4981 9.28324C 40.9031 9.28324 41.2312 8.95541 41.2312 8.55111L 41.2312 0.732132C 41.2312 0.327834 40.9031 1.78815e-07 40.4981 1.78815e-07L 20.6156 1.78815e-07C 20.2107 1.78815e-07 19.8824 0.327834 19.8824 0.732132L 19.8824 7.00423C 19.2365 6.61985 18.4915 6.40862 17.7191 6.40862C 15.3747 6.40862 13.4674 8.31331 13.4674 10.6545C 13.4674 12.9958 15.3747 14.9004 17.7191 14.9004C 18.4914 14.9004 19.2363 14.6892 19.8824 14.3048L 19.8824 19.8448L 12.6924 19.8448C 12.3727 19.8448 12.09 20.0515 11.9936 20.3558C 11.897 20.6601 12.0089 20.9918 12.2702 21.1756C 13.012 21.6973 13.4547 22.5479 13.4547 23.451C 13.4547 24.9848 12.2051 26.2326 10.6692 26.2326C 9.13333 26.2326 7.88376 24.9848 7.88376 23.451C 7.88376 22.5479 8.32646 21.6973 9.0682 21.1756C 9.32949 20.9918 9.44146 20.6601 9.34485 20.3558C 9.24833 20.0515 8.96562 19.8448 8.64604 19.8448L 0.733134 19.8448C 0.328184 19.8448 -2.74558e-07 20.1726 -2.74558e-07 20.5769L -2.74558e-07 32.1389C -2.74558e-07 32.5432 0.328184 32.871 0.733134 32.871C 1.13808 32.871 1.46627 32.5432 1.46627 32.1389L 1.46627 21.3093L 6.99964 21.3093C 6.62383 21.951 6.41739 22.6888 6.41739 23.4511C 6.41739 25.7923 8.3247 27.697 10.6691 27.697C 13.0135 27.697 14.9209 25.7923 14.9209 23.4511C 14.9209 22.6887 14.7144 21.951 14.3386 21.3093L 19.8822 21.3093L 19.8822 28.4792L 19.8822 28.5196C 19.8822 28.8407 20.0917 29.1243 20.3989 29.2191C 20.7061 29.314 21.0391 29.1978 21.2207 28.9326C 21.7406 28.1731 22.5954 27.7192 23.5081 27.7181C 25.0419 27.7205 26.289 28.9673 26.289 30.4996C 26.289 32.0319 25.0419 33.2786 23.5081 33.2811C 22.5954 33.2798 21.7406 32.8261 21.2206 32.0665C 21.0393 31.8015 20.7061 31.6853 20.3989 31.7802C 20.0916 31.875 19.8822 32.1586 19.8822 32.4797L 19.8822 32.5201L 19.8822 39.6901L 1.46627 39.6901L 1.46627 34.5795C 1.46627 34.1752 1.13808 33.8474 0.733134 33.8474C 0.328184 33.8474 -2.74558e-07 34.1752 -2.74558e-07 34.5795L -2.74558e-07 40.4222C -2.74558e-07 40.8265 0.328184 41.1544 0.733134 41.1544L 20.6156 41.1544L 40.4982 41.1544C 40.9032 41.1544 41.2313 40.8265 41.2313 40.4222L 41.2313 20.5772L 41.2313 10.9915C 41.2313 10.5872 40.9032 10.2594 40.4982 10.2594C 40.0933 10.2594 39.7651 10.5872 39.7651 10.9915L 39.7651 19.8451L 34.2316 19.8451C 34.6074 19.2034 34.8139 18.4656 34.8139 17.7033C 34.8139 17.6978 34.8135 17.6924 34.8135 17.6868C 34.8135 17.6827 34.8139 17.6786 34.8139 17.6745C 34.8139 15.3333 32.9065 13.4286 30.5622 13.4286C 28.2178 13.4286 26.3105 15.3334 26.3105 17.6745C 26.3105 17.6786 26.3109 17.6827 26.3109 17.6868C 26.3108 17.6923 26.3105 17.6977 26.3105 17.7033C 26.3105 18.4657 26.5169 19.2034 26.8927 19.8451L 21.349 19.8451L 21.349 12.6347C 21.349 12.3136 21.1396 12.03 20.8324 11.9352C 20.5251 11.8403 20.1919 11.9565 20.0105 12.2216C 19.4901 12.9823 18.6336 13.4363 17.7194 13.4363C 16.1835 13.4363 14.934 12.1884 14.934 10.6546C 14.934 9.12084 16.1835 7.87298 17.7194 7.87298C 18.6336 7.87298 19.49 8.32699 20.0105 9.08754C 20.1918 9.35258 20.5249 9.46898 20.8324 9.37396C 21.1396 9.27914 21.349 8.99554 21.349 8.67445L 21.349 1.46407L 39.7654 1.46407L 39.7654 8.55081C 39.765 8.95541 40.0933 9.28324 40.4981 9.28324ZM 21.3487 21.3093L 28.5387 21.3093L 28.5387 21.3094L 28.5792 21.3094C 28.9008 21.3094 29.1847 21.1002 29.2796 20.7934C 29.3747 20.4866 29.2583 20.154 28.9929 19.9727C 28.2348 19.4554 27.7812 18.6017 27.777 17.6875C 27.7856 16.1609 29.0314 14.9215 30.562 14.9215C 32.0926 14.9215 33.3384 16.1609 33.347 17.6875C 33.3427 18.6017 32.8891 19.4554 32.1311 19.9727C 31.8657 20.1539 31.7495 20.4866 31.8443 20.7934C 31.9393 21.1002 32.2233 21.3094 32.5447 21.3094L 32.5852 21.3094L 39.765 21.3094L 39.765 39.6902L 21.3487 39.6902L 21.3487 34.163C 21.9935 34.5391 22.736 34.7457 23.5038 34.7457C 23.5054 34.7457 23.507 34.7456 23.5086 34.7456C 23.5098 34.7456 23.511 34.7457 23.5121 34.7457C 25.8566 34.7457 27.7639 32.841 27.7639 30.4998C 27.7639 28.1586 25.8566 26.2539 23.5121 26.2539C 23.511 26.2539 23.5098 26.254 23.5086 26.254C 23.507 26.254 23.5054 26.2539 23.5038 26.2539C 22.7361 26.2539 21.9936 26.4606 21.3487 26.8366L 21.3487 21.3093Z"/>
</defs>
</svg>
