<svg width="90" height="90" viewBox="0 0 90 90" version="1.1" xmlns="http://www.w3.org/2000/svg" xmlns:xlink="http://www.w3.org/1999/xlink">
<g id="Canvas" fill="none">
<g id="module-analytics-redemptions" clip-path="url(#clip0)">
<g id="module-redemptions" clip-path="url(#clip1)">
<g id="redemptions">
<g id="Group">
<g id="Group_2">
<g id="Vector">
<path d="M 4.64856 1.97528e-07C 2.08 1.97528e-07 3.3722e-07 2.06023 3.3722e-07 4.60234C 3.3722e-07 7.14405 2.07992 9.20558 4.64856 9.20558C 7.21574 9.20558 9.29672 7.14397 9.29672 4.60234C 9.29672 2.06015 7.21574 1.97528e-07 4.64856 1.97528e-07ZM 4.64856 7.82473C 2.85464 7.82473 1.39498 6.37907 1.39498 4.60234C 1.39498 2.8261 2.85472 1.38085 4.64856 1.38085C 6.44249 1.38085 7.90166 2.8261 7.90166 4.60234C 7.90174 6.37907 6.44249 7.82473 4.64856 7.82473Z" transform="translate(40.3523 24.0244)" fill="#66E698"/>
</g>
</g>
</g>
<g id="Group_3">
<g id="Group_4">
<g id="Vector_2">
<path d="M 3.71906 -8.14803e-08C 1.664 -8.14803e-08 9.71987e-07 1.64825 9.71987e-07 3.6817C 9.71987e-07 5.71555 1.66352 7.36428 3.71906 7.36428C 5.77225 7.36428 7.43723 5.71555 7.43723 3.6817C 7.43723 1.64825 5.77234 -8.14803e-08 3.71906 -8.14803e-08ZM 3.71906 5.98352C 2.43734 5.98352 1.39458 4.95065 1.39458 3.6817C 1.39409 2.41315 2.43685 1.38077 3.71906 1.38077C 5.00038 1.38077 6.04225 2.41315 6.04225 3.6817C 6.04225 4.95065 5.00038 5.98352 3.71906 5.98352Z" transform="translate(47.2958 16.2)" fill="#66E698"/>
</g>
</g>
</g>
<g id="Group_5">
<g id="Group_6">
<g id="Vector_3">
<path d="M 38.475 1.96265C 38.0155 1.96265 37.5917 2.07358 37.2149 2.24065C 36.6441 1.51613 35.7571 1.04759 34.7568 1.0467C 34.2395 1.04622 33.7644 1.18246 33.3558 1.38595L 32.0361 2.15966C 31.4635 1.48166 30.606 1.04719 29.6436 1.0467C 29.1265 1.04622 28.6517 1.18246 28.243 1.38595L 23.4932 4.26399C 22.3405 3.92612 17.3341 2.51995 16.3713 2.27933C 15.8883 2.15877 15.4668 2.05974 15.1215 1.98935C 14.9487 1.9544 14.7952 1.92584 14.6588 1.90513C 14.5206 1.8849 14.4055 1.87066 14.2752 1.87018C 14.1748 1.87066 14.0885 1.87989 13.989 1.89137C 13.629 1.93879 13.1168 2.04745 12.5127 2.18725C 11.2781 2.47488 9.70192 2.89236 8.83157 3.12716L 8.83157 1.84113C 8.83157 0.828573 7.99542 -5.82708e-07 6.97297 -5.82708e-07L 1.859 -5.82708e-07C 0.83712 -5.82708e-07 0 0.828492 0 1.84113L 0 16.1097C 0 17.1222 0.83712 17.9508 1.859 17.9508L 6.97208 17.9508C 7.99502 17.9508 8.83067 17.1223 8.83067 16.1097L 8.83067 15.0018C 9.93397 15.2397 12.3833 15.7635 14.9653 16.2887C 16.7115 16.6436 18.5166 16.9989 20.0068 17.2668C 20.7523 17.4003 21.4198 17.5121 21.9652 17.5912C 22.5157 17.6704 22.9267 17.7192 23.2396 17.7206C 23.4832 17.7197 23.7133 17.6736 23.9625 17.6064C 24.4261 17.4771 24.9535 17.2576 25.5572 16.9671C 27.6584 15.9526 30.6763 14.0518 33.5231 12.171C 36.3648 10.2931 39.0226 8.43776 40.3252 7.5498C 41.1414 6.99284 41.6 6.05301 41.6 5.05793C 41.5991 3.34892 40.2018 1.96306 38.475 1.96265ZM 7.43715 16.1096C 7.43715 16.359 7.22403 16.5699 6.97216 16.5699L 1.859 16.5699C 1.60713 16.5699 1.39401 16.359 1.39401 16.1096L 1.39401 1.84113C 1.39401 1.59169 1.60713 1.38085 1.859 1.38085L 6.97208 1.38085C 7.22395 1.38085 7.43707 1.59169 7.43707 1.84113L 7.43707 16.1096L 7.43715 16.1096ZM 39.5362 6.41249C 37.9342 7.50522 34.35 10.0113 30.8807 12.2423C 29.1478 13.3571 27.4426 14.4023 26.0449 15.1605C 25.347 15.5393 24.7243 15.8458 24.226 16.0502C 23.9774 16.1529 23.7597 16.2292 23.5872 16.2767C 23.4157 16.325 23.2869 16.3411 23.2397 16.3402C 23.0876 16.3415 22.685 16.3016 22.1682 16.2255C 20.3364 15.96 16.9086 15.2819 13.9572 14.6726C 12.4804 14.3674 11.1192 14.0798 10.1277 13.8675C 9.55177 13.7447 9.1066 13.6485 8.83019 13.5891L 8.83019 4.55898C 8.96604 4.52216 9.14495 4.47378 9.35945 4.41585C 10.0944 4.21844 11.2162 3.9224 12.222 3.67717C 12.7239 3.55427 13.1986 3.4448 13.5758 3.36697C 13.7639 3.32837 13.9276 3.29787 14.0538 3.27813C 14.1776 3.25742 14.2733 3.25054 14.2743 3.25143C 14.277 3.25094 14.3501 3.25556 14.4494 3.27077C 14.834 3.32781 15.623 3.5105 16.5836 3.76001C 19.479 4.50841 24.0443 5.86207 25.8886 6.41718C 26.5265 6.60772 27.1046 6.89494 27.4833 7.24341C 27.6741 7.41744 27.817 7.60337 27.9132 7.8045C 28.0098 8.00653 28.0638 8.22562 28.0648 8.49262C 28.0643 9.03429 27.8452 9.51861 27.4865 9.87436C 27.1306 10.2255 26.6471 10.441 26.1068 10.4455L 24.3083 10.271L 18.1682 9.49086C 17.786 9.44255 17.436 9.70947 17.3875 10.0874C 17.3389 10.4658 17.6089 10.8119 17.9907 10.8602L 24.1507 11.6431L 26.0574 11.8281L 26.0916 11.8281C 27.9512 11.8272 29.459 10.335 29.4598 8.49294C 29.4607 8.02894 29.3567 7.59406 29.1733 7.21201C 28.8969 6.63717 28.4518 6.19201 27.9493 5.85325C 27.4446 5.51361 26.8751 5.27153 26.2946 5.09661C 26.0164 5.01279 25.6742 4.9102 25.2884 4.79555L 28.8808 2.61614C 29.1262 2.496 29.3777 2.42836 29.6435 2.42787C 30.0942 2.42739 30.5008 2.60045 30.8088 2.88039L 28.9391 3.97814C 28.6081 4.1724 28.4991 4.59627 28.6955 4.92444C 28.8925 5.25211 29.32 5.36028 29.6509 5.16562L 33.9899 2.61752C 34.2367 2.496 34.4896 2.42836 34.7567 2.42787C 35.2379 2.42739 35.6704 2.62577 35.9834 2.94066L 30.9309 5.90811C 30.5995 6.10237 30.4903 6.52624 30.6873 6.8544C 30.8838 7.18208 31.3113 7.29025 31.6422 7.09559L 37.7088 3.53267C 37.9552 3.41252 38.2076 3.34439 38.4743 3.34391C 38.9536 3.34439 39.3826 3.53444 39.6974 3.84651C 40.0116 4.15905 40.2044 4.58341 40.2049 5.0589C 40.2055 5.6365 39.9374 6.14185 39.5362 6.41249Z" transform="translate(24.2 31.8491)" fill="white"/>
</g>
</g>
</g>
</g>
</g>
<g id="part-analytics" clip-path="url(#clip2)">
<g id="analytics">
<g id="Group_7">
<g id="Group_8">
<g id="Vector_4">
<path d="M 5.79277 0L 1.52441 0C 0.679297 0.00363559 0.00361328 0.683491 0 1.53324L 0 9.82608C 0.00371094 10.6764 0.679297 11.3555 1.52441 11.3592L 5.79277 11.3592C 6.63789 11.3556 7.31357 10.6764 7.31719 9.82608L 7.31719 1.53324C 7.31357 0.683491 6.63789 0.00373385 5.79277 0ZM 5.79277 9.82608L 1.52441 9.82608L 1.52441 1.53324L 5.79277 1.53324L 5.79277 9.82608Z" transform="translate(25.6097 57.238)" fill="white"/>
</g>
</g>
</g>
<g id="Group_9">
<g id="Group_10">
<g id="Vector_5">
<path d="M 5.79277 0L 1.52441 0C 0.679297 0.00363559 0.00361328 0.683491 0 1.53324L 0 11.9588C 0.00361328 12.8092 0.679297 13.4883 1.52441 13.492L 5.79277 13.492C 6.6373 13.4883 7.31357 12.8092 7.31719 11.9588L 7.31719 1.53324C 7.31357 0.683491 6.6373 0.00373384 5.79277 0ZM 5.79277 11.9588L 1.52441 11.9588L 1.52441 1.53324L 5.79277 1.53324L 5.79277 11.9588Z" transform="translate(35.9756 55.1055)" fill="white"/>
</g>
</g>
</g>
<g id="Group_11">
<g id="Group_12">
<g id="Vector_6">
<path d="M 5.79277 0L 1.52441 0C 0.679297 0.00363559 0.00361328 0.68349 0 1.53314L 0 4.7043C 0.00361328 5.55464 0.679297 6.2338 1.52441 6.23744L 5.79277 6.23744C 6.6373 6.2338 7.31357 5.55464 7.31719 4.7043L 7.31719 1.53314C 7.31357 0.683391 6.6373 0.00294777 5.79277 0ZM 5.65869 4.64014L 1.52441 4.7043L 1.52441 1.53314L 5.65869 1.53314L 5.65869 4.64014Z" transform="translate(46.3413 62.3599)" fill="white"/>
</g>
</g>
</g>
<g id="Group_13">
<g id="Group_14">
<g id="Vector_7">
<path d="M 5.79277 0L 1.52441 0C 0.679295 0.00363559 0.00361328 0.68349 0 1.53314L 0 11.0635C 0.00371094 11.9144 0.679295 12.5936 1.52441 12.5973L 5.79277 12.5973C 6.6373 12.5937 7.31357 11.9145 7.31719 11.0642L 7.31719 1.53314C 7.31357 0.683392 6.6373 0.00363559 5.79277 0ZM 5.79277 11.0635L 1.52441 11.0635L 1.52441 6L 5.79277 6L 5.79277 11.0635ZM 5.79277 4.3598L 1.52441 4.3598L 1.52441 1.53314L 5.79277 1.53314L 5.79277 4.3598Z" transform="translate(56.7073 56)" fill="white"/>
</g>
</g>
</g>
<g id="Group_15">
<g id="Group_16">
<g id="Vector_8">
<path d="M 38.2866 4.95452e-07L 0.713426 4.95452e-07C 0.319617 4.95452e-07 0 0.448172 0 0.999628C 0 1.55183 0.319617 2 0.713426 2L 38.2866 2C 38.6804 2 39 1.55183 39 0.999628C 39 0.448172 38.6804 4.95452e-07 38.2866 4.95452e-07Z" transform="translate(25 71)" fill="white"/>
</g>
</g>
</g>
</g>
</g>
</g>
</g>
<defs>

<clipPath id="clip0">
<rect width="90" height="90" fill="white"/>
</clipPath>
<clipPath id="clip1">
<rect width="72" height="72" fill="white" transform="translate(9 -3)"/>
</clipPath>
<clipPath id="clip2">
<rect width="50" height="19.2771" fill="white" transform="translate(20 54)"/>
</clipPath>

</defs>
</svg>

