<svg width="90" height="90" viewBox="0 0 90 90" version="1.1" xmlns="http://www.w3.org/2000/svg" xmlns:xlink="http://www.w3.org/1999/xlink">
<title>module-offers</title>
<desc>Created using Figma</desc>
<g id="Canvas" transform="translate(-422 2219)">
<clipPath id="clip-0" clip-rule="evenodd">
<path d="M 422 -2219L 512 -2219L 512 -2129L 422 -2129L 422 -2219Z" fill="#FFFFFF"/>
</clipPath>
<g id="module-offers" clip-path="url(#clip-0)">
<g id="deals">
<g id="Group">
<g id="Group">
<g id="Vector">
<use xlink:href="#path0_fill" transform="translate(451.212 -2195)" fill="#66E698"/>
</g>
</g>
</g>
<g id="Group">
<g id="Group">
<g id="Vector">
<use xlink:href="#path1_fill" transform="translate(446 -2192.95)" fill="#FFFFFF"/>
</g>
</g>
</g>
<g id="Group">
<g id="Group">
<g id="Vector">
<use xlink:href="#path2_fill" transform="translate(467.94 -2172.97)" fill="#FFFFFF"/>
</g>
</g>
</g>
</g>
</g>
</g>
<defs>
<path id="path0_fill" d="M 34.2525 13.0053L 33.1993 1.36074L 33.1987 1.35951C 33.1661 0.9875 32.9925 0.634929 32.7216 0.389C 32.4528 0.141102 32.088 -0.00122255 31.715 7.91314e-06C 31.6104 7.91314e-06 31.5056 0.010672 31.4029 0.031836L 19.9048 2.38859C 19.3958 2.49277 19.0686 2.98783 19.1739 3.49462C 19.2779 4.00075 19.7757 4.32658 20.2841 4.22306L 30.0557 2.22018L 0.197975 40.4893C -0.121119 40.8976 -0.0464738 41.4861 0.364154 41.8031C 0.773465 42.1202 1.36461 42.0465 1.68304 41.6384L 31.4981 3.42465L 32.3795 13.1725C 32.4259 13.6874 32.8835 14.0675 33.4 14.0214C 33.9178 13.9752 34.2996 13.5197 34.2525 13.0053Z"/>
<path id="path1_fill" d="M 10.0311 2.75373e-08C 4.48906 2.75373e-08 2.90718e-09 4.47013 2.90718e-09 9.98566C 2.90718e-09 15.5 4.48906 19.9725 10.0311 19.9725C 15.5701 19.9725 20.0597 15.4999 20.0597 9.98566C 20.0597 4.47078 15.5701 2.75373e-08 10.0311 2.75373e-08ZM 10.0311 18.1C 5.53705 18.1 1.88062 14.4594 1.88062 9.98557C 1.88062 5.51233 5.53714 1.87236 10.0311 1.87236C 14.5239 1.87236 18.1792 5.51176 18.1792 9.98557C 18.1792 14.4601 14.5239 18.1 10.0311 18.1Z"/>
<path id="path2_fill" d="M 10.0311 8.4114e-07C 4.48906 8.4114e-07 -4.62635e-07 4.47012 -4.62635e-07 9.98566C -4.62635e-07 15.5 4.48906 19.9725 10.0311 19.9725C 15.5701 19.9725 20.0597 15.5 20.0597 9.98566C 20.0597 4.47004 15.5701 8.4114e-07 10.0311 8.4114e-07ZM 10.0311 18.1C 5.53714 18.1 1.88062 14.4594 1.88062 9.98558C 1.88062 5.51233 5.53714 1.87236 10.0311 1.87236C 14.5239 1.87236 18.1792 5.51176 18.1792 9.98558C 18.1792 14.4594 14.5239 18.1 10.0311 18.1Z"/>
</defs>
</svg>
