<svg width="90" height="90" viewBox="0 0 90 90" version="1.1" xmlns="http://www.w3.org/2000/svg" xmlns:xlink="http://www.w3.org/1999/xlink">
<g id="Canvas" fill="none">
<g id="module-analytics-venues" clip-path="url(#clip0)">
<g id="module-venues" clip-path="url(#clip1)">
<g id="restaurant">
<g id="Group">
<g id="Group_2">
<g id="Group_3">
<g id="Vector">
<path d="M 40 13.0947L 40 6.86316C 40 6.42206 39.6318 6.06316 39.1793 6.06316L 38.6177 6.06316L 38.6177 4C 38.6177 2.9088 37.707 2.02105 36.5875 2.02105L 29.6328 2.02105L 29.6328 1.97895C 29.6328 0.887747 28.7221 0 27.6026 0L 12.3974 0C 11.2779 0 10.3672 0.887747 10.3672 1.97895L 10.3672 2.02105L 3.41253 2.02105C 2.29305 2.02105 1.38229 2.9088 1.38229 4L 1.38229 6.06316L 0.820734 6.06316C 0.368207 6.06316 0 6.42206 0 6.86316L 0 13.0947C 0 14.1369 0.550324 15.0558 1.38229 15.5911L 1.38229 32.3368L 0.647948 32.3368C 0.290108 32.3368 0 32.6196 0 32.9684C 0 33.3172 0.290108 33.6 0.647948 33.6L 39.3521 33.6C 39.7099 33.6 40 33.3172 40 32.9684C 40 32.6196 39.7099 32.3368 39.3521 32.3368L 38.6177 32.3368L 38.6177 15.5911C 39.4497 15.0558 40 14.1369 40 13.0947ZM 11.6631 1.97895C 11.6631 1.58425 11.9925 1.26316 12.3974 1.26316L 27.6026 1.26316C 28.0075 1.26316 28.3369 1.58425 28.3369 1.97895L 28.3369 2.64935L 28.3368 2.65263L 28.3368 2.65432C 28.3359 3.04817 28.0069 3.36842 27.6026 3.36842L 12.3974 3.36842C 11.9925 3.36842 11.6631 3.04733 11.6631 2.65263L 11.6631 1.97895ZM 2.67819 4C 2.67819 3.60531 3.0076 3.28421 3.41253 3.28421L 10.4738 3.28421C 10.7449 4.06653 11.5044 4.63158 12.3974 4.63158L 27.6026 4.63158C 28.4955 4.63158 29.2551 4.06653 29.5262 3.28421L 36.5875 3.28421C 36.9924 3.28421 37.3218 3.60531 37.3218 4L 37.3218 6.06316L 2.67819 6.06316L 2.67819 4ZM 33.8661 7.32632L 33.8661 13.0947C 33.8661 14.0467 33.0716 14.8211 32.095 14.8211C 31.1184 14.8211 30.324 14.0467 30.324 13.0947L 30.324 7.32632L 33.8661 7.32632ZM 29.0281 7.32632L 29.0281 13.0947C 29.0281 14.0467 28.2336 14.8211 27.257 14.8211C 26.2804 14.8211 25.486 14.0467 25.486 13.0947L 25.486 7.32632L 29.0281 7.32632ZM 24.1901 7.32632L 24.1901 13.0947C 24.1901 14.0467 23.3956 14.8211 22.419 14.8211C 21.4424 14.8211 20.6479 14.0467 20.6479 13.0947L 20.6479 7.32632L 24.1901 7.32632ZM 19.3521 7.32632L 19.3521 13.0947C 19.3521 14.0467 18.5576 14.8211 17.581 14.8211C 16.6044 14.8211 15.8099 14.0467 15.8099 13.0947L 15.8099 7.32632L 19.3521 7.32632ZM 14.514 7.32632L 14.514 13.0947C 14.514 14.0467 13.7196 14.8211 12.743 14.8211C 11.7664 14.8211 10.9719 14.0467 10.9719 13.0947L 10.9719 7.32632L 14.514 7.32632ZM 9.67603 7.32632L 9.67603 13.0947C 9.67603 14.0467 8.88155 14.8211 7.90497 14.8211C 6.92838 14.8211 6.13391 14.0467 6.13391 13.0947L 6.13391 7.32632L 9.67603 7.32632ZM 1.2959 13.0947L 1.2959 7.32632L 4.83801 7.32632L 4.83801 13.0947C 4.83801 14.0467 4.04354 14.8211 3.06695 14.8211C 2.09037 14.8211 1.2959 14.0467 1.2959 13.0947ZM 12.4406 32.3368L 5.44276 32.3368L 5.44276 30.9053L 12.4406 30.9053L 12.4406 32.3368ZM 12.4406 29.6421L 5.44276 29.6421L 5.44276 18.7789L 12.4406 18.7789L 12.4406 29.6421ZM 37.3218 32.3368L 13.7365 32.3368L 13.7365 18.1474C 13.7365 17.7986 13.4464 17.5158 13.0886 17.5158L 4.79482 17.5158C 4.43698 17.5158 4.14687 17.7986 4.14687 18.1474L 4.14687 32.3368L 2.67819 32.3368L 2.67819 16.0594C 2.80562 16.0752 2.93521 16.0842 3.06695 16.0842C 4.04907 16.0842 4.92423 15.6313 5.48596 14.9292C 6.04769 15.6313 6.92285 16.0842 7.90497 16.0842C 8.88708 16.0842 9.76225 15.6313 10.324 14.9292C 10.8857 15.6313 11.7609 16.0842 12.743 16.0842C 13.7251 16.0842 14.6003 15.6313 15.162 14.9292C 15.7237 15.6313 16.5989 16.0842 17.581 16.0842C 18.5631 16.0842 19.4383 15.6313 20 14.9292C 20.5617 15.6313 21.4369 16.0842 22.419 16.0842C 23.4011 16.0842 24.2763 15.6313 24.838 14.9292C 25.3997 15.6313 26.2749 16.0842 27.257 16.0842C 28.2391 16.0842 29.1143 15.6313 29.676 14.9292C 30.2378 15.6313 31.1129 16.0842 32.095 16.0842C 33.0771 16.0842 33.9523 15.6313 34.514 14.9292C 35.0758 15.6313 35.9509 16.0842 36.933 16.0842C 37.0648 16.0842 37.1944 16.0752 37.3218 16.0594L 37.3218 32.3368ZM 36.933 14.8211C 35.9565 14.8211 35.162 14.0467 35.162 13.0947L 35.162 7.32632L 38.7041 7.32632L 38.7041 13.0947C 38.7041 14.0467 37.9096 14.8211 36.933 14.8211Z" transform="translate(25 16.2)" fill="white"/>
</g>
<g id="Vector_2">
<path d="M 20 0L 0.647948 0C 0.290108 0 0 0.282779 0 0.631579L 0 12.7579C 0 13.1067 0.290108 13.3895 0.647948 13.3895L 20 13.3895C 20.3578 13.3895 20.6479 13.1067 20.6479 12.7579L 20.6479 0.631579C 20.6479 0.282779 20.3578 0 20 0ZM 19.3521 12.1263L 15.1188 12.1263L 15.1188 10.0211L 17.2354 10.0211C 17.5933 10.0211 17.8834 9.73827 17.8834 9.38947C 17.8834 9.04067 17.5933 8.75789 17.2354 8.75789L 11.7063 8.75789C 11.3484 8.75789 11.0583 9.04067 11.0583 9.38947C 11.0583 9.73827 11.3484 10.0211 11.7063 10.0211L 13.8229 10.0211L 13.8229 12.1263L 6.82505 12.1263L 6.82505 10.0211L 8.94168 10.0211C 9.29952 10.0211 9.58963 9.73827 9.58963 9.38947C 9.58963 9.04067 9.29952 8.75789 8.94168 8.75789L 3.41253 8.75789C 3.05469 8.75789 2.76458 9.04067 2.76458 9.38947C 2.76458 9.73827 3.05469 10.0211 3.41253 10.0211L 5.52916 10.0211L 5.52916 12.1263L 1.2959 12.1263L 1.2959 1.26316L 5.52916 1.26316L 5.52916 2.0976C 4.34047 2.38181 3.45572 3.42863 3.45572 4.67368C 3.45572 5.02248 3.74583 5.30526 4.10367 5.30526L 5.52916 5.30526L 5.52916 5.34737C 5.52916 5.69617 5.81927 5.97895 6.17711 5.97895C 6.53495 5.97895 6.82505 5.69617 6.82505 5.34737L 6.82505 5.30526L 8.25054 5.30526C 8.60838 5.30526 8.89849 5.02248 8.89849 4.67368C 8.89849 3.42863 8.01374 2.38181 6.82505 2.0976L 6.82505 1.26316L 13.8229 1.26316L 13.8229 2.0976C 12.6342 2.38181 11.7495 3.42863 11.7495 4.67368C 11.7495 5.02248 12.0396 5.30526 12.3974 5.30526L 13.8229 5.30526L 13.8229 5.34737C 13.8229 5.69617 14.113 5.97895 14.4708 5.97895C 14.8287 5.97895 15.1188 5.69617 15.1188 5.34737L 15.1188 5.30526L 16.5443 5.30526C 16.9021 5.30526 17.1922 5.02248 17.1922 4.67368C 17.1922 3.42863 16.3075 2.38181 15.1188 2.0976L 15.1188 1.26316L 19.3521 1.26316L 19.3521 12.1263ZM 6.17711 3.28421C 6.73002 3.28421 7.21028 3.59259 7.44665 4.04211L 4.90756 4.04211C 5.14384 3.59259 5.62419 3.28421 6.17711 3.28421ZM 14.4708 3.28421C 15.0238 3.28421 15.504 3.59259 15.7404 4.04211L 13.2013 4.04211C 13.4376 3.59259 13.9179 3.28421 14.4708 3.28421Z" transform="translate(40.2051 33.7158)" fill="#66E698"/>
</g>
<g id="Vector_3">
<path d="M 0.647948 2.61053C 1.00579 2.61053 1.2959 2.32775 1.2959 1.97895L 1.2959 0.631579C 1.2959 0.282779 1.00579 0 0.647948 0C 0.290108 0 0 0.282779 0 0.631579L 0 1.97895C 0 2.32775 0.290108 2.61053 0.647948 2.61053Z" transform="translate(35.3672 39.7788)" fill="white"/>
</g>
</g>
</g>
</g>
</g>
</g>
<g id="part-analytics" clip-path="url(#clip2)">
<g id="analytics">
<g id="Group_4">
<g id="Group_5">
<g id="Vector_4">
<path d="M 5.79277 0L 1.52441 0C 0.679297 0.00363559 0.00361328 0.683491 0 1.53324L 0 9.82608C 0.00371094 10.6764 0.679297 11.3555 1.52441 11.3592L 5.79277 11.3592C 6.63789 11.3556 7.31357 10.6764 7.31719 9.82608L 7.31719 1.53324C 7.31357 0.683491 6.63789 0.00373385 5.79277 0ZM 5.79277 9.82608L 1.52441 9.82608L 1.52441 1.53324L 5.79277 1.53324L 5.79277 9.82608Z" transform="translate(25.6097 57.238)" fill="white"/>
</g>
</g>
</g>
<g id="Group_6">
<g id="Group_7">
<g id="Vector_5">
<path d="M 5.79277 0L 1.52441 0C 0.679297 0.00363559 0.00361328 0.683491 0 1.53324L 0 11.9588C 0.00361328 12.8092 0.679297 13.4883 1.52441 13.492L 5.79277 13.492C 6.6373 13.4883 7.31357 12.8092 7.31719 11.9588L 7.31719 1.53324C 7.31357 0.683491 6.6373 0.00373384 5.79277 0ZM 5.79277 11.9588L 1.52441 11.9588L 1.52441 1.53324L 5.79277 1.53324L 5.79277 11.9588Z" transform="translate(35.9756 55.1055)" fill="white"/>
</g>
</g>
</g>
<g id="Group_8">
<g id="Group_9">
<g id="Vector_6">
<path d="M 5.79277 0L 1.52441 0C 0.679297 0.00363559 0.00361328 0.68349 0 1.53314L 0 4.7043C 0.00361328 5.55464 0.679297 6.2338 1.52441 6.23744L 5.79277 6.23744C 6.6373 6.2338 7.31357 5.55464 7.31719 4.7043L 7.31719 1.53314C 7.31357 0.683391 6.6373 0.00294777 5.79277 0ZM 5.65869 4.64014L 1.52441 4.7043L 1.52441 1.53314L 5.65869 1.53314L 5.65869 4.64014Z" transform="translate(46.3413 62.3599)" fill="white"/>
</g>
</g>
</g>
<g id="Group_10">
<g id="Group_11">
<g id="Vector_7">
<path d="M 5.79277 0L 1.52441 0C 0.679295 0.00363559 0.00361328 0.68349 0 1.53314L 0 11.0635C 0.00371094 11.9144 0.679295 12.5936 1.52441 12.5973L 5.79277 12.5973C 6.6373 12.5937 7.31357 11.9145 7.31719 11.0642L 7.31719 1.53314C 7.31357 0.683392 6.6373 0.00363559 5.79277 0ZM 5.79277 11.0635L 1.52441 11.0635L 1.52441 6L 5.79277 6L 5.79277 11.0635ZM 5.79277 4.3598L 1.52441 4.3598L 1.52441 1.53314L 5.79277 1.53314L 5.79277 4.3598Z" transform="translate(56.7072 56)" fill="white"/>
</g>
</g>
</g>
<g id="Group_12">
<g id="Group_13">
<g id="Vector_8">
<path d="M 38.2866 4.95452e-07L 0.713426 4.95452e-07C 0.319617 4.95452e-07 0 0.448172 0 0.999628C 0 1.55183 0.319617 2 0.713426 2L 38.2866 2C 38.6804 2 39 1.55183 39 0.999628C 39 0.448172 38.6804 4.95452e-07 38.2866 4.95452e-07Z" transform="translate(25 71)" fill="white"/>
</g>
</g>
</g>
</g>
</g>
</g>
</g>
<defs>

<clipPath id="clip0">
<rect width="90" height="90" fill="white"/>
</clipPath>
<clipPath id="clip1">
<rect width="72" height="72" fill="white" transform="translate(9 -3)"/>
</clipPath>
<clipPath id="clip2">
<rect width="50" height="19.2771" fill="white" transform="translate(20 54)"/>
</clipPath>

</defs>
</svg>

