<svg width="90" height="90" viewBox="0 0 90 90" version="1.1" xmlns="http://www.w3.org/2000/svg" xmlns:xlink="http://www.w3.org/1999/xlink">
<title>module-partners</title>
<desc>Created using Figma</desc>
<g id="Canvas" transform="translate(207 303)">
<clipPath id="clip-0" clip-rule="evenodd">
<path d="M -207 -303L -117 -303L -117 -213L -207 -213L -207 -303Z" fill="#FFFFFF"/>
</clipPath>
<g id="module-partners" clip-path="url(#clip-0)">
<g id="handshake (1)">
<g id="Group">
<g id="Group">
<g id="Group">
<g id="Vector">
<use xlink:href="#path0_fill" transform="translate(-174.144 -276.164)" fill="#FFFFFF"/>
</g>
<g id="Vector">
<use xlink:href="#path1_fill" transform="translate(-181.933 -277.166)" fill="#66E698"/>
</g>
<g id="Vector">
<use xlink:href="#path2_fill" transform="translate(-172.051 -272.628)" fill="#FFFFFF"/>
</g>
<g id="Vector">
<use xlink:href="#path3_fill" transform="translate(-145.533 -280.5)" fill="#66E698"/>
</g>
<g id="Vector">
<use xlink:href="#path4_fill" transform="translate(-147.539 -265.499)" fill="#FFFFFF"/>
</g>
<g id="Vector">
<use xlink:href="#path5_fill" transform="translate(-152.467 -283)" fill="#66E698"/>
</g>
<g id="Vector">
<use xlink:href="#path6_fill" transform="translate(-182.8 -262.165)" fill="#FFFFFF"/>
</g>
<g id="Vector">
<use xlink:href="#path7_fill" transform="translate(-188 -281.334)" fill="#66E698"/>
</g>
<g id="Vector">
<use xlink:href="#path8_fill" transform="translate(-182.157 -249.056)" fill="#FFFFFF"/>
</g>
</g>
</g>
</g>
</g>
</g>
</g>
<defs>
<path id="path0_fill" d="M 3.09942e-07 16.1557C 3.09942e-07 16.6015 0.181085 17.0199 0.508723 17.3341L 1.12144 17.9233C 1.94044 18.71 3.02725 19.1435 4.18505 19.1435C 5.34296 19.1435 6.43058 18.7101 7.24958 17.9233L 11.5665 13.7721C 13.2763 15.1456 15.411 15.8931 17.6643 15.8931L 17.6687 15.8931C 20.2158 15.8914 22.613 14.9355 24.4165 13.2004C 24.7555 12.8746 24.7555 12.347 24.4165 12.022C 24.0776 11.6961 23.5299 11.6961 23.1911 12.022C 21.7143 13.4421 19.7522 14.2255 17.6679 14.2264L 17.6652 14.2264C 15.5826 14.2264 13.6249 13.4463 12.1524 12.0304C 11.8135 11.7053 11.2649 11.7053 10.9269 12.0304L 6.02332 16.7449C 5.04223 17.6891 3.32889 17.6891 2.34699 16.7449L 1.73427 16.1557L 12.1524 6.1374C 13.1239 5.20314 14.0469 5.20314 15.216 5.20314C 16.4674 5.20314 18.0266 5.20314 19.5059 3.78056L 21.9568 1.42285C 22.2956 1.09704 22.2956 0.569457 21.9568 0.24443C 21.6188 -0.0814763 21.0702 -0.0814763 20.7314 0.24443L 18.2805 2.60214C 17.3081 3.5364 16.3852 3.5364 15.216 3.5364C 13.9645 3.5364 12.4063 3.5364 10.9269 4.95898L 0.509535 14.9764C 0.181085 15.2915 3.09942e-07 15.7099 3.09942e-07 16.1557Z"/>
<path id="path1_fill" d="M 1.73335 3.33368C 2.68925 3.33368 3.46671 2.58615 3.46671 1.66684C 3.46671 0.74762 2.68935 -2.98048e-09 1.73335 -2.98048e-09C 0.777455 -2.98048e-09 6.19883e-08 0.747523 6.19883e-08 1.66684C 6.19883e-08 2.58615 0.777455 3.33368 1.73335 3.33368Z"/>
<path id="path2_fill" d="M 0.253498 1.42277L 2.70438 3.77961C 2.8742 3.943 3.09611 4.02377 3.31711 4.02377C 3.53902 4.02377 3.76083 3.94291 3.92983 3.77961C 4.26874 3.45458 4.26874 2.927 3.92983 2.60119L 1.47894 0.244356C 1.14094 -0.0814518 0.592308 -0.0814518 0.253498 0.244356C -0.0844988 0.569383 -0.0844988 1.09687 0.253498 1.42277Z"/>
<path id="path3_fill" d="M 1.73335 3.33368C 2.68844 3.33368 3.46671 2.58615 3.46671 1.66684C 3.46671 0.747621 2.68844 5.36486e-08 1.73335 5.36486e-08C 0.778267 5.36486e-08 9.91813e-07 0.747523 9.91813e-07 1.66684C 9.91813e-07 2.58605 0.778267 3.33368 1.73335 3.33368Z"/>
<path id="path4_fill" d="M 5.72564 0.244418C 4.31729 1.59873 3.83375 3.80467 3.36657 5.93825C 2.9523 7.83177 2.5233 9.79111 1.47985 10.7945L 0.253499 11.9729C -0.0844986 12.2988 -0.0844986 12.8263 0.253499 13.1513C 0.42331 13.3147 0.645222 13.3955 0.867134 13.3955C 1.08813 13.3955 1.31004 13.3146 1.47985 13.1513L 2.7053 11.9729C 4.11274 10.6195 4.59546 8.41433 5.06265 6.28164C 5.47773 4.38646 5.90764 2.42712 6.95109 1.42293C 7.29 1.09791 7.29 0.570323 6.95109 0.244515C 6.61228 -0.0814889 6.06455 -0.0814881 5.72564 0.244418Z"/>
<path id="path5_fill" d="M 16.2129 17.7458L 2.09235 4.16714L 4.94623 1.42277C 5.28514 1.09687 5.28514 0.570164 4.94623 0.244356C 4.60732 -0.081452 4.0596 -0.081452 3.72079 0.244356L 0.254182 3.57793C -0.0847291 3.90384 -0.0847291 4.43054 0.254182 4.75635L 14.9874 18.9242C 15.1564 19.0867 15.3783 19.1684 15.6002 19.1684C 15.822 19.1684 16.0439 19.0867 16.2129 18.9242C 16.5517 18.5983 16.5517 18.0716 16.2129 17.7458Z"/>
<path id="path6_fill" d="M 26.9359 3.92472C 26.597 3.59969 26.0493 3.59969 25.7105 3.92472C 25.3717 4.25062 25.3717 4.77811 25.7105 5.10401L 34.9023 13.9431C 35.5783 14.5932 35.5783 15.6508 34.9023 16.3008C 34.2281 16.9492 33.1274 16.95 32.4505 16.3008L 23.2587 7.46095C 22.9198 7.13504 22.3712 7.13504 22.0332 7.46095C 21.6943 7.78685 21.6943 8.31434 22.0332 8.63936L 33.6768 19.8361C 34.3528 20.4861 34.3528 21.5438 33.6768 22.1929C 33.0008 22.8421 31.9019 22.8439 31.225 22.1937L 20.1951 11.5862C 19.8562 11.2603 19.3076 11.2603 18.9696 11.5862C 18.6307 11.9112 18.6307 12.4388 18.9696 12.7646L 28.7742 22.1929C 29.4502 22.843 29.4502 23.9006 28.7742 24.5506C 28.119 25.1807 26.9785 25.1807 26.3233 24.5499L 25.097 23.3714L 25.096 23.3714L 17.1306 15.7116C 16.7916 15.3858 16.2431 15.3858 15.9051 15.7116C 15.5663 16.0367 15.5663 16.5642 15.9051 16.89L 23.8714 24.5506C 24.199 24.8657 24.3793 25.284 24.3793 25.7299C 24.3793 26.175 24.199 26.5934 23.8714 26.9084C 23.1971 27.5568 22.0965 27.5584 21.4205 26.9075L 6.67955 12.7455C 4.43229 10.5844 3.94439 7.8601 3.51367 5.4557C 3.1514 3.43307 2.80903 1.52286 1.47959 0.24443C 1.14068 -0.0814763 0.592955 -0.0814763 0.254145 0.24443C -0.0846645 0.570336 -0.084766 1.09704 0.254145 1.42285C 1.19451 2.32712 1.47786 3.90802 1.8055 5.73903C 2.25613 8.25593 2.81777 11.3886 5.4541 13.9239L 20.1951 28.0868C 20.8702 28.736 21.7577 29.0619 22.646 29.0619C 23.5334 29.061 24.4218 28.736 25.0968 28.0868C 25.5891 27.6126 25.9158 27.0216 26.0476 26.3783C 27.3181 26.9675 28.9725 26.7184 29.9995 25.7292C 30.4926 25.255 30.8185 24.6633 30.9503 24.0198C 32.239 24.6149 33.8353 24.3974 34.9022 23.3714C 36.2542 22.0722 36.2542 19.9578 34.9022 18.6577L 34.5738 18.3409C 35.1431 18.1951 35.6822 17.9076 36.1286 17.4793C 37.4797 16.1791 37.4797 14.0639 36.1286 12.7647L 26.9359 3.92472Z"/>
<path id="path7_fill" d="M 16.2128 5.24484L 11.0128 0.244429C 10.674 -0.0814765 10.1262 -0.0814765 9.7874 0.244429C 9.44849 0.570238 9.44849 1.09704 9.7874 1.42285L 14.3746 5.83405L 0.254107 19.4127C -0.0847024 19.7386 -0.0847024 20.2653 0.254107 20.5911C 0.423106 20.7537 0.645018 20.8353 0.866829 20.8353C 1.08864 20.8353 1.31055 20.7537 1.47955 20.5911L 16.2128 6.42336C 16.5517 6.09745 16.5517 5.57075 16.2128 5.24484Z"/>
<path id="path8_fill" d="M 15.4722 14.2394C 14.9895 14.4827 14.1653 14.5119 13.4226 13.7993C 12.6799 13.0842 12.686 12.2534 12.9269 11.8916C 13.166 11.5333 13.0863 11.0599 12.7405 10.7924C 12.3964 10.5249 11.8981 10.5499 11.5844 10.8524C 10.9075 11.5024 9.80688 11.5015 9.13261 10.8524C 8.45753 10.2023 8.45753 9.14471 9.13261 8.49465C 9.30253 8.33214 9.38652 8.11874 9.38652 7.90544C 9.38652 7.69214 9.30243 7.47953 9.13261 7.31624C 8.79462 6.99121 8.24598 6.99121 7.90717 7.31624L 7.29445 7.90544C 6.61937 8.5555 5.51864 8.5555 4.84356 7.90544C 4.16848 7.25539 4.16848 6.19778 4.84356 5.54861L 5.45628 4.9594C 5.76483 4.66357 5.79601 4.19352 5.53083 3.86185C 5.26565 3.53018 4.78466 3.43935 4.40939 3.64845C 3.93794 3.91009 3.10848 3.87933 2.39268 3.19177C 1.63178 2.46007 1.63523 1.64916 1.8805 1.30744C 2.15258 0.929084 2.05295 0.409898 1.6595 0.148157C 1.26514 -0.114365 0.72615 -0.0185533 0.453964 0.360677C -0.247116 1.33742 -0.228124 3.02838 1.16723 4.37019C 1.71668 4.89777 2.31468 5.21274 2.90404 5.36363C 2.7064 5.78701 2.6024 6.24954 2.6024 6.72712C 2.6024 7.61724 2.96294 8.45481 3.61812 9.08396C 4.50729 9.93989 5.76483 10.2324 6.90618 9.96157C 6.97382 10.7166 7.30745 11.4542 7.90717 12.0309C 8.76953 12.8593 9.97416 13.1593 11.0852 12.9326C 11.1927 13.6227 11.5402 14.3452 12.1971 14.9778C 12.9988 15.7479 13.9348 16.0562 14.7893 16.0562C 15.3379 16.0562 15.8526 15.9287 16.2765 15.7154C 16.7003 15.502 16.8641 14.9986 16.6414 14.5903C 16.4195 14.1835 15.8943 14.0252 15.4722 14.2394Z"/>
</defs>
</svg>
