<svg width="24" height="24" viewBox="0 0 24 24" version="1.1" xmlns="http://www.w3.org/2000/svg" xmlns:xlink="http://www.w3.org/1999/xlink">
<g id="Canvas" fill="none">
<g id="action-help" clip-path="url(#clip0)">
<g id="question">
<g id="Group">
<g id="Vector">
<path d="M 2 0L 0.666667 0C 0.266667 0 0 0.276923 0 0.692308L 0 2.07692C 0 2.49231 0.266667 2.76923 0.666667 2.76923L 2 2.76923C 2.4 2.76923 2.66667 2.49231 2.66667 2.07692L 2.66667 0.692308C 2.66667 0.276923 2.4 0 2 0Z" transform="translate(10.6667 18.2307)" fill="#F33C27"/>
</g>
<g id="Vector_2">
<path d="M 6 0C 2.66667 0 0 2.76923 0 6.23077C 0 6.57692 -6.45717e-08 6.92308 0.0666666 7.26923C 0.133333 7.68462 0.533333 7.89231 0.933333 7.82308L 2.2 7.40769C 2.53333 7.33846 2.73333 6.99231 2.66667 6.64615C 2.66667 6.50769 2.66667 6.36923 2.66667 6.23077C 2.66667 4.29231 4.13333 2.76923 6 2.76923C 7.86667 2.76923 9.33333 4.29231 9.33333 6.23077C 9.33333 7.40769 8.66667 7.96154 7.46667 9C 6.33333 9.96923 5 11.0769 4.66667 13.0846C 4.6 13.5 4.93333 13.8462 5.33333 13.8462L 6.66667 13.8462C 7 13.8462 7.26667 13.6385 7.33333 13.2923C 7.53333 12.4615 8.13333 11.9077 9.13333 11.1462C 10.4 10.1077 12 8.79231 12 6.23077C 12 2.76923 9.33333 0 6 0Z" transform="translate(6 3)" fill="#F33C27"/>
</g>
</g>
</g>
</g>
</g>
<defs>

<clipPath id="clip0">
<rect width="24" height="24" fill="white"/>
</clipPath>

</defs>
</svg>

