<svg width="24" height="24" viewBox="0 0 24 24" version="1.1" xmlns="http://www.w3.org/2000/svg" xmlns:xlink="http://www.w3.org/1999/xlink">
<title>action-ico</title>
<desc>Created using Figma</desc>
<g id="Canvas" transform="translate(1977 -43)">
<clipPath id="clip-0" clip-rule="evenodd">
<path d="M -1977 43L -1953 43L -1953 67L -1977 67L -1977 43Z" fill="#FFFFFF"/>
</clipPath>
<g id="action-ico" clip-path="url(#clip-0)">
<g id="view">
<use xlink:href="#path0_fill" transform="translate(-1975 49)" fill="#275DF2"/>
<use xlink:href="#path1_fill" transform="translate(-1975 49)" fill="#275DF2"/>
</g>
</g>
</g>
<defs>
<path id="path0_fill" fill-rule="evenodd" d="M 0 6C 1.16667 4.5 4.8 0 10 0C 15.2 0 19 4.5 20 6C 18.8333 7.5 14.8 12 10 12C 5.2 12 1.33333 7.5 0 6ZM 10 10C 12.2091 10 14 8.20914 14 6C 14 3.79086 12.2091 2 10 2C 7.79086 2 6 3.79086 6 6C 6 8.20914 7.79086 10 10 10Z"/>
<path id="path1_fill" d="M 12 6C 12 7.10457 11.1046 8 10 8C 8.89543 8 8 7.10457 8 6C 8 4.89543 8.89543 4 10 4C 11.1046 4 12 4.89543 12 6Z"/>
</defs>
</svg>
