<svg width="100" height="100" viewBox="0 0 100 100" fill="none" xmlns="http://www.w3.org/2000/svg">
<path d="M32.4235 5.55777C28.835 1.97392 24.0643 -3.57186e-08 18.9895 -3.57186e-08C13.9149 -3.57186e-08 9.14388 1.97378 5.55546 5.55777C-1.85182 12.956 -1.85182 24.994 5.55546 32.3924C9.14388 35.9763 13.9147 37.9502 18.9895 37.9502C24.0642 37.9502 28.835 35.9764 32.4235 32.3924C36.0118 28.8086 37.988 24.0435 37.988 18.9751C37.988 13.9067 36.0118 9.14176 32.4235 5.55777ZM7.08549 7.08591C10.2651 3.91025 14.4928 2.16119 18.9894 2.16119C23.486 2.16119 27.7136 3.91025 30.8931 7.08591C33.4027 9.59223 35.0215 12.7509 35.5927 16.1788L29.6953 21.9386C29.1368 21.6238 28.4929 21.4434 27.8072 21.4434C26.4723 21.4434 25.2939 22.1247 24.6018 23.1572L15.9339 20.4408C15.9343 20.4157 15.9358 20.3907 15.9358 20.3656C15.9358 18.2423 14.2062 16.5147 12.0802 16.5147C9.95423 16.5147 8.22455 18.2423 8.22455 20.3656C8.22455 21.0596 8.41029 21.711 8.73343 22.2741L4.18553 26.9826C0.734655 20.6097 1.70043 12.4643 7.08549 7.08591ZM29.4992 25.2941C29.4992 26.2257 28.7401 26.9839 27.8073 26.9839C26.8745 26.9839 26.1154 26.2257 26.1154 25.2941C26.1154 24.3624 26.8745 23.6043 27.8073 23.6043C28.7401 23.6043 29.4992 24.3623 29.4992 25.2941ZM13.7722 20.3653C13.7722 21.2969 13.0131 22.0551 12.0803 22.0551C11.1474 22.0551 10.3883 21.2969 10.3883 20.3653C10.3883 19.4336 11.1474 18.6755 12.0803 18.6755C13.0131 18.6756 13.7722 19.4336 13.7722 20.3653ZM30.8933 30.8644C27.7137 34.0401 23.4862 35.7891 18.9895 35.7891C14.4929 35.7891 10.2652 34.0402 7.08563 30.8644C6.45414 30.2337 5.88387 29.5645 5.37381 28.8649L10.2906 23.7746C10.8258 24.0561 11.4346 24.2161 12.0803 24.2161C13.4152 24.2161 14.5935 23.5348 15.2857 22.5023L23.9536 25.2187C23.9532 25.2438 23.9517 25.2688 23.9517 25.2939C23.9517 27.4172 25.6812 29.1448 27.8073 29.1448C29.9332 29.1448 31.6629 27.4172 31.6629 25.2939C31.6629 24.6397 31.4981 24.0233 31.2088 23.4831L35.8243 18.9754C35.8241 23.4665 34.0729 27.6888 30.8933 30.8644Z" transform="translate(22.4878 21.0036)" fill="#E9EBF7"/>
<path d="M2.14577e-07 3.56632L1.41943 5.19731C4.77451 2.2847 9.47842 1.38669 13.6963 2.85397L14.4081 0.813185C9.46011 -0.908219 3.93926 0.146773 2.14577e-07 3.56632Z" transform="translate(31.897 25.3893)" fill="#E9EBF7"/>
<path d="M1.12559 -2.67889e-08L7.689e-07 1.84562C0.572608 2.19396 1.12222 2.59337 1.63345 3.03257L3.04453 1.39412C2.44424 0.878551 1.79853 0.409503 1.12559 -2.67889e-08Z" transform="translate(47.9556 27.512)" fill="#E9EBF7"/>
<path d="M8.04038 0.623253C5.60596 1.13575 3.10415 0.920101 0.804639 -7.85809e-07L1.055e-06 2.00596C1.7436 2.70368 3.58564 3.05628 5.44131 3.05628C6.45718 3.05628 7.477 2.9505 8.48672 2.73792L8.04038 0.623253Z" transform="translate(36.0254 51.5153)" fill="#E9EBF7"/>
<path d="M56.0792 43.5893L54.5083 45.1583L50.6109 40.9975C55.2237 34.2631 56.3342 25.838 53.9413 18.2895L57.0334 15.2694C57.5773 15.5629 58.1993 15.7297 58.8598 15.7297C60.9857 15.7297 62.7154 14.0021 62.7154 11.8788C62.7154 11.25 62.5627 10.6564 62.2939 10.1315L68.932 3.64837V6.99929H71.0957V3.46024e-08H64.0879V2.16105H67.3601L60.8096 8.55859C60.2372 8.22195 59.5709 8.02781 58.8599 8.02781C56.734 8.02781 55.0043 9.75536 55.0043 11.8787C55.0043 12.5581 55.1821 13.1966 55.4927 13.7513L53.1229 16.0659C51.8471 13.0315 49.9761 10.1897 47.5061 7.72276C37.2891 -2.48145 20.6654 -2.48116 10.4486 7.72276C1.34736 16.8127 0.35376 30.9803 7.46689 41.1791L5.64521 43.0651C5.10996 42.7836 4.50117 42.6236 3.85547 42.6236C1.72954 42.6234 0 44.351 0 46.4743C0 48.5976 1.72954 50.3251 3.85562 50.3251C5.98169 50.3251 7.71123 48.5976 7.71123 46.4743C7.71123 45.7801 7.52549 45.1289 7.2022 44.5657L8.79375 42.9179C9.3123 43.5426 9.86279 44.1494 10.4484 44.7344C15.5569 49.8365 22.2671 52.3874 28.9772 52.3874C34.1282 52.3874 39.2786 50.8822 43.7051 47.8757L47.6117 52.0464L45.9872 53.6689L64.9077 72.5L75 62.4204L56.0792 43.5893ZM58.8599 10.189C59.7927 10.189 60.5518 10.9471 60.5518 11.8788C60.5518 12.8105 59.7927 13.5686 58.8599 13.5686C57.927 13.5686 57.168 12.8105 57.168 11.8788C57.168 10.9471 57.927 10.189 58.8599 10.189ZM3.85562 48.1639C2.9228 48.1639 2.16372 47.4058 2.16372 46.4741C2.16372 45.5425 2.9228 44.7843 3.85562 44.7843C4.78857 44.7843 5.54751 45.5425 5.54751 46.4741C5.54736 47.4059 4.78843 48.1639 3.85562 48.1639ZM11.9785 43.2064C2.60537 33.8449 2.60537 18.6127 11.9785 9.2509C16.6649 4.57008 22.8209 2.22995 28.9771 2.22995C35.1333 2.22995 41.2894 4.57037 45.9759 9.2509C55.349 18.6124 55.349 33.8448 45.9759 43.2064C36.6031 52.5678 21.3513 52.5678 11.9785 43.2064ZM45.4538 46.5793C46.1621 46.0065 46.8475 45.3921 47.5061 44.7344C48.1424 44.0989 48.7389 43.4385 49.2958 42.7565L52.9777 46.687L49.1426 50.5174L45.4538 46.5793ZM64.9052 69.4465L49.05 53.6661L56.0821 46.6427L71.9373 62.4229L64.9052 69.4465Z" transform="translate(12.5 13.75)" fill="#E9EBF7"/>
<path d="M3.09609 -4.64341e-07L2.18153e-06 3.09212L1.53018 4.62026L3.09609 3.05613L9.06767 9.02033L10.5976 7.49234L3.09609 -4.64341e-07Z" transform="translate(65.4849 63.5298)" fill="#E9EBF7"/>
<path d="M2.16238 0H0V2.26632H2.16238V0Z" transform="translate(76.4082 74.3991) scale(1.00061 0.999372) rotate(-45)" fill="#E9EBF7"/>
<path d="M2.16372 0H0V2.35446H2.16372V0Z" transform="translate(24.2227 67.2445)" fill="#E9EBF7"/>
<path d="M2.16372 0H0V2.35446H2.16372V0Z" transform="translate(24.2227 80.441)" fill="#E9EBF7"/>
<path d="M2.16372 0H0V2.35431H2.16372V0Z" transform="translate(42.043 71.7854)" fill="#E9EBF7"/>
<path d="M2.16372 2.03596e-06H0V2.35446H2.16372V2.03596e-06Z" transform="translate(73.0518 52.3493)" fill="#E9EBF7"/>
<path d="M2.16372 0H0V2.35446H2.16372V0Z" transform="translate(75.5068 33.5975)" fill="#E9EBF7"/>
<path d="M2.16372 0H0V2.35446H2.16372V0Z" transform="translate(82.6772 43.5267)" fill="#E9EBF7"/>
</svg>
