<svg width="100" height="100" viewBox="0 0 100 100" fill="none" xmlns="http://www.w3.org/2000/svg">
<path d="M68.5714 10.7143H61.4286V1.42857C61.4286 0.63957 60.789 0 60 0H1.42857C0.639571 0 0 0.63957 0 1.42857V57.857C0 58.646 0.639571 59.2856 1.42857 59.2856H8.57143V68.5713C8.57143 69.3603 9.211 69.9999 10 69.9999H54.284C54.2844 69.9999 54.2849 70 54.2854 70C54.6573 70 55.0226 69.8547 55.2959 69.5816L69.5816 55.2959C69.8547 55.0226 69.9963 54.6573 69.9964 54.2857H70V12.1428C70 11.3538 69.3604 10.7143 68.5714 10.7143ZM8.57157 12.1428V56.4285H2.85729V2.85714H58.5716V10.7143H10.0001C9.211 10.7143 8.57157 11.3538 8.57157 12.1428ZM55.7143 65.1224V55.7142H65.1224L55.7143 65.1224ZM67.1429 52.857H54.2857C53.4969 52.857 52.8571 53.4966 52.8571 54.2856V67.1427H11.4286V13.5714H67.1429V52.857Z" transform="translate(15 15)" fill="#E9EBF7"/>
<path d="M40 0H0V2.85714H40V0Z" transform="translate(32.8574 35.7142)" fill="#E9EBF7"/>
<path d="M21.4286 0H0V2.85714H21.4286V0Z" transform="translate(32.8574 44.2857)" fill="#E9EBF7"/>
<path d="M40 0H0V2.85714H40V0Z" transform="translate(32.8574 52.8571)" fill="#E9EBF7"/>
<path d="M21.4286 0H0V2.85714H21.4286V0Z" transform="translate(32.8574 61.4285)" fill="#E9EBF7"/>
<path d="M5 0H0V2.85714H5V0Z" transform="translate(32.8574 69.9999)" fill="#E9EBF7"/>
<path d="M5 0H0V2.85714H5V0Z" transform="translate(40 69.9999)" fill="#E9EBF7"/>
<path d="M5 0H0V2.85714H5V0Z" transform="translate(47.1431 69.9999)" fill="#E9EBF7"/>
</svg>
