<svg width="30" height="24" viewBox="0 0 30 24" version="1.1" xmlns="http://www.w3.org/2000/svg" xmlns:xlink="http://www.w3.org/1999/xlink">
<title>back</title>
<desc>Created using Figma</desc>
<g id="Canvas" transform="translate(2090 36)">
<g id="back">
<use xlink:href="#path0_stroke" transform="translate(-2089 -35)" fill="#303BFD"/>
</g>
</g>
<defs>
<path id="path0_stroke" d="M 28 12C 28.5523 12 29 11.5523 29 11C 29 10.4477 28.5523 10 28 10L 28 12ZM 0 11L -0.694136 10.2802C -0.889589 10.4686 -1 10.7285 -1 11C -1 11.2715 -0.889589 11.5314 -0.694136 11.7198L 0 11ZM 12.1015 0.719844C 12.4991 0.336484 12.5106 -0.296577 12.1273 -0.694136C 11.7439 -1.09169 11.1108 -1.1032 10.7133 -0.719844L 12.1015 0.719844ZM 10.7133 22.7198C 11.1108 23.1032 11.7439 23.0917 12.1273 22.6941C 12.5106 22.2966 12.4991 21.6635 12.1015 21.2802L 10.7133 22.7198ZM 28 10L 0 10L 0 12L 28 12L 28 10ZM 0.694136 11.7198L 12.1015 0.719844L 10.7133 -0.719844L -0.694136 10.2802L 0.694136 11.7198ZM -0.694136 11.7198L 10.7133 22.7198L 12.1015 21.2802L 0.694136 10.2802L -0.694136 11.7198Z"/>
</defs>
</svg>
