<?xml version="1.0" encoding="UTF-8"?>
<svg width="512px" height="508px" viewBox="0 0 512 508" version="1.1" xmlns="http://www.w3.org/2000/svg" xmlns:xlink="http://www.w3.org/1999/xlink">
    <!-- Generator: Sketch 48.1 (47250) - http://www.bohemiancoding.com/sketch -->
    <title>Untitled</title>
    <desc>Created with Sketch.</desc>
    <defs></defs>
    <g id="Page-1" stroke="none" stroke-width="1" fill="none" fill-rule="evenodd">
        <g id="other-table-empty" fill="#0A1440" fill-rule="nonzero">
            <path d="M428.157,155.414 L332.627,86.048 C329.094,83.483 324.151,84.267 321.584,87.8 C319.018,91.333 319.804,96.277 323.337,98.843 L418.868,168.208 C420.271,169.226 421.895,169.717 423.506,169.717 C425.95,169.717 428.362,168.586 429.91,166.456 C432.476,162.923 431.691,157.979 428.157,155.414 Z" id="Shape"></path>
            <path d="M192.857,117.471 C192.173,113.159 188.122,110.213 183.81,110.902 L67.212,129.405 C62.9,130.089 59.959,134.14 60.643,138.452 C61.261,142.345 64.621,145.12 68.441,145.12 C68.853,145.12 69.271,145.088 69.69,145.021 L186.289,126.518 C190.602,125.834 193.543,121.784 192.857,117.471 Z" id="Shape"></path>
            <path d="M508.737,130.553 L331.322,1.731 C329.626,0.5 327.512,-0.01 325.438,0.321 C323.368,0.65 321.512,1.787 320.279,3.483 L242.908,110.041 L232.255,42.912 C231.927,40.841 230.789,38.986 229.092,37.753 C227.395,36.52 225.277,36.015 223.208,36.343 L6.668,70.706 C2.356,71.39 -0.585,75.441 0.099,79.752 L42.39,346.265 C42.719,348.336 43.856,350.191 45.552,351.424 C46.911,352.411 48.538,352.932 50.197,352.932 C50.609,352.932 51.023,352.899 51.436,352.834 L101.193,344.938 L101.193,429.764 C101.193,434.13 104.733,437.67 109.099,437.67 L328.35,437.67 C332.717,437.67 336.256,434.13 336.256,429.764 L336.256,407.471 C341.68,404.356 346.803,400.76 351.56,396.692 L371.259,416.392 L364.924,422.727 C361.837,425.814 361.837,430.82 364.924,433.908 L436.478,505.462 C438.022,507.006 440.045,507.778 442.069,507.778 C444.092,507.778 446.116,507.006 447.66,505.462 L471.512,481.61 C472.994,480.128 473.827,478.117 473.827,476.02 C473.827,473.923 472.994,471.912 471.512,470.43 L399.957,398.876 C398.474,397.393 396.463,396.56 394.366,396.56 C392.269,396.56 390.259,397.393 388.775,398.876 L382.44,405.211 L362.741,385.512 C378.342,367.3 386.852,344.375 386.852,320.138 C386.852,317.545 386.744,314.919 386.541,312.298 L510.49,141.594 C513.056,138.061 512.271,133.117 508.737,130.553 Z M394.365,415.648 L454.739,476.022 L442.068,488.693 L381.695,428.319 L394.365,415.648 Z M101.194,159.916 L101.194,192.317 L77.785,196.032 C73.473,196.716 70.532,200.767 71.216,205.079 C71.834,208.972 75.194,211.747 79.014,211.747 C79.426,211.747 79.844,211.715 80.263,211.648 L101.194,208.327 L101.194,260.624 L88.357,262.66 C84.045,263.344 81.104,267.395 81.788,271.707 C82.406,275.6 85.766,278.375 89.586,278.375 C89.998,278.375 90.416,278.343 90.835,278.276 L101.194,276.633 L101.194,328.93 L56.766,335.98 L16.954,85.083 L217.88,53.199 L229.771,128.134 L212.434,152.01 L109.099,152.01 C104.733,152.011 101.194,155.55 101.194,159.916 Z M320.446,421.859 L117.005,421.859 L117.005,335.68 L117.005,267.374 L117.005,199.069 L117.005,167.824 L216.45,167.824 C216.452,167.824 216.454,167.825 216.456,167.825 C216.459,167.825 216.462,167.824 216.464,167.824 L242.816,167.824 L306.072,167.824 C306.074,167.824 306.076,167.825 306.078,167.825 C306.081,167.825 306.084,167.824 306.088,167.824 L320.443,167.824 L320.443,176.084 L320.443,225.463 C309.516,221.489 298.041,219.475 286.185,219.475 C283.976,219.475 281.777,219.556 279.59,219.698 C279,219.558 278.386,219.475 277.753,219.475 L159.695,219.475 C155.329,219.475 151.789,223.015 151.789,227.381 C151.789,231.747 155.329,235.287 159.695,235.287 L232.013,235.287 C223.471,240.748 215.704,247.53 209.022,255.5 C201.138,264.9 195.146,275.455 191.148,286.937 L159.696,286.937 C155.33,286.937 151.79,290.477 151.79,294.843 C151.79,299.209 155.33,302.749 159.696,302.749 L187.032,302.749 C186.029,308.482 185.522,314.301 185.522,320.142 C185.522,332.007 187.533,343.482 191.5,354.4 L159.697,354.4 C155.331,354.4 151.791,357.94 151.791,362.306 C151.791,366.672 155.331,370.212 159.697,370.212 L198.853,370.212 C216.803,401.54 249.824,420.808 286.188,420.808 C298.052,420.808 309.527,418.797 320.446,414.83 L320.446,421.859 Z M346.188,380.14 C346.187,380.141 346.186,380.142 346.185,380.143 C339.877,386.451 332.665,391.699 324.752,395.744 C312.747,401.881 299.772,404.993 286.187,404.993 C254.148,404.993 225.177,387.256 210.581,358.704 C210.58,358.702 210.579,358.7 210.578,358.698 C204.443,346.695 201.333,333.722 201.333,320.139 C201.333,312.304 202.412,304.516 204.542,296.994 C207.815,285.431 213.4,274.887 221.14,265.657 C237.325,246.355 261.034,235.285 286.188,235.285 C299.757,235.285 312.733,238.401 324.752,244.548 C350.346,257.637 367.465,282.443 370.54,310.906 C370.541,310.911 370.542,310.917 370.542,310.923 C370.873,313.997 371.042,317.097 371.042,320.139 C371.041,342.806 362.215,364.113 346.188,380.14 Z M382.541,290.896 C375.179,266.506 358.759,245.719 336.256,232.818 L336.256,191.594 L379.232,222.798 C380.635,223.816 382.259,224.307 383.87,224.307 C386.314,224.307 388.726,223.176 390.274,221.046 C392.84,217.513 392.054,212.569 388.521,210.003 L336.256,172.054 L336.256,159.918 C336.256,155.552 332.717,152.012 328.35,152.012 L308.654,152.012 L292.99,140.638 C289.457,138.073 284.512,138.856 281.947,142.39 C279.796,145.352 280.007,149.3 282.21,152.012 L242.815,152.012 L231.972,152.012 L244.486,134.778 C244.487,134.777 244.488,134.776 244.489,134.774 L328.429,19.171 L493.05,138.702 L382.541,290.896 Z" id="Shape"></path>
            <path d="M286.187,253.205 C249.279,253.205 219.252,283.232 219.252,320.14 C219.252,357.048 249.279,387.075 286.187,387.075 C323.095,387.075 353.122,357.048 353.122,320.14 C353.122,283.231 323.095,253.205 286.187,253.205 Z M286.187,371.263 C257.997,371.263 235.064,348.329 235.064,320.14 C235.064,291.95 257.998,269.017 286.187,269.017 C314.377,269.017 337.31,291.951 337.31,320.14 C337.31,348.329 314.376,371.263 286.187,371.263 Z" id="Shape"></path>
            <path d="M308.643,318.766 C305.555,315.679 300.55,315.679 297.461,318.766 L276.379,339.848 C273.292,342.935 273.292,347.941 276.379,351.028 C277.923,352.571 279.947,353.344 281.97,353.344 C283.993,353.344 286.017,352.572 287.561,351.028 L308.643,329.946 C311.731,326.858 311.731,321.852 308.643,318.766 Z" id="Shape"></path>
            <path d="M300.21,285.035 C297.122,281.948 292.117,281.948 289.029,285.035 L265.839,308.225 C262.752,311.312 262.752,316.318 265.839,319.405 C267.383,320.948 269.407,321.721 271.43,321.721 C273.453,321.721 275.477,320.949 277.021,319.405 L300.21,296.215 C303.298,293.127 303.298,288.121 300.21,285.035 Z" id="Shape"></path>
        </g>
    </g>
</svg>