<svg width="56" height="56" viewBox="0 0 56 56" version="1.1" xmlns="http://www.w3.org/2000/svg" xmlns:xlink="http://www.w3.org/1999/xlink">
<title>other-file-uploade</title>
<desc>Created using Figma</desc>
<g id="Canvas" transform="translate(361 1013)">
<clipPath id="clip-0" clip-rule="evenodd">
<path d="M -361 -1013L -305 -1013L -305 -957L -361 -957L -361 -1013Z" fill="#FFFFFF"/>
</clipPath>
<g id="other-file-uploade" clip-path="url(#clip-0)">
<g id="Vector">
<use xlink:href="#path0_fill" transform="translate(-358 -1005)" fill="#E9EBF7"/>
<use xlink:href="#path1_fill" transform="translate(-358 -1005)" fill="#E9EBF7"/>
<use xlink:href="#path2_fill" transform="translate(-358 -1005)" fill="#E9EBF7"/>
</g>
</g>
</g>
<defs>
<path id="path0_fill" d="M 49.1379 0L 0.862069 0C 0.386207 0 0 0.388696 0 0.869565L 0 39.1304C 0 39.6113 0.386207 40 0.862069 40L 49.1379 40C 49.6138 40 50 39.6113 50 39.1304L 50 0.869565C 50 0.388696 49.6138 0 49.1379 0ZM 48.2759 38.2609L 1.72414 38.2609L 1.72414 1.73913L 48.2759 1.73913L 48.2759 38.2609Z"/>
<path id="path1_fill" d="M 13.793 19.2505C 16.4404 19.2505 18.5938 17.0783 18.5938 14.4087C 18.5938 11.7374 16.4404 9.56525 13.793 9.56525C 11.1455 9.56525 8.9921 11.7374 8.9921 14.4079C 8.9921 17.0783 11.1455 19.2505 13.793 19.2505ZM 13.793 11.3044C 15.4895 11.3044 16.8697 12.6974 16.8697 14.4079C 16.8697 16.1183 15.4895 17.5113 13.793 17.5113C 12.0964 17.5113 10.7162 16.1192 10.7162 14.4087C 10.7162 12.6983 12.0964 11.3044 13.793 11.3044Z"/>
<path id="path2_fill" d="M 6.03464 34.7826C 6.23637 34.7826 6.43982 34.7113 6.60361 34.5661L 20.6665 22.0774L 29.5476 31.0348C 29.8846 31.3748 30.4295 31.3748 30.7665 31.0348C 31.1036 30.6948 31.1036 30.1452 30.7665 29.8052L 26.6226 25.6252L 34.5372 16.8826L 44.245 25.8591C 44.5959 26.1834 45.1415 26.1591 45.4631 25.8052C 45.7846 25.4513 45.7614 24.9008 45.4096 24.5765L 35.0648 15.0113C 34.8959 14.8556 34.6709 14.7782 34.4441 14.7835C 34.2157 14.7939 34.0002 14.8956 33.8459 15.0661L 25.4027 24.3939L 21.314 20.2695C 20.9915 19.9452 20.476 19.9287 20.1346 20.2313L 5.46482 33.26C 5.10706 33.5774 5.07258 34.1269 5.38723 34.4878C 5.55792 34.6834 5.79585 34.7826 6.03464 34.7826Z"/>
</defs>
</svg>
