<svg width="24" height="24" viewBox="0 0 24 24" version="1.1" xmlns="http://www.w3.org/2000/svg" xmlns:xlink="http://www.w3.org/1999/xlink">
<title>other-clear</title>
<desc>Created using Figma</desc>
<g id="Canvas" transform="translate(-920 694)">
<g id="other-clear">
<g id="Union">
<use xlink:href="#path0_fill" transform="translate(927 -687)" fill="#3D3D3D"/>
</g>
</g>
</g>
<defs>
<path id="path0_fill" d="M 0.166866 0.166818C -0.0556221 0.389242 -0.0556221 0.749979 0.166866 0.972403L 4.19448 5.00001L 0.166866 9.02761C -0.0556221 9.2501 -0.0556221 9.61071 0.166866 9.83313C 0.389291 10.0556 0.7499 10.0556 0.972389 9.83313L 5 5.80553L 9.02761 9.83313C 9.2501 10.0556 9.61071 10.0556 9.83313 9.83313C 10.0556 9.61071 10.0556 9.2501 9.83313 9.02761L 5.80552 5.00001L 9.83313 0.972403C 10.0556 0.749979 10.0556 0.389242 9.83313 0.166818C 9.61071 -0.0556061 9.2501 -0.0556061 9.02761 0.166818L 5 4.19442L 0.972389 0.166818C 0.7499 -0.0556061 0.389291 -0.0556061 0.166866 0.166818Z"/>
</defs>
</svg>
