<svg width="56" height="56" viewBox="0 0 56 56" version="1.1" xmlns="http://www.w3.org/2000/svg" xmlns:xlink="http://www.w3.org/1999/xlink">
<g id="Canvas" fill="none">
<g id="other-file-uploader" clip-path="url(#clip0)">
<g id="file">
<g id="Group">
<g id="Vector">
<path d="M 35.2688 40.8871C 35.4486 40.741 35.5639 40.5171 35.5639 40.266C 35.5639 40.2589 35.5639 3.98936 35.5639 3.98936C 35.5639 3.54862 35.2098 3.19149 34.773 3.19149L 11.8915 3.19149C 11.3272 1.34543 9.62048 0 7.60793 0C 5.62775 0 3.89507 1.33128 3.32511 3.19149L 0.790889 3.19149C 0.354002 3.19149 5.79264e-08 3.54862 5.79264e-08 3.98936L 5.79264e-08 49.2021C 5.79264e-08 49.6429 0.354002 50 0.790889 50L 25.9082 50C 26.1639 50 26.3855 49.8838 26.5305 49.7028L 35.2688 40.8871ZM 26.7059 47.2689L 26.7059 41.0638L 32.8566 41.0638L 26.7059 47.2689ZM 7.60793 1.59574C 8.73236 1.59574 9.70874 2.24521 10.1896 3.19149L 5.02605 3.19149C 5.51155 2.23957 6.49974 1.59574 7.60793 1.59574ZM 1.58178 4.78723L 10.5079 4.78723L 10.5079 10.3723C 10.5079 11.1056 9.91659 11.7021 9.18971 11.7021C 8.46283 11.7021 7.87156 11.1056 7.87156 10.3723L 7.87156 7.18085C 7.87156 6.74011 7.51756 6.38298 7.08067 6.38298C 6.64378 6.38298 6.28978 6.74011 6.28978 7.18085L 6.28978 10.3723C 6.28978 11.9854 7.59074 13.2979 9.18971 13.2979C 10.7887 13.2979 12.0896 11.9854 12.0896 10.3723L 12.0896 4.78723L 33.9821 4.78723L 33.9821 39.4681L 25.915 39.4681C 25.4781 39.4681 25.1241 39.8252 25.1241 40.266L 25.1241 48.4043L 1.58178 48.4043L 1.58178 4.78723Z" transform="translate(6 3)" fill="#E8EBF7"/>
</g>
<g id="Vector_2">
<path d="M 22.1187 1.59574C 22.5556 1.59574 22.9096 1.23862 22.9096 0.797872C 22.9096 0.357128 22.5556 0 22.1187 0L 0.790889 0C 0.354002 0 5.79264e-08 0.357128 5.79264e-08 0.797872C 5.79264e-08 1.23862 0.354002 1.59574 0.790889 1.59574L 22.1187 1.59574Z" transform="translate(12.3271 38.1596)" fill="#E8EBF7"/>
</g>
<g id="Vector_3">
<path d="M 0.790889 1.59574L 22.1187 1.59574C 22.5556 1.59574 22.9096 1.23862 22.9096 0.797872C 22.9096 0.357128 22.5556 0 22.1187 0L 0.790889 0C 0.354002 0 5.79264e-08 0.357128 5.79264e-08 0.797872C 5.79264e-08 1.23862 0.354002 1.59574 0.790889 1.59574Z" transform="translate(12.3271 33.3723)" fill="#E8EBF7"/>
</g>
<g id="Vector_4">
<path d="M 0.790889 1.59574L 22.1187 1.59574C 22.5556 1.59574 22.9096 1.23862 22.9096 0.797872C 22.9096 0.357128 22.5556 0 22.1187 0L 0.790889 0C 0.354002 0 5.79264e-08 0.357128 5.79264e-08 0.797872C 5.79264e-08 1.23862 0.354002 1.59574 0.790889 1.59574Z" transform="translate(12.3271 28.5851)" fill="#E8EBF7"/>
</g>
<g id="Vector_5">
<path d="M 0.790889 1.59574L 22.1187 1.59574C 22.5556 1.59574 22.9096 1.23862 22.9096 0.797872C 22.9096 0.357128 22.5556 0 22.1187 0L 0.790889 0C 0.354002 0 5.79264e-08 0.357128 5.79264e-08 0.797872C 5.79264e-08 1.23862 0.354002 1.59574 0.790889 1.59574Z" transform="translate(12.3271 23.7979)" fill="#E8EBF7"/>
</g>
<g id="Vector_6">
<path d="M 0.790889 1.59574L 22.1187 1.59574C 22.5556 1.59574 22.9096 1.23862 22.9096 0.797872C 22.9096 0.357128 22.5556 0 22.1187 0L 0.790889 0C 0.354002 0 5.79264e-08 0.357128 5.79264e-08 0.797872C 5.79264e-08 1.23862 0.354002 1.59574 0.790889 1.59574Z" transform="translate(12.3271 19.0106)" fill="#E8EBF7"/>
</g>
<g id="Vector_7">
<path d="M 10.0255 0L 8.971 0C 8.53411 0 8.18011 0.357128 8.18011 0.797872C 8.18011 1.23862 8.53411 1.59574 8.971 1.59574L 9.23463 1.59574L 9.23463 45.2128L 0.790887 45.2128C 0.354 45.2128 -1.51896e-06 45.5699 -1.51896e-06 46.0106C -1.51896e-06 46.4514 0.354 46.8085 0.790887 46.8085L 10.0255 46.8085C 10.4624 46.8085 10.8164 46.4514 10.8164 46.0106L 10.8164 0.797872C 10.8164 0.357128 10.4624 0 10.0255 0Z" transform="translate(34.9655 6.19153)" fill="#E8EBF7"/>
</g>
<g id="Vector_8">
<path d="M 1.84541 0L 0.79089 0C 0.354003 0 7.46607e-07 0.357128 7.46607e-07 0.797872C 7.46607e-07 1.23862 0.354003 1.59574 0.79089 1.59574L 1.05452 1.59574L 1.05452 45.2128L 0.79089 45.2128C 0.354003 45.2128 7.46607e-07 45.5699 7.46607e-07 46.0106C 7.46607e-07 46.4514 0.354003 46.8085 0.79089 46.8085L 1.84541 46.8085C 2.2823 46.8085 2.6363 46.4514 2.6363 46.0106L 2.6363 0.797872C 2.6363 0.357128 2.2823 0 1.84541 0Z" transform="translate(47.3637 6.19153)" fill="#E8EBF7"/>
</g>
</g>
</g>
</g>
</g>
<defs>

<clipPath id="clip0">
<rect width="56" height="56" fill="white"/>
</clipPath>

</defs>
</svg>

