<svg width="32" height="32" viewBox="0 0 32 32" version="1.1" xmlns="http://www.w3.org/2000/svg" xmlns:xlink="http://www.w3.org/1999/xlink">
<title>map-pin-active</title>
<desc>Created using Figma</desc>
<g id="Canvas" transform="translate(-3121 -405)">
<g id="map-pin-active">
<g id="pin">
<g id="pin">
<use xlink:href="#path0_fill" transform="translate(3125 406)" fill="#275DF2"/>
</g>
<g id="Ellipse">
<use xlink:href="#path1_fill" transform="translate(3133 414)" fill="#FFFFFF"/>
</g>
</g>
</g>
</g>
<defs>
<path id="path0_fill" d="M 24 12C 24 20 12 30 12 30C 12 30 0 20 0 12C 0 5.37258 5.37258 0 12 0C 18.6274 0 24 5.37258 24 12Z"/>
<path id="path1_fill" d="M 8 4C 8 6.20914 6.20914 8 4 8C 1.79086 8 0 6.20914 0 4C 0 1.79086 1.79086 0 4 0C 6.20914 0 8 1.79086 8 4Z"/>
</defs>
</svg>
